SplineFontDB: 3.0
FontName: Butcherman-Regular
FullName: Butcherman
FamilyName: Butcherman
Weight: Regular
Copyright: Copyright (c) 2011, Typomondo, with Reserved Font Name  "Butcherman".
Version: 001.003
ItalicAngle: 0
UnderlinePosition: -103
UnderlineWidth: 102
Ascent: 1638
Descent: 410
sfntRevision: 0x000100083
LayerCount: 2
Layer: 0 0 "Back"  1
Layer: 1 0 "Fore"  0
NeedsXUIDChange: 1
XUID: [1021 14 500265001 11126761]
FSType: 0
OS2Version: 3
OS2_WeightWidthSlopeOnly: 0
OS2_UseTypoMetrics: 1
CreationTime: 1319103480
ModificationTime: 1319458671
PfmFamily: 81
TTFWeight: 400
TTFWidth: 5
LineGap: 0
VLineGap: 0
Panose: 2 0 0 0 0 0 0 0 0 0
OS2TypoAscent: 2600
OS2TypoAOffset: 0
OS2TypoDescent: -1363
OS2TypoDOffset: 0
OS2TypoLinegap: 0
OS2WinAscent: 2600
OS2WinAOffset: 0
OS2WinDescent: 1363
OS2WinDOffset: 0
HheadAscent: 2600
HheadAOffset: 0
HheadDescent: -1363
HheadDOffset: 0
OS2SubXSize: 1331
OS2SubYSize: 1228
OS2SubXOff: 0
OS2SubYOff: 153
OS2SupXSize: 1331
OS2SupYSize: 1228
OS2SupXOff: 0
OS2SupYOff: 716
OS2StrikeYSize: 102
OS2StrikeYPos: 754
OS2Vendor: 'typm'
OS2CodePages: 20000081.00000000
OS2UnicodeRanges: 00000003.00000000.00000000.00000000
Lookup: 4 0 1 "'liga' Standard Ligatures in Latin lookup 0"  {"'liga'"  } ['liga' ('DFLT' <'dflt' > 'latn' <'dflt' > ) ]
MarkAttachClasses: 1
DEI: 91125
LangName: 1033 "" "" "" "" "" "" "" "" "" "" "" "" "" "This Font Software is licensed under the SIL Open Font License, Version 1.1. This license is available with a FAQ at: http://scripts.sil.org/OFL" "http://scripts.sil.org/OFL" 
GaspTable: 1 65535 15
Encoding: Custom
UnicodeInterp: none
NameList: Adobe Glyph List
DisplaySize: -48
AntiAlias: 1
FitToEm: 1
WidthSeparation: 307
WinInfo: 100 25 10
BeginPrivate: 4
StdHW 5 [279]
StdVW 4 [55]
StemSnapH 13 [279 334 362]
StemSnapV 19 [55 82 389 446 502]
EndPrivate
Grid
-2048 1114.5 m 0
 4096 1114.5 l 0
EndSplineSet
BeginChars: 338 329

StartChar: o_o
Encoding: 327 -1 0
Width: 2106
VWidth: 2308
Flags: W
HStem: 6 186<486.511 575.433> 1072 25<53 56> 1492 20G<348.5 529 530.636 565 1342 1555 1556.73 1592>
VStem: 741 40<-154.928 -44.3526> 1767 40<-154.928 -57.5547>
LayerCount: 2
Fore
SplineSet
889 170 m 1
 838 117 776 -6 781 -91 c 1
 781 -155 l 1
 763 -155 l 2
 744 -155 741 -144 741 -128 c 0
 741 -109 745 -87 745 -76 c 0
 745 -53 724 -40 709 -38 c 1
 709 -60 l 1
 698 -58 l 1
 673 -86 l 1
 655 -66 l 1
 655 -109 l 1
 629 -134 l 1
 541 -115 614 6 529 6 c 0
 506 6 492 -22 481 -22 c 0
 479 -22 476 -19 474 -16 c 1
 434 -73 l 1
 416 -39 381 43 345 43 c 0
 336 43 285 20 274 16 c 1
 269 82 213 92 213 170 c 1
 215 170 l 1
 143 435 102 756 67 1050 c 1
 60 1046 l 1
 53 1048 l 1
 73 1072 l 1
 53 1072 l 1
 53 1097 l 1
 56 1097 l 1
 53 1120 l 1
 62 1118 l 1
 69 1133 75 1154 75 1172 c 0
 75 1179 73 1184 73 1188 c 1
 54 1188 l 1
 97 1201 168 1512 529 1512 c 1
 529 1490 l 1
 547 1512 l 1
 583 1512 619 1490 655 1490 c 1
 655 1512 l 1
 731 1512 831 1431 889 1375 c 1
 907 1397 l 1
 908 1379 l 1
 892 1375 l 1
 925 1350 l 1
 908 1329 l 1
 914 1314 946 1282 963 1282 c 2
 967 1282 l 1
 1015 1212 l 1
 1002 1212 l 1
 997 1186 997 1159 997 1130 c 0
 997 1101 996 1072 998 1048 c 1
 1015 1026 l 1
 1015 963 998 905 998 842 c 1
 1015 842 l 1
 998 610 925 405 871 192 c 1
 889 170 l 1
637 402 m 1
 619 424 l 1
 619 449 l 2
 619 470 625 479 637 493 c 1
 637 564 l 2
 637 587 633 614 619 632 c 1
 619 683 l 2
 619 736 608 866 546 866 c 2
 511 866 l 1
 511 842 l 1
 492 842 l 1
 460 797 437 743 437 679 c 2
 437 493 l 2
 437 485 444 474 448 470 c 1
 437 470 l 1
 437 402 l 2
 437 383 445 367 457 355 c 1
 457 309 484 227 511 192 c 1
 529 192 l 2
 586 192 601 263 601 322 c 0
 601 334 602 344 600 355 c 1
 619 355 l 1
 619 402 l 1
 637 402 l 1
73 1003 m 1
 53 1003 l 1
 53 1026 l 1
 73 1003 l 1
73 981 m 1
 53 981 l 1
 56 992 l 1
 73 981 l 1
1579 -157 m 0
 1122 -157 1221 587 1117 1050 c 1
 1110 1046 l 1
 1124 1184 1129 1512 1555 1512 c 1
 1555 1490 l 1
 1574 1512 l 1
 1610 1512 1645 1490 1681 1490 c 1
 1681 1512 l 1
 1757 1512 1861 1431 1925 1375 c 1
 1945 1397 l 1
 1947 1379 l 1
 1929 1375 l 1
 1967 1350 l 1
 1947 1329 l 1
 1954 1314 1990 1282 2009 1282 c 2
 2013 1282 l 1
 2065 1212 l 1
 2051 1212 l 1
 2045 1186 2045 1159 2045 1130 c 0
 2045 1101 2045 1072 2047 1048 c 1
 2065 1026 l 1
 2065 963 2047 905 2047 842 c 1
 2065 842 l 1
 2046 610 1965 405 1905 192 c 1
 1925 170 l 1
 1868 117 1802 -6 1807 -91 c 1
 1807 -155 l 1
 1789 -155 l 2
 1770 -155 1767 -144 1767 -128 c 0
 1767 -73 1757 -54 1743 -54 c 1
 1692 -68 1658 -157 1579 -157 c 0
1645 683 m 0
 1645 736 1635 866 1573 866 c 2
 1537 866 l 1
 1537 842 l 1
 1519 842 l 1
 1487 797 1463 743 1463 679 c 2
 1463 493 l 2
 1463 485 1470 474 1474 470 c 1
 1463 470 l 1
 1463 402 l 2
 1463 383 1472 367 1484 355 c 1
 1484 309 1510 227 1537 192 c 1
 1555 192 l 2
 1612 192 1628 263 1628 322 c 0
 1628 334 1629 344 1627 355 c 1
 1629 354 1628 354 1630 354 c 0
 1649 354 1655 406 1655 469 c 0
 1655 554 1645 658 1645 683 c 0
EndSplineSet
LCarets2: 1 0 
Ligature2: "'liga'" o o
EndChar

StartChar: E
Encoding: 38 69 4
Width: 1169
VWidth: 2308
Flags: W
HStem: 31 230<633.582 753.451> 402 277<559 776.337>
VStem: 291 49<-53.504 54.9825> 470 55<-99.1366 6> 759 54<-88.8866 21.8936> 794 17<-67.4252 -49.9999>
LayerCount: 2
Fore
SplineSet
686 31 m 1xf8
 644.40708154 29.3408163961 613.400327091 -51.4934951933 598 -89 c 1
 596 -86 l 1
 536 -86 541 -86 541 -16 c 1
 525 6 l 1
 525 -4 533 -35 533 -60 c 0
 533 -89 521 -113 470 -113 c 1
 470 55 l 1
 455 71 425 79 400 79 c 0
 394 79 385 79 381 77 c 1
 360 55 l 1
 346 55 340 31 340 3 c 0
 340 -15 342 -29 344 -38 c 1
 308 -86 l 1
 289 -86 l 1
 291 -45 l 1
 291 172 252 396 228 610 c 1
 250 610 l 1
 228 632 l 1
 208 824 189 1017 189 1212 c 1
 210 1212 l 1
 210 1234 l 1
 169 1234 l 1
 169 1282 l 1
 141 1340 94 1399 49 1443 c 1
 67 1443 l 1
 88 1466 l 1
 238 1495 379 1507 515 1507 c 0
 705 1507 900 1484 1108 1443 c 1
 1074 1413 1049 1371 1027 1329 c 1
 1027 1154 907 992 907 795 c 1
 788 795 661 866 541 866 c 1
 541 679 l 1
 525 656 l 1
 559 679 l 1
 722 679 l 2
 740 679 763 671 777 656 c 1
 811 656 l 1
 811 618 809 576 795 539 c 1
 797 519 799 497 799 477 c 0
 799 442 794 408 777 377 c 1
 769 380 729 402 722 402 c 2
 559 402 l 1
 525 377 l 1
 525 238 l 1
 541 217 l 1
 541 261 l 1
 705 261 l 2
 746 261 800 238 850 238 c 1
 850 205 832 178 832 146 c 1
 811 122 l 1xf4
 813 46 l 1
 812.6141824 2.88727771978 795.88183676 -45.9736002725 789 -91 c 1
 757 -132 l 1
 738 -86 l 1
 757 -87 757 -92 757 -96 c 1
 759 -92 759 -84 759 -76 c 0
 759 2 755 31 686 31 c 1xf8
794 -77 m 1
 793.626343516 -60.5300424834 796.350958331 -49.9793118828 808 -48 c 1
 811 -48 l 1
 811 -58 797 -65 794 -77 c 1
792 -86 m 1
 790 -87 l 2
 790 -86 792 -86 792 -86 c 1
EndSplineSet
EndChar

StartChar: F
Encoding: 39 70 5
Width: 1145
VWidth: 2308
Flags: W
HStem: 408 277<626 662 700.612 860.035> 733 46<931.086 949> 1428 1<48 53>
VStem: 290 318<-7.7039 292 315 358.218 707.33 822.941> 290 23<-135.282 -53.842> 488 17<-167.667 -144> 608 18<-120 -120 -75.6907 -37.1357> 626 36<408 429>
LayerCount: 2
Fore
SplineSet
53 1428 m 1xf0
 70 1450 l 1
 48 1429 l 1
 30 1450 l 1
 248 1495 l 1
 264 1479 288 1472 306 1472 c 1
 324 1495 l 1
 559 1495 l 1
 573 1476 590 1470 606 1470 c 0
 628 1470 649 1480 668 1495 c 1
 668 1450 l 1
 703 1495 l 1
 824 1474 960 1474 1089 1428 c 1
 957 1428 929 901 929 779 c 1
 949 779 l 1
 949 733 l 1
 871 751 814 801 741 801 c 1
 741 824 l 1
 736 824 714 824 714 813 c 0
 714 809 716 805 720 801 c 1
 711 799 697 799 684 799 c 0
 647 799 601 805 576 824 c 1
 590 805 596 765 596 735 c 0
 596 724 628 714 626 707 c 1xf1
 608 685 l 1xe2
 879 685 l 1
 893 663 l 1
 879 638 l 1
 879 500 l 1
 862 500 l 1
 876 474 879 439 879 408 c 0
 879 399 865 370 862 361 c 1
 842 402 791 411 749 411 c 0
 730 411 713 409 700 408 c 1
 703 411 704 416 704 418 c 0
 704 424 695 428 689 428 c 0
 683 428 676 426 676 418 c 0
 676 416 676 413 678 411 c 2
 662 429 l 1
 662 408 l 1
 626 408 l 1
 626 429 l 1
 610 408 608 380 608 351 c 2
 608 315 l 1
 589 315 l 1
 608 292 l 1
 608 182 626 75 626 -33 c 2xf1
 626 -120 l 1
 608 -142 l 1
 608 -120 l 1
 589 -96 l 1
 594 -87 608 -59 608 -51 c 2
 608 -43 l 2
 608 -35 577 -33 529 -33 c 1
 510 -43 505 -72 505 -113 c 0
 505 -134 512 -149 512 -170 c 1
 510 -168 503 -168 488 -166 c 1
 488 -144 l 1
 468 -120 l 1
 468 -79 l 1
 389 -10 l 1
 328 -10 313 -65 313 -128 c 0
 313 -132 328 -136 328 -138 c 2
 328 -147 l 1
 308 -141 290 -132 290 -125 c 2xee
 290 174 l 1xf0
 326 221 295 302 328 361 c 1
 308 385 l 1
 308 408 l 1
 290 429 l 1
 308 452 l 1
 290 477 l 1xe8
 290 755 l 1
 262 789 281 870 248 870 c 1
 248 1046 l 2
 248 1237 232 1265 53 1428 c 1xf0
53 1428 m 1
 48 1428 l 1
 48 1429 l 1
 53 1428 l 1
EndSplineSet
EndChar

StartChar: G
Encoding: 40 71 6
Width: 1022
VWidth: 2308
Flags: W
HStem: 255 25<458.67 469.075> 324 200<548.176 657> 1485 20G<392 439 462 468 493 563.5>
VStem: 151 252<602 747.438> 349 18<-107.056 -91> 367 57<-205 -128.384> 422 56<-95.5283 -22> 472 4<255 271> 551 47<-138.307 -82.0811>
LayerCount: 2
Fore
SplineSet
458 231 m 1xf180
 510 170 l 1
 547 185 l 1
 547 166 l 1
 566 164 l 1
 566 202 637 209 657 231 c 1
 637 255 l 1
 642 268 657 300 657 319 c 2
 657 324 l 1
 637 324 l 2
 603 324 572 310 547 280 c 1
 547 379 530 475 530 578 c 1
 562 534 602 524 643 524 c 0
 683 524 724 534 767 534 c 0
 814 534 896 525 930 487 c 1
 930 380 l 2
 930 205 916 -14 769 -65 c 1
 754 -91 728 -61 728 -138 c 0
 728 -146 722 -154 692 -161 c 1
 674 -135 l 1
 692 -138 l 1
 655 -63 l 1
 605 -84 598 -104 598 -140 c 0
 598 -146 601 -152 601 -163 c 1
 601 -150 595 -138 566 -138 c 0
 549 -138 545 -116 545 -116 c 1
 545 -114 551 -109 551 -107 c 0
 551 -84 490 2 476 24 c 1xf180
 478 13 478 -2 478 -14 c 0
 478 -58 472 -103 464 -144 c 1
 442 -125 422 -63 422 -22 c 1
 403 -46 l 1xf280
 385 -46 l 1
 389 -48 l 1
 367 -91 l 1xe880
 367 -115 424 -138 424 -163 c 0
 424 -185 421 -209 399 -207 c 2
 367 -205 l 1xe480
 367 -159 349 -115 349 -68 c 1xe880
 314 -68 275 -5 253 24 c 1
 248 21 l 1
 185 171 151 300 151 462 c 0
 151 592 70 908 70 1147 c 0
 70 1173 77 1209 93 1229 c 1
 98 1217 l 1
 102 1222 l 1
 93 1298 l 1
 107 1332 128 1361 151 1389 c 1
 194 1367 l 1
 207 1389 l 1
 194 1414 l 1
 281 1414 345 1505 439 1505 c 1
 439 1484 l 1
 461 1484 448 1505 476 1505 c 1xf180
 458 1460 l 1
 468 1470 493 1486 493 1505 c 1
 634 1505 819 1421 930 1298 c 1
 907 1298 l 1
 930 1247 l 1
 930 1251 l 1
 972 1203 981 1132 981 1066 c 0
 981 965 928 834 928 681 c 0
 928 667 946 617 949 602 c 1
 904 602 l 2
 863 602 607 600 603 667 c 1
 595 653 l 1
 599 663 601 675 601 685 c 0
 601 704 595 721 584 742 c 1
 603 764 l 1
 584 764 l 1
 566 789 l 1
 566 820 l 1
 547 811 l 1
 543 847 522 858 495 858 c 0
 430 858 422 815 422 745 c 1
 418 748 l 1
 424 736 425 724 425 714 c 2
 422 676 l 1
 417 648 403 637 403 602 c 1
 422 578 l 1xf280
 403 534 l 1
 436 460 422 369 458 301 c 1
 439 301 l 1
 439 280 l 1
 449 280 472 274 472 255 c 1
 468 255 l 2
 458 255 458 238 458 231 c 1xf180
458 231 m 1
 476 255 l 1
 476 243 470 231 458 231 c 1
476 255 m 1
 472 255 l 1
 476 271 l 1
 476 255 l 1
595 653 m 2
 593 649 591 644 587 640 c 1
 595 653 l 2
586 638 m 2
 586 637 584 635 584 635 c 1
 586 638 l 2
EndSplineSet
EndChar

StartChar: H
Encoding: 41 72 7
Width: 1488
VWidth: 2308
Flags: W
HStem: -89 48<324.997 339.712> 1490 20G<654 682 819 845.5 982.667 1018.5 1099 1116.14>
VStem: 179 443<977.709 1324> 748 37<-412 -257.787> 785 314<-45.0039 24.0803 51.0677 306> 830 72<-133.136 -89.0959> 839 330<689.023 857.346> 996 3<-64.9293 -63>
LayerCount: 2
Fore
SplineSet
979 -155 m 1xe8
 1009 -89 l 1
 999 -63 l 2
 999 -65 997 -65 997 -65 c 2
 996 -65 996 -65 996 -63 c 1
 948 -91 l 1
 939 -89 l 1
 898 -48 l 1
 902 -73 l 1
 902 -104 891 -134 858 -134 c 1
 854 -125 830 -109 830 -97 c 0xe5
 830 -96 833 -91 839 -89 c 1xe2
 803 -65 l 1
 785 -94 l 1xe8
 787 -53 803 -15 803 26 c 1
 766 3 l 1
 748 51 l 1xf0
 779 51 786 144 786 219 c 0
 786 260 785 294 785 306 c 0
 785 342 804 375 804 411 c 0
 804 419 797 424 793 424 c 0
 789 424 787 421 785 421 c 1xe8
 766 444 l 1
 718 444 672 421 622 421 c 1
 622 398 l 1
 594 365 l 1
 613 375 l 1
 616 340 624 301 624 268 c 2
 622 3 l 1
 541 -41 l 1
 543 -26 l 1
 539 -22 l 1
 462 -18 l 2
 432 -17 404 -79 340 -89 c 1
 295 -46 l 1
 297 -43 301 -41 307 -41 c 0
 319 -41 334 -47 340 -51 c 1
 340 281 286 659 221 983 c 1
 207 1058 179 1132 179 1209 c 0
 179 1325 94 1409 -6 1418 c 1
 78 1418 365 1426 421 1486 c 1
 427 1462 l 2
 428 1460 430 1460 430 1460 c 1
 437 1460 443 1470 443 1480 c 0
 443 1482 441 1484 441 1486 c 1
 527 1486 615 1510 693 1510 c 1
 671 1481 630 1350 601 1349 c 1
 622 1324 l 1
 622 1106 601 889 601 675 c 1
 635 675 661 700 693 700 c 1
 693 675 l 1
 736 675 776 700 819 700 c 1
 819 688 l 1
 837 710 839 721 839 742 c 0
 839 867.333333333 839 992.666666667 839 1118 c 0
 839 1148 865 1255 898 1255 c 1
 898 1296 839 1291 839 1395 c 0xe2
 839 1436 819 1469 819 1510 c 1
 872 1510 927 1505 979 1486 c 1
 1001 1510 l 1
 1036 1510 1064 1486 1099 1486 c 1
 1099 1510 l 1xe8
 1123 1482 l 1
 1259 1486 l 1
 1291 1443 1361 1482 1400 1441 c 1
 1458 1441 l 2
 1391 1441 1307 1216 1284 1156 c 1
 1238 1012 l 1
 1240 1002 l 1
 1233 954 l 1
 1226 957 l 1
 1219 954 l 1
 1240 931 l 1
 1219 865 1169 765 1169 696 c 0xe2
 1169 678 1173 665 1178 653 c 1
 1143 653 1136 611 1136 568 c 0
 1136 538 1140 505 1140 491 c 0
 1140 437 1119 383 1119 329 c 1
 1083 296 l 1
 1099 306 l 1
 1099 172 1059 46 1059 -89 c 0
 1059 -135 1016 -155 979 -155 c 1xe8
785 -205 m 1xe8
 785 -412 l 1
 748 -412 l 1
 748 -366 l 2xf0
 748 -323 760 -235 785 -205 c 1xe8
EndSplineSet
EndChar

StartChar: I
Encoding: 42 73 8
Width: 823
VWidth: 2308
Flags: W
HStem: -111 21G<469.167 515.217> -38 46<577 595> 1399 91<697.104 717> 1495 20G<94 374 424 535 535 591> 1495 20G<94 374 424 535 535 591>
VStem: 337 37<-65 31> 462 56<-60 -28.1018>
LayerCount: 2
Fore
SplineSet
500 -111 m 1xf6
 463 -87 l 1
 463 -84 462 -66 462 -53 c 0
 462 -43 462 -30 476 -28 c 1
 445 55 l 1
 392 55 l 1
 374 31 l 1
 374 -7 l 2
 374 -13 389 -45 392 -53 c 2
 374 -18 l 1
 374 -33 l 2
 374 -48 375 -87 354 -87 c 1
 337 -65 l 1
 297 240 225 657 225 957 c 0
 225 1020 247 1089 247 1143 c 0
 247 1176 223 1190 206 1212 c 1
 206 1293 140 1337 84 1375 c 1
 64 1419 l 1
 84 1443 l 1
 70 1443 l 2
 49 1443 38 1452 26 1468 c 1
 12 1468 l 1
 47 1471 81 1486 107 1515 c 1
 374 1515 l 1
 374 1490 l 1
 382 1494 421 1515 427 1515 c 2
 518 1515 l 1
 535 1497 l 1
 554 1515 l 1
 628 1515 704 1512 776 1490 c 1
 717 1399 l 1
 695 1399 l 1
 695 1375 l 1
 717 1375 l 1
 635 1212 l 1
 651 1209 665 1201 677 1188 c 1
 653 1063 649 894 616 773 c 1
 595 773 l 1
 597 750 601 722 616 704 c 1
 616 517 l 1
 581 517 l 1
 597 508 597 480 597 464 c 1
 595 449 l 1
 577 426 l 1
 577 402 l 1
 601 402 599 348 599 332 c 0
 599 245 577 164 577 79 c 0
 577 71 591 39 595 31 c 1
 577 8 l 1
 595 8 l 1
 616 -38 l 1
 577 -38 l 1
 554 -16 l 1
 535 -16 l 1
 518 8 l 1
 518 -60 l 1
 518 -60 533 -60 536 -45 c 1
 536 -53 535 -56 535 -65 c 1
 500 -111 l 1xf6
EndSplineSet
EndChar

StartChar: J
Encoding: 43 74 9
Width: 933
VWidth: 2308
Flags: W
HStem: 1379 70<798.487 816>
VStem: -25 259<269.027 386.065> 223 27<-43 -11.7894> 376 336<824.715 1053.03> 376 281<225.842 498>
LayerCount: 2
Fore
SplineSet
259 -18 m 1xa8
 258.370837569 -45.2130544329 248.548117502 -72.7623828559 235 -89 c 1
 215 -66 l 1
 215 -45 223 -34 223 -28 c 0xa8
 223 -15 209 -10 156 13 c 1
 116 13 l 1
 56 57 l 1
 14 57 -10 187 -25 221 c 1
 -4 268 l 1
 -25 290 -25 306 -25 337 c 1
 -37 351 -46 367 -46 387 c 0
 -46 517 58 440 116 498 c 1
 171 498 l 1
 125 474 l 1
 135 452 l 1
 197 521 l 1
 215 521 l 1
 235 546 l 1
 235 498 l 1
 215 498 l 1
 235 474 l 1
 234 385 l 1
 232 327 237 197 315 197 c 1
 368 278 379 324 379 390 c 0
 379 431 376 479 376 546 c 0
 376 562 396 586 396 615 c 0
 396 638 376 661 376 685 c 2xc8
 376 868 l 2x90
 376 936 396 1003 396 1079 c 1
 416 1101 416 1129 416 1158 c 2
 416 1170 l 1
 396 1170 l 1
 396 1240 l 1
 381 1260 376 1284 376 1310 c 1x88
 348 1348 324 1399 315 1449 c 1
 337 1449 l 1
 315 1472 l 1
 315 1495 l 1
 596 1495 l 2
 691 1495 784 1470 877 1449 c 1
 816 1379 l 1
 798 1379 l 1
 816 1356 l 1
 798 1332 l 1
 798 1247 784 1154 716 1101 c 1
 737 1054 l 1
 718 1034 712 964 712 904 c 0x90
 712 870 714 839 716 824 c 1
 659 752 696 607 657 521 c 1
 637 521 l 1
 637 498 l 1
 657 498 l 1
 657 396 617 300 617 197 c 1
 587 152 558 108 558 51 c 0
 558 21 556 -12 536 -35 c 1
 536 -33 l 1
 515 -48 l 1
 506 -50 497 -51 495 -53 c 1
 495 -51 495 -48 497 -45 c 2
 515 -22 l 1
 515 13 l 1
 497 36 l 1
 416 -35 l 1
 416 -55 l 1
 396 -77 l 1
 357 -77 l 1
 357 -81 l 1
 333 -55 337 -20 337 13 c 1
 296 57 l 1
 261 57 250 10 250 -43 c 1
 252 -28 259 -18 259 -18 c 1xa8
EndSplineSet
EndChar

StartChar: K
Encoding: 44 75 10
Width: 1189
VWidth: 2308
Flags: W
HStem: 1492 20G<293 352.619 381.429 407.083 471 488.073 519.417 561 707 723 801.5 817.5>
VStem: 400 34<-60 -18.1455> 542 19<-40.4681 -18> 670 198<1069.99 1164> 715 8<1501.61 1512> 778 27<-71.2415 -51.135>
LayerCount: 2
Fore
SplineSet
760 -41 m 1xe4
 723 -41 l 1
 705 -18 l 2
 703 -15 703 -10 703 -7 c 0
 703 21 717 55 723 75 c 1xec
 719 75 l 1
 670 214 l 1
 686 238 l 1
 670 238 l 1
 645 271 618 309 611 355 c 1
 600 255 563 294 542 238 c 1
 579 53 l 1
 569 29 l 1
 575 4 583 -20 597 -41 c 1
 561 -18 l 1
 561 -36 579 -47 583 -63 c 1
 579 -76 l 1
 595 -96 l 1
 561 -96 l 1
 544 -68 542 -46 542 -18 c 1
 520 0 498 6 471 6 c 0
 449 6 439 -22 434 -60 c 1
 417 -84 l 1
 400 -60 l 1
 400 -36 l 1
 382 -33 360 39 360 63 c 0
 360 70 361 73 361 75 c 1
 380 100 l 1
 380 122 l 1
 333 122 361 375 327 421 c 1
 347 452 l 1
 345 470 l 1
 328 470 325 495 325 517 c 0
 325 526 327 534 327 538 c 1
 306 562 l 1
 308 586 l 1
 327 586 l 1
 320 607 270 815 271 822 c 1
 284 828 290 844 290 858 c 2
 290 865 l 1
 271 886 l 1
 286 886 l 1
 286 977 219 1228 154 1301 c 1
 154 1349 l 1
 172 1349 l 1
 129 1357 49 1431 14 1464 c 1
 125 1495 241 1512 345 1512 c 1
 361 1470 l 1
 400 1512 l 1
 417 1464 l 1
 434 1495 l 1
 434 1488 l 2
 434 1464 455 1464 471 1464 c 1
 471 1505 l 1
 506 1464 l 1
 529 1512 l 1
 561 1512 l 1
 561 1405 l 2
 561 1270 579 1135 579 1002 c 1
 640 1079 670 1147 670 1257 c 1xf0
 703 1260 699 1470 715 1515 c 1
 723 1512 l 1
 723 1488 l 1xe8
 741 1464 l 1
 741 1488 l 1
 762 1507 790 1512 813 1512 c 1
 822 1483 1116 1443 1162 1441 c 1
 1047 1377 977 1251 868 1186 c 1
 886 1186 l 1
 868 1164 l 1xf0
 868 1061 811 969 811 866 c 1
 831 842 838 801 838 758 c 0
 838 714 831 665 831 632 c 0
 831 569 851 509 851 447 c 1
 831 447 l 1
 874 340 888 221 917 108 c 1
 922 122 l 1
 922 -22 l 2
 922 -53 920 -79 907 -109 c 1
 904 -107 l 1
 904 -66 873 -35 851 6 c 1
 800 4 805 -57 805 -73 c 1
 805 -73 803 -72 778 -70 c 1
 778 -60 760 -51 760 -41 c 1xe4
713 -41 m 1
 705 -41 l 1
 705 -36 l 2
 705 -38 709 -39 713 -41 c 1
431 -68 m 1
 431 -66 l 1
 431 -68 l 1
EndSplineSet
EndChar

StartChar: L
Encoding: 45 76 11
Width: 854
VWidth: 2308
Flags: W
HStem: 255 25<899 904.384> 1438 69<50 70> 1438 46<50 70>
VStem: 171 380<880 1110.91 1229 1272.93> 210 345<534 789> 350 22<-135.251 -71.3073> 490 57<-87 -22> 490 40<-107 -84.6671> 623 21<-113.248 -61.4247> 662 0<-87 -73> 759 45<-138 -113.096>
LayerCount: 2
Fore
SplineSet
356 -68 m 1xc2e0
 257.90105638 23.2197743355 262.091907402 277.975799436 231 396 c 1
 250 418 l 1
 231 464 l 1
 250 487 l 1
 231 510 l 1
 231 534 l 1
 210 534 l 1
 210 789 l 1xc8e0
 171 834 l 1
 190 880 l 1
 171 880 l 1
 171 1135 l 1
 143 1176 157 1231 129 1275 c 1
 151 1322 l 1
 129 1367 l 1
 116 1367 l 1
 129 1390 l 1
 111 1390 l 1
 90 1414 l 1
 90 1460 l 1
 70 1438 l 1
 50 1438 l 1xd0e0
 50 1460 l 1
 -3 1484 l 1xb0e0
 29 1484 57 1507 90 1507 c 2
 431 1507 l 1
 451 1488 l 1
 457 1504 474 1508 490 1508 c 0
 500 1508 507 1507 512 1507 c 1xc1e0
 530 1484 l 1
 570 1484 l 1xa1e0
 570 1507 l 1
 739 1507 l 1
 695 1459 661 1418 606 1390 c 1
 606 1332 583 1316 551 1275 c 1
 551 1229 l 1xd0e0
 530 1229 l 1
 530 1207 l 1xc1e0
 555 1207 572 1201 572 1170 c 1
 570 1112 l 1
 553 1089 549 1046 549 1003 c 0
 549 974 551 947 551 928 c 0xd0e0
 551 916 535 872 530 858 c 1xc1e0
 549 842 555 738 555 635 c 0xc8e0
 555 541 551 449 551 418 c 1xd0e0
 537 418 l 1
 537 398 572 348 572 312 c 0
 572 309 571 305 571 301 c 1
 589 280 l 1
 650 282 l 2
 696 284 744 253 791 255 c 0
 813 255 828 280 848 280 c 2
 879 280 l 2
 885 280 914 298 920 301 c 1
 920 255 l 1
 899 255 l 1
 899 185 l 1
 879 185 l 1
 899 164 l 1
 870 98 860 4 860 -68 c 1
 839 -68 l 1
 800 -113 l 1
 802 -115 804 -120 804 -124 c 0
 804 -137 796 -152 759 -155 c 1
 726 -118 l 1
 732 -118 737 -116 737 -116 c 1
 737 -116 744 -138 759 -138 c 1
 759 -91 l 1
 739 -91 l 1
 759 -68 l 1
 719 -68 l 1
 678 -22 l 1
 662 -46 l 1
 662 -87 l 1
 659 -73 654 -60 644 -60 c 1
 623 -138 l 1
 623 -43 589 23 589 46 c 1
 556 44 547 -24 547 -87 c 1xc2e0
 547 -86 549 -86 551 -84 c 1xd0e0
 542.86050493 -98.1938382631 537.094080242 -114.760746909 530 -130 c 1
 512 -130 l 1
 490 -107 l 1xc1e0
 490 -22 l 1
 472 -22 l 1
 451 -7 l 1
 431 -22 l 1
 384 -22 363 -38 356 -68 c 1xc2e0
350 -138 m 1x84e0
 350 -109 350 -87 356 -68 c 1
 361 -77 372 -97 372 -97 c 1
 372 -138 350 -138 350 -138 c 1x84e0
879 233 m 1
 899 209 l 1
 879 209 l 1
 879 233 l 1
726 -118 m 1
 723 -120 719 -120 719 -120 c 1
 719 -109 l 1
 726 -118 l 1
EndSplineSet
EndChar

StartChar: M
Encoding: 46 77 12
Width: 1517
VWidth: 2308
Flags: W
HStem: -84 97<400.226 438.481> 13 11<924 947> 21 27<885.898 905.742> 189 2<1218 1222> 1207 24<179.911 202.906> 1370 69<1326.4 1367> 1510 20G<664.783 678> 1536 19<816.001 822>
VStem: 245 1020<813 1041.34> 345 55<22.2825 46> 498 27<-33 0> 656 210<327.565 536.765> 806 10<1527.98 1536> 844 2<238 247.907> 947 321<287.448 739.406> 949 273<77.8093 233> 1108 79<2 65.5179>
LayerCount: 2
Fore
SplineSet
846 250 m 1x3f04
 835.474899045 221.618792312 826.950530428 157.720730884 825 142 c 1
 844 118 l 1x3f04
 804 112 831 5 726 2 c 1
 730 29 l 1
 730 51 651 320 645 327 c 1
 649 339 656 355 656 367 c 0
 656 498 572 584 565 694 c 1
 565 602 l 2
 565 485 607 355 607 257 c 1
 602 257 l 1
 607 24 l 1
 573 24 546 43 525 72 c 1
 501 29 l 1
 505 24 l 1
 503 16 528 8 527 0 c 2
 525 -38 l 1
 498 -33 l 1
 466 72 l 1
 424 72 l 1
 400 46 l 1
 400 34 420 24 446 13 c 1x5f70
 446 2 l 2
 446 -22 431 -65 424 -84 c 1x9f70
 361 -84 347 8 345 24 c 1x5f70
 341 207 304 466 256 638 c 1
 266 651 l 1
 245 675 l 1
 266 696 l 1
 229 745 l 1
 240 813 l 1
 245 813 l 1x5f80
 231 880 238 988 204 1044 c 1
 204 1031 l 1
 199 1031 197 1044 197 1044 c 1
 185 1160 l 1
 204 1207 l 1
 180 1207 l 1
 178 1209 178 1211 178 1212 c 0
 178 1221 188 1231 197 1231 c 0
 199 1231 201 1231 203 1229 c 2
 44 1462 l 1
 132 1482 618 1533 645 1555 c 1
 645 1537 656 1528 669 1528 c 0
 672 1528 676 1528 680 1530 c 1
 645 1484 l 1
 654 1365 746 1207 746 1087 c 2
 746 1069 l 1
 763 1137 829 1359 829 1439 c 0
 829 1474 806 1507 806 1543 c 0
 806 1547 806 1551 807 1555 c 1
 825 1555 l 1
 846 1530 l 1
 846 1555 l 1
 931 1555 879 1507 947 1507 c 1
 960 1520 980 1527 1001 1527 c 2
 1008 1527 l 1
 1026 1555 l 1
 1047 1555 l 1
 1050 1504 1406 1464 1469 1439 c 1
 1367 1370 l 1
 1311 1370 1309 1300 1309 1253 c 1
 1327 1229 l 1
 1292 1184 l 1
 1309 1160 l 1
 1286 1113 l 1
 1272 1125 l 1
 1268 1113 l 1x5f0e
 1293 1082 l 1
 1270 1052 1265 945 1265 842 c 0x5f80
 1265 763 1268 685 1268 651 c 0x5f02
 1268 567 1257 314 1207 257 c 1
 1222 233 l 1x5f01
 1222 231 1187 -20 1187 -45 c 1
 1168 -20 l 1
 1152 -43 1126 -63 1126 -86 c 1
 1102 -38 l 1
 1115 -35 1121 -27 1126 -20 c 1
 1108 2 l 1x5f0080
 1108 62 1077 73 1028 73 c 1
 1006 72 l 1
 960 63 975 26 947 13 c 1
 916 14 924 21 924 24 c 1
 947 24 l 1x5f02
 925 48 l 1
 901 23 l 2
 899 21 897 21 896 21 c 0
 890 21 885 33 885 41 c 0
 885 44 885 46 887 48 c 1
 943 59 949 251 949 365 c 0x3f01
 949 474 925 549 925 645 c 1
 947 651 l 1
 947 696 l 1
 892 632 866 348 866 257 c 1x3f12
 857 260 l 1
 852 260 850 256 846 248 c 1
 846 250 l 1x3f04
1309 1091 m 1
 1293 1082 l 1
 1295 1089 1303 1091 1309 1091 c 1
822 1530 m 0
 822 1533 822 1536 820 1536 c 0
 818 1536 816 1530 816 1530 c 1x1f08
 816 1528 818 1527 820 1527 c 0
 822 1527 822 1528 822 1530 c 0
846 233 m 1x1f04
 844 238 l 1
 844 243 l 2
 844 245 846 246 846 248 c 2
 846 233 l 1x1f04
595 257 m 1
 586 257 l 1
 586 255 588 255 590 255 c 0
 591 255 593 255 595 257 c 1
1222 191 m 1x1f01
 1228 187 l 2
 1224 189 1222 189 1218 189 c 1
 1218 189 1220 191 1222 191 c 1x1f01
1209 185 m 1
 1211 185 l 1
 1214 189 l 1
 1209 185 l 1
EndSplineSet
EndChar

StartChar: N
Encoding: 47 78 13
Width: 1251
VWidth: 2308
Flags: W
HStem: 1330 93<81 102> 1423 26<1158 1185.75> 1495 20G<516 561 678 743.5> 1495 20G<516 561 678 743.5>
VStem: 409 34<-106 -81> 516 58<1493 1515> 516 37<-314 -293 -291.811 -198.997 -196.963 -106> 715 108<-128.926 -15.489> 715 37<-292.165 -245> 715 19<-313.159 -279.993 -241.548 -176.653 -152 -130> 742 311<946.174 1315.74> 860 53<-151.947 -14.8411>
LayerCount: 2
Fore
SplineSet
534 288 m 1x69
 531 291 528 294 524 294 c 0
 518 294 516 274 516 266 c 1
 534 266 l 1
 534 137 553 3 553 -118 c 0
 553 -146 551 -176 534 -198 c 1
 548 -219 555 -257 555 -288 c 0
 555 -298 555 -306 553 -314 c 1
 534 -337 l 1
 516 -314 l 1
 526 -293 l 1
 516 -268 515 -219 515 -175 c 0
 515 -147 515 -122 516 -106 c 1
 482 -60 l 1
 443 -81 l 1
 443 -106 l 1
 426 -124 l 1
 409 -106 l 1
 409 -81 l 1
 372 -106 l 1
 372 -245 l 1
 385 -267 l 1
 372 -293 l 1
 374 -294 376 -298 376 -300 c 0
 376 -308 366 -318 360 -318 c 0
 356 -318 355 -316 353 -314 c 2
 337 -293 l 1
 281 472 l 1
 261 472 l 1
 261 543 l 1
 232 577 181 1120 181 1202 c 0
 181 1237 181 1282 160 1308 c 1
 180 1330 l 1
 44 1330 114 1373 45 1399 c 1
 81 1423 l 1
 100 1423 l 1x8b
 102 1425 102 1428 102 1429 c 0
 102 1438 95 1449 90 1449 c 0
 88 1449 88 1448 86 1445 c 2
 100 1470 l 1
 246 1470 382 1493 516 1493 c 1
 516 1515 l 1x6c
 553 1515 l 2x6a
 569 1515 574 1482 574 1452 c 0
 574 1429 571 1408 571 1399 c 1
 599 1365 578 1284 607 1284 c 1
 624 1260 l 1
 624 1240 l 1
 642 1214 l 1
 624 1214 l 1
 662 1168 l 1
 662 1127 715 979 734 936 c 1
 734 1031 742 1132 742 1221 c 0
 742 1320 722 1429 678 1515 c 1
 697 1515 l 2
 790 1515 896 1472 1000 1472 c 0
 1031 1472 1072 1469 1093 1445 c 1
 1149 1449 l 2
 1158 1449 1201 1427 1211 1423 c 1
 1158 1421 1083 1294 1053 1260 c 1x6c60
 1053 1016 993 788 971 543 c 1
 971 455 952 249 952 151 c 1
 934 128 929 103 929 75 c 0
 929 46 934 18 934 -7 c 0
 934 -30 926 -62 913 -81 c 1
 913 -135 898 -127 878 -168 c 1
 860 -152 l 1
 864 -66 l 2
 864 -60 845 -22 841 -14 c 1
 830 -36 823 -55 823 -70 c 0x6910
 823 -89 830 -107 841 -130 c 1
 823 -144 811 -175 805 -198 c 1
 805 -192 807 -186 807 -180 c 0
 807 -154 799 -126 789 -106 c 1
 768 -176 l 1
 734 -130 l 1
 734 -168 l 1
 715 -152 l 1x6840
 715 -106 l 1
 689 -71 709 10 678 10 c 1
 680 55 l 2
 680 73 672 87 662 102 c 1
 678 102 l 1
 647 144 642 159 642 217 c 1
 624 195 l 1
 624 241 607 288 607 334 c 1
 571 381 l 1
 571 450 l 1
 556 472 540 500 529 531 c 1
 533 488 536 437 536 387 c 0
 536 346 534 310 534 288 c 1x69
752 -245 m 1x0880
 752 -269 747 -275 734 -293 c 1
 734 -314 l 1
 724 -314 715 -304 715 -293 c 2
 715 -211 l 2
 715 -195 718 -176 734 -176 c 1
 734 -198 l 2x0840
 734 -214 734 -245 752 -245 c 1x0880
EndSplineSet
EndChar

StartChar: O
Encoding: 48 79 14
Width: 1034
VWidth: 2308
Flags: W
HStem: 2 185<481.678 567.041> 349 24<578 595> 1487 20G<395.5 502.652 507.478 539.5 615.478 651>
VStem: 53 889<1089 1310> 134 280<488.002 510 511.181 763.26> 195 239<257.067 394.157> 396 48<-138.821 -42.4678> 578 70<-174.936 -52.625> 648 1<-134.211 -130> 741 57<-93.0917 -21.9688> 838 21<1390 1416>
LayerCount: 2
Fore
SplineSet
528 2 m 1xe1
 455.400438962 4.28781595955 452.906062128 -82.2809340601 444 -152 c 1
 397 -152 396 -106 396 -91 c 0xe3
 396 -26 290 8 253 46 c 1
 253 24 l 1
 235 24 l 1
 253 46 l 1
 224 84 174 132 174 187 c 1
 195 187 l 1xe4
 195 301 134 385 134 515 c 0xe8
 134 677 75 824 75 974 c 1
 53 998 l 1
 75 979 l 1
 69 1046 l 1
 62 1041 l 1
 53 1044 l 1
 75 1069 l 1
 53 1089 l 1xf0
 53 1316 304 1507 487 1507 c 1
 505 1484 l 1
 524 1507 l 1
 555 1507 581 1484 613 1484 c 1
 632 1507 l 1
 670 1460 742 1444 798 1438 c 1
 838 1390 l 1
 838 1416 l 1
 859 1416 l 1
 857 1390 l 1
 877 1367 l 1
 859 1344 l 1xe060
 873 1344 942 1339 942 1310 c 0xf0
 942 1306 940 1303 938 1300 c 1
 979 1251 l 1
 959 1251 l 1
 959 1188 957 1092 999 1044 c 1
 970 1044 959 1020 959 996 c 0
 959 975 964 955 973 942 c 1
 966 929 957 908 957 892 c 0
 957 888 957 885 959 882 c 1
 979 882 l 1
 979 868 l 2
 979 811 979 464 918 464 c 1
 918 418 899 370 899 324 c 1
 918 324 l 1
 870 250 l 1
 877 233 l 1
 871 166 836 98 798 46 c 1
 798 -14 776 -68 759 -130 c 1
 746 -130 739 -134 738 -140 c 1
 738 -106 741 -72 741 -60 c 0
 741 -48 730 -20 716 -20 c 1
 705 -22 l 1
 660 -77 649 -99 648 -135 c 1xe140
 649 -130 l 2xe080
 649 -132 649 -134 648 -135 c 1
 648 -140 l 1
 641 -159 625 -175 613 -175 c 0
 583 -175 576 -173 576 -175 c 1
 576 -161 578 -148 578 -138 c 0
 578 -97 575 2 528 2 c 1xe1
595 373 m 1
 613 396 l 1
 613 580 l 2
 613 647 595 661 595 746 c 2
 595 766 l 1
 560 835 l 1
 560 860 537 858 524 858 c 1
 524 882 l 1
 505 882 l 1
 505 870 499 858 487 858 c 1
 487 835 l 1
 469 835 l 1
 434 766 l 1xe5
 434 707 414 683 414 605 c 0xe8
 414 572 414 535 434 510 c 1xe4
 414 510 l 1xe8
 414 490 418 488 434 488 c 1
 434 373 l 1xe4
 453 349 455 257 469 257 c 1
 485 231 489 187 524 187 c 0
 574 187 595 302 595 349 c 1
 578 349 l 1
 578 373 l 1
 595 373 l 1
450 -132 m 1
 450 -134 448 -138 448 -142 c 2
 448 -138 l 2
 448 -136 450 -134 450 -132 c 1
EndSplineSet
EndChar

StartChar: P
Encoding: 49 80 15
Width: 1117
VWidth: 2308
Flags: W
HStem: -111 21G<611 611.5> 1505 20G<568.5 575.5 695.349 721> 1505 20G<568.5 575.5 597 599 695.349 721>
VStem: 325 289<274.16 296 574 718.268> 538 38<-97 -73> 611 19<-106 -87>
LayerCount: 2
Fore
SplineSet
29 1454 m 1xd0
 193 1482 349 1500 499 1500 c 2
 541 1500 l 1
 555 1520 564 1525 573 1525 c 0
 578 1525 583 1522 588 1522 c 0
 591 1522 595 1523 599 1527 c 1
 599 1503 636 1500 649 1500 c 1
 667 1482 l 1
 720 1525 l 1
 722 1493 810 1490 831 1490 c 1
 831 1500 l 1
 987 1500 1070 1304 1070 1154 c 1
 949 1022 1118 320 774 320 c 1
 757 342 l 1
 752 342 l 2
 735 342 744 320 726 320 c 2
 720 320 l 1
 720 342 l 1
 674 315 l 1
 667 342 l 1
 649 342 l 1
 649 320 l 1
 630 342 l 1
 630 320 l 1xc4
 614 296 l 1xd0
 614 211 630 128 630 43 c 1xc4
 614 19 l 1xd0
 645 19 621 -72 645 -101 c 1
 630 -87 l 1
 630 -106 l 1
 619 -106 612 -107 611 -111 c 1xc4
 611 -97 612 -87 614 -81 c 1xd0
 604 -56 l 1
 576 -73 l 1
 576 -97 l 1
 559 -97 l 1
 576 -111 576 -122 576 -135 c 1
 559 -97 l 1
 543 -97 538 -99 538 -99 c 1xc8
 538 -91 541 -84 541 -84 c 1
 541 -76 523 -63 523 -51 c 1
 486 -24 l 1
 456 -33 434 -25 434 -73 c 1
 448 -97 l 1
 434 -97 l 2
 378 -97 340 152 340 197 c 0
 340 226 344 253 360 274 c 1
 320 276 325 369 325 399 c 0
 325 620 230 852 230 1107 c 0
 230 1182 217 1263 173 1322 c 0
 134 1375 72 1397 29 1454 c 1xd0
774 805 m 1
 740 876 l 1
 594 876 l 1
 594 854 l 1
 612 854 614 851 614 829 c 2
 614 783 l 2
 614 760 611 760 594 760 c 1
 614 738 l 1
 614 574 l 1x90
 630 551 l 1
 630 528 l 1
 643 528 649 539 649 551 c 1
 774 551 l 1
 774 805 l 1
EndSplineSet
EndChar

StartChar: Q
Encoding: 50 81 16
Width: 1066
VWidth: 2308
Flags: W
VStem: 48 456<735.892 884.514> 687 319<378.554 449 449.429 882.889>
LayerCount: 2
Fore
SplineSet
895 1352 m 1
 886 1375 l 1
 989 1253 1006 1208 1006 1050 c 0
 1006 995 1022 944 1026 888 c 1
 1006 888 l 1
 1006 797 997 413 967 355 c 1
 985 355 l 1
 960 293 951 221 906 170 c 1
 926 146 l 1
 916 148 l 1
 904 135 l 1
 906 123 l 1
 926 123 l 1
 926 100 l 1
 997 31 l 1
 1013 31 1037 36 1046 55 c 1
 1046 -63 989 -33 985 -86 c 1
 932 -86 882 -254 865 -304 c 1
 865 -270 l 1
 845 -270 l 1
 845 -198 818 -134 746 -132 c 1
 746 -128 747 -125 747 -122 c 0
 747 -99 735 -75 726 -60 c 1
 656 -85 592 -86 522 -86 c 0
 518 -86 428 -22 418 -16 c 1
 432 -16 l 1
 394 35 347 72 307 123 c 1
 307 108 l 1
 298 154 252 182 229 217 c 1
 249 217 l 1
 238 230 164 360 168 367 c 1
 179 398 l 1
 131 449 l 1
 143 472 152 507 152 538 c 0
 152 548 152 555 150 564 c 1
 120 596 48 903 48 957 c 0
 48 990 68 1026 68 1050 c 0
 68 1063 57 1072 46 1072 c 0
 44 1072 41 1072 39 1072 c 1
 48 1092 61 1115 81 1122 c 1
 68 1122 l 1
 98 1154 127 1212 127 1260 c 1
 125 1258 122 1257 120 1257 c 0
 111 1257 103 1265 103 1275 c 0
 103 1332 461 1503 524 1503 c 0
 840 1503 749 1400 895 1352 c 1
522 377 m 1
 559 332 562 217 614 217 c 1
 614 219 632 286 649 286 c 1
 649 380 l 1
 653 378 660 377 667 377 c 1
 667 411 685 390 685 449 c 1
 668 449 l 1
 687 457 687 539 687 559 c 0
 687 627 671 683 667 748 c 1
 662 808 665 911 594 911 c 0
 513 911 504 727 504 657 c 0
 504 600 488 548 488 493 c 1
 508 491 522 398 522 377 c 1
662 766 m 2
 664 760 665 756 665 750 c 1
 662 766 l 2
EndSplineSet
EndChar

StartChar: R
Encoding: 51 82 17
Width: 1227
VWidth: 2308
Flags: W
HStem: 1291 138<142 195.782> 1495 20G<506.5 576> 1495 20G<506.5 576>
VStem: 262 919<903.996 1202.87> 391 39<-48.1133 -29.6007> 647 15<-99 -50.7422> 662 2<-137.907 -130.092> 831 64<-91 -38.8423>
LayerCount: 2
Fore
SplineSet
622 233 m 1xc1
 643 228 l 1
 643 104 662 -7 662 -130 c 1xc3
 647 -101 l 1
 645 -96 l 1
 647 -99 l 1
 647 -46 635 -7 572 -7 c 1
 548 -37 535 -81 535 -122 c 1
 556 -103 567 -95 572 -81 c 1
 572 -109 l 1
 554 -132 l 1
 526 -132 516 -115 514 -101 c 1
 514 -109 518 -115 518 -122 c 1
 496 -93 503 -28 462 -28 c 0
 437 -28 430 -41 430 -66 c 1
 432 -56 443 -45 446 -45 c 1
 428 -89 l 1
 414 -46 391 -28 391 23 c 0xcc
 391 108 388 197 356 272 c 1
 373 272 l 1
 373 337 355 394 355 460 c 0
 355 467 356 474 356 483 c 1
 336 483 l 1
 336 515 318 541 318 574 c 1
 336 597 l 1
 336 617 325 623 312 623 c 0
 308 623 303 620 299 620 c 1
 301 667 l 1
 314 677 318 698 318 714 c 1
 282 714 l 1
 282 845 262 975 262 1107 c 1
 212 1164 223 1272 142 1291 c 1
 142 1372 41 1359 41 1429 c 1
 131 1429 213 1478 301 1478 c 1
 336 1454 l 1
 386 1517 475 1515 538 1515 c 0
 614 1515 731 1513 790 1482 c 1
 821 1503 l 1
 871 1500 l 1
 889 1476 1002 1419 1031 1409 c 0
 1079 1393 1111 1313 1151 1313 c 1
 1183 1280 1181 1219 1181 1174 c 0xd0
 1181 1029 1167 860 1151 714 c 0
 1146 667 1079 558 1079 493 c 0
 1079 481 1081 470 1086 462 c 1
 1070 459 l 1
 1042 426 991 449 991 387 c 1
 1049 320 1051 221 1051 133 c 1
 1028 118 l 1
 1031 89 l 1
 1061 51 1075 -17 1075 -65 c 1
 1040 -124 l 1
 1031 -122 l 1
 991 -76 l 1
 991 -97 l 1
 902 -97 945 -63 891 -28 c 1
 895 -70 l 1
 895 -86 878 -100 871 -116 c 1
 831 -91 l 1
 831 -72 850 -56 850 -38 c 1
 838 -28 l 1
 812 -28 l 1
 812 -30 794 -35 790 -36 c 1
 775 -4 769 23 769 55 c 0
 769 79 769 102 771 125 c 1
 753 156 l 1
 758 231 l 1
 763 221 l 1
 766 228 l 1
 753 250 l 1
 753 272 l 1
 735 296 l 1
 737 319 l 1
 737 332 733 353 729 367 c 1
 703 367 670 351 643 342 c 1
 643 365 l 1
 627 342 l 1
 635 342 l 1
 643 272 l 1
 622 233 l 1xc1
720 617 m 0
 742.838734423 616.265153033 770.25275498 618.762012063 769 642 c 1
 790 642 l 1
 790 666 797 676 812 690 c 1
 812 760 l 1
 823 760 831 773 831 783 c 0
 831 801 812 810 812 829 c 1
 735 898 l 1
 662 898 l 1
 643 876 l 1
 627 898 l 1
 627 876 l 1
 608 876 l 1
 627 851 l 1
 627 760 l 1
 615 760 608 748 608 736 c 1
 627 736 l 1
 627 647 620 617 720 617 c 0
769 597 m 1
 753 620 l 1
 753 597 l 1
 769 597 l 1
662 -130 m 1
 664 -132 664 -132 664 -134 c 0
 664 -135 664 -136 662 -138 c 1
 662 -130 l 1
645 -96 m 1
 643 -96 643 -93 643 -91 c 2
 645 -96 l 1
EndSplineSet
EndChar

StartChar: S
Encoding: 52 83 18
Width: 1034
VWidth: 2308
Flags: W
HStem: 1492 20G<554.5 620.5>
VStem: 400 17<-84.9061 -63> 509 35<-68 -38> 582 16<-178 -105.381> 688 54<-87 -70> 707 35<-87 -70.0156>
LayerCount: 2
Fore
SplineSet
942 726 m 1xf0
 962 726 l 1
 942 702 l 1
 942 726 l 1xf0
362 -41 m 1
 362 -63 l 1
 358 -66 342 -81 336 -81 c 0
 311 -81 304 -38 270 -38 c 1
 246 -14 194 41 192 77 c 1
 169 112 130 168 130 211 c 0
 130 233 124 238 112 238 c 2
 90 238 l 1
 129 304 198 319 274 319 c 0
 332 319 391 309 435 309 c 1
 454 330 l 1
 452 319 l 1
 452 300 456 284 472 284 c 1
 472 192 l 1
 482 195 l 1
 496 195 509 189 509 168 c 1
 527 168 l 1
 563 194 588 226 617 261 c 1
 598 284 l 1
 598 309 l 1
 582 330 l 1
 582 377 l 1
 520 373 l 2
 496 371 470 377 454 399 c 1
 449 398 442 398 435 398 c 0
 403 398 360 414 346 447 c 1
 327 424 l 1
 125 532 50 624 50 894 c 0
 50 971 70 1046 70 1120 c 1
 130 1234 l 1
 130 1443 548 1497 561 1512 c 1
 680 1512 729 1493 835 1409 c 1
 842 1419 l 1
 890 1360 953 1315 1002 1257 c 1
 1002 1234 l 1
 982 1234 l 1
 982 1064 962 895 962 726 c 1
 982 726 l 1
 982 702 l 1
 962 676 l 1
 947 685 891 727 868 727 c 0
 866 727 864 726 863 726 c 2
 842 702 l 1
 781 748 l 1
 781 726 l 1
 634 726 l 2
 602 726 593 750 593 779 c 0
 593 799 596 822 598 842 c 1
 582 817 l 1
 544 865 l 1
 509 865 l 2
 504 865 477 845 472 842 c 1
 472 817 l 1
 454 793 l 1
 454 752 490 676 527 676 c 1
 527 656 l 1
 544 676 l 1
 677 676 916 545 916 355 c 0
 916 344 907 257 888 257 c 0
 886 257 884 258 882 260 c 2
 901 238 l 1
 901 176 801 108 801 31 c 1
 761 -38 l 1
 764 -70 l 1
 742 -70 l 1
 742 -87 l 1xf8
 707 -107 l 1xf4
 704 -99 688 -66 688 -63 c 1xf8
 742 -63 l 1xf4
 688 -18 l 1xf8
 617 -63 l 1
 617 -87 l 1
 596 -111 598 -145 598 -178 c 1
 582 -178 l 1
 582 -155 l 2
 582 -125 584 -87 598 -63 c 1
 598 -33 l 1
 596 -35 594 -36 582 -38 c 1
 539 -38 l 1
 539 -42 544 -45 544 -46 c 0
 544 -53 530 -83 527 -91 c 1
 509 -68 l 1
 509 -38 l 1
 417 -38 l 1
 417 -72 435 -104 435 -138 c 1
 400 -87 l 1
 400 -63 l 1
 383 -63 l 1
 362 -41 l 1
EndSplineSet
EndChar

StartChar: T
Encoding: 53 84 19
Width: 1275
VWidth: 2308
Flags: W
HStem: -195 21G<774 775>
VStem: 517 321<526 548 572.712 688 713.107 779.62> 517 39<-192 -173.696> 538 280<-96.1358 178> 556 22<-191.906 -189> 677 41<-192 -145> 774 23<-186 -124.481>
LayerCount: 2
Fore
SplineSet
538 178 m 1x90
 517 201 l 1
 517 298 501 383 501 481 c 1
 517 503 l 1xa0
 517 548 l 1
 501 572 l 1
 513 587 517 614 517 642 c 0
 517 694 501 752 481 781 c 1
 484 785 485 789 485 791 c 0
 485 801 471 803 465 803 c 0
 442 803 410 801 391 781 c 1
 348 781 322 779 280 758 c 1
 260 781 l 1
 220 735 l 1
 220 1027 220 1109 120 1383 c 1
 60 1429 l 1
 79 1452 l 1
 139 1449 l 1
 164 1446 192 1476 210 1474 c 1
 308 1474 379 1498 465 1498 c 2
 758 1498 l 2
 904 1498 1059 1431 1205 1429 c 1
 1205 1322 1104 1291 1104 1221 c 1
 1086 1197 l 1
 1126 1174 l 1
 1066 735 l 1
 1045 758 l 1
 1025 758 l 1
 1005 781 l 1
 938 781 891 827 838 827 c 1xc0
 838 798 838 735 818 712 c 1x90
 838 688 l 1
 838 526 l 1xc0
 818 503 l 1
 818 431 l 1x90
 838 409 l 1xc0
 799 294 l 1
 818 271 l 1
 818 250 l 1
 799 226 l 1
 818 201 l 1
 818 -53 l 2x90
 818 -96 799 -140 797 -186 c 1
 783 -186 776 -186 774 -195 c 1
 774 -161 777 -134 779 -124 c 1
 739 -99 l 1
 718 -124 l 1
 718 -192 l 1
 677 -192 l 1
 677 -145 l 1
 659 -168 637 -175 614 -175 c 0
 595 -175 575 -170 558 -168 c 1
 556 -176 556 -185 556 -192 c 1xa6
 556 -190 578 -188 578 -186 c 1x88
 578 -217 540 -233 517 -233 c 1xa0
 517 -91 538 40 538 178 c 1x90
EndSplineSet
EndChar

StartChar: U
Encoding: 54 85 20
Width: 1306
VWidth: 2308
Flags: W
HStem: 1441 25<28 87.9971> 1492 20G<316 598 749.217 753.5>
VStem: 249 338<264.354 469.059 679.462 998.96> 249 320<400.218 493 562 586 632 673.374> 249 300<562 586 632 998.96> 415 12<-75.0247 -36.3252> 660 20<-78.1618 6> 716 288<447 562 610 632 676 702> 999 23<1466.14 1487.05>
LayerCount: 2
Fore
SplineSet
308 77 m 1xc6
 330 100 l 1
 271 164 299 353 249 377 c 1xe2
 249 493 l 1
 228 515 l 1
 228 539 l 1
 249 562 l 1
 249 586 l 1
 228 586 l 1
 228 610 l 1
 249 632 l 1
 249 658 199 1048 188 1120 c 1
 167 1120 l 1
 188 1142 l 1
 169 1162 165 1219 165 1265 c 0
 165 1290 165 1312 167 1327 c 1
 109 1393 130 1441 28 1441 c 1
 28 1466 l 1
 144 1466 263 1512 369 1512 c 2
 598 1512 l 1
 569 1466 l 1xd2
 575 1329 l 2
 577 1291 573 1241 549 1211 c 1xca
 559 1199 587 1108 587 1094 c 2
 587 888 l 2xe2
 587 815 549 750 549 676 c 0xca
 549 620 571 562 571 497 c 0
 571 488 569 479 569 470 c 1xd2
 586 450 589 425 589 399 c 0
 589 379 587 358 587 337 c 0
 587 325 604 276 608 261 c 1
 660 261 l 1
 698 309 l 1
 698 332 l 2
 698 363 698 400 716 424 c 1
 698 424 l 1
 714 447 716 472 716 503 c 2
 716 562 l 1
 734 586 l 1
 716 610 l 1
 716 632 l 1
 734 656 l 1
 716 676 l 1
 716 702 l 1
 734 702 l 1
 734 865 752 1026 752 1188 c 1
 739 1211 l 1
 752 1211 l 1
 752 1257 l 1
 734 1282 l 1
 752 1304 l 1
 752 1359 769 1409 769 1466 c 1
 734 1512 l 1
 773 1486 814 1482 856 1482 c 0
 871 1482 887 1484 901 1484 c 0
 935 1484 971 1479 1004 1466 c 1xe3
 1000 1469 999 1474 999 1476 c 0
 999 1486 1016 1488 1022 1488 c 1
 1022 1466 l 1xc280
 1058 1466 1172 1445 1202 1419 c 1
 1283 1419 l 1
 1181 1350 l 1
 1140 1257 l 1
 1161 1234 l 1
 1140 1234 l 1
 1140 1211 l 1
 1089 913 1025 895 1025 529 c 0
 1025 507 1018 485 1004 470 c 1
 1004 447 l 1xc3
 1022 424 l 1xc280
 1004 424 l 1
 1004 394 l 2
 1004 370 1002 351 986 330 c 1
 1004 309 l 1
 986 309 l 1
 986 296 l 2
 986 271 975 233 968 214 c 1
 986 192 l 1
 968 192 l 1
 950 168 l 1
 968 146 l 1
 950 146 l 1
 913 77 l 1
 923 53 l 1
 806 53 l 1
 812 -51 l 2
 814 -82 787 -109 769 -140 c 1
 765 -132 752 -102 752 -94 c 0
 752 -51 787 -12 787 31 c 1
 734 53 l 1
 679 6 l 1
 680 -35 l 2
 680 -55 673 -71 660 -86 c 1
 660 53 l 1
 626 100 l 1
 587 100 l 2xe3
 571 100 566 84 566 69 c 0
 566 57 569 41 569 33 c 0xd2
 569 17 564 6 549 6 c 1
 549 -18 l 1xca
 508 6 l 1
 488 53 l 1
 488 6 l 1
 470 -18 l 1
 488 -38 l 1
 485 -48 471 -70 470 -79 c 1
 448 -79 l 1
 438 -68 431 -63 427 -55 c 1
 416 13 372 77 308 77 c 1xc6
429 -86 m 1
 429 -86 415 -81 415 -36 c 1
 416 -43 420 -46 427 -55 c 1xc6
 429 -65 429 -76 429 -86 c 1
EndSplineSet
EndChar

StartChar: V
Encoding: 55 86 21
Width: 1168
VWidth: 2308
Flags: W
HStem: 1495 3<1078 1199.46> 1505 20G<488 511.953 696 723.2 734.2 763> 1505 20G<488 511.953 696 723.2 734.2 763>
LayerCount: 2
Fore
SplineSet
930 944 m 1xc0
 860.81735567 778.984481061 879.427680384 550.839575951 797 389 c 1
 799 349 l 2
 799 329 793 310 780 296 c 1
 780 228 746 93 707 43 c 1
 707 19 l 1
 726 19 l 1
 665 -29 751 -135 604 -176 c 1
 588 -130 l 1
 604 -109 604 -94 624 -73 c 1
 535 -73 600 -144 498 -144 c 1
 484 -122 l 1
 460 -122 l 1
 435 -111 l 1
 444 -81 l 1
 421 -107 l 1
 421 -109 l 1
 407 -130 l 1
 384 -120 377 -97 377 -73 c 0
 377 -33 340 14 340 43 c 0
 340 122 329 202 303 274 c 1
 321 296 l 1
 258 296 280 488 268 528 c 0
 199 758 246 1029 193 1261 c 1
 173 1238 l 1
 173 1330 l 1
 121 1405 41 1470 -32 1470 c 1
 48 1479 478 1517 498 1525 c 1
 528 1482 l 1
 498 1500 l 1
 480 1478 478 1452 478 1421 c 2
 478 1385 l 1
 498 1395 l 1
 498 1380 l 1
 485 1362 l 1
 488 1340 496 1303 515 1291 c 1
 498 1269 l 1
 498 1222 l 2
 498 1097 525 964 533 835 c 1
 515 854 l 1
 515 714 533 577 533 437 c 1
 569 551 l 1
 551 574 l 1
 558 589 696 1423 696 1431 c 1
 716 1470 l 1
 713 1500 l 1
 696 1500 l 1
 696 1525 l 1
 730 1500 l 1
 751 1525 l 1
 775 1501 915 1498 1020 1498 c 2
 1107 1498 l 2
 1140 1498 1168 1495 1201 1495 c 1
 1078 1480 962 1123 930 945 c 1
 930 944 l 1xc0
EndSplineSet
EndChar

StartChar: W
Encoding: 56 87 22
Width: 1593
VWidth: 2308
Flags: W
HStem: 1336 22<-0.0133057 29.774> 1502 20G<1094.83 1098 1214 1224>
VStem: 292 300<946.725 1081 1104.19 1139.45> 665 17<17.3594 37.6243> 718 40<-19.718 37.5283> 755 3<-33 -17.704> 812 316<340.188 545.178> 831 19<3 16> 850 182<39.0818 242.812> 1098 37<1505 1522>
LayerCount: 2
Fore
SplineSet
1098 1498 m 1xf840
 1079 1522 l 1
 1098 1505 l 1
 1098 1522 l 1
 1116 1546 l 1
 1135 1522 l 1
 1135 1498 l 1xf840
 1139 1497 1144 1497 1151 1497 c 0
 1176 1497 1204 1508 1224 1522 c 1
 1224 1498 l 1
 1350 1498 1480 1428 1611 1383 c 1
 1550 1358 l 1
 1550 1354 l 1
 1532 1358 l 1
 1454 1338 1444 1303 1390 1243 c 1
 1390 1221 l 1
 1372 1197 l 1
 1386 1197 l 1
 1288 1159 1212 837 1171 735 c 1
 1211 712 l 1
 1203 712 l 1
 1186 652 1128 428 1128 355 c 0xf2
 1128 348 1128 344 1130 340 c 1
 1109 340 l 1
 1130 317 l 1
 1109 294 l 1
 1091 294 l 1
 1064 197 1032 117 1032 16 c 0xf080
 1032 2 1010 -12 1010 -26 c 1
 997 -16 l 1
 1001 -12 1005 -8 1010 -7 c 1
 1001 -7 990 -4 983 0 c 1
 970 16 l 1
 977 0 l 1
 944 13 914 38 870 38 c 1
 872 36 874 33 874 31 c 0
 874 23 865 13 857 13 c 0
 854 13 852 14 850 16 c 1
 850 3 l 1
 831 -8 l 1xf1
 831 7 830 24 830 38 c 1
 848 61 850 89 850 118 c 0xf080
 850 230 812 355 812 472 c 0
 812 488 797 529 793 548 c 1
 793 429 755 319 755 201 c 1
 738 201 l 1
 738 192 736 187 736 178 c 0
 736 112 756 31 758 -33 c 1
 755 -16 l 1xf6
 738 -38 l 1
 728 -38 722 -30 720 -20 c 1
 720 -14 718 -7 718 -4 c 2
 718 0 l 1
 714 14 710 28 701 38 c 1
 683 38 l 1
 682 30 682 21 682 13 c 1
 677 23 665 28 665 38 c 1
 628 85 l 1
 620 65 616 40 612 16 c 1
 589 48 503 349 503 387 c 1
 484 387 l 1
 503 409 l 1
 451 535 462 694 376 803 c 1
 358 803 l 1
 376 827 l 1
 342 874 l 1
 322 874 l 1
 322 943 304 1012 304 1081 c 1
 286 1104 l 1
 290 1108 292 1113 292 1115 c 0
 292 1127 264 1128 264 1140 c 0
 264 1143 265 1148 269 1152 c 1
 236 1152 l 1
 250 1174 l 1
 232 1197 l 1
 211 1197 l 1
 232 1221 l 1
 188 1271 118 1285 72 1336 c 1
 49 1336 l 2
 27 1336 7 1339 -7 1358 c 1
 16 1361 358 1472 358 1454 c 1
 358 1498 436 1460 468 1498 c 1
 503 1452 l 1
 520 1474 l 1
 539 1474 l 1
 520 1498 l 1
 539 1498 l 1
 557 1474 l 1
 557 1464 l 2
 557 1438 559 1403 574 1383 c 1
 557 1387 l 1
 557 1313 l 1
 574 1313 l 1
 574 1280 573 1260 573 1247 c 0
 573 1222 576 1205 593 1152 c 1
 592 1132 l 1
 592 1069 610 1002 628 944 c 1
 628 1072 655 1191 683 1313 c 1
 665 1313 l 1
 688 1324 714 1445 720 1474 c 1
 710 1482 l 1
 720 1498 l 1
 720 1488 l 1
 738 1522 l 1
 720 1522 l 1
 738 1546 l 1
 912 1546 l 1
 899 1498 l 1
 917 1476 919 1449 919 1418 c 2
 919 1383 l 1
 939 1357 976 1115 990 1058 c 1
 1012 1120 1023 1195 1063 1243 c 1
 1045 1267 l 1
 1045 1291 l 1
 1086 1339 1102 1381 1102 1441 c 0
 1102 1459 1100 1476 1098 1498 c 1xf840
EndSplineSet
EndChar

StartChar: X
Encoding: 57 88 23
Width: 1203
VWidth: 2308
Flags: W
HStem: 498 33<766.141 781.988> 1408 21<-8.97266 78.156> 1452 46<692 710.531> 1502 20G<464 475 674 692>
VStem: 369 17<-124 -99> 874 36<-99 -68.6854>
LayerCount: 2
Fore
SplineSet
422 758 m 1
 422 803 l 2
 422 858 404 913 404 967 c 1
 361 1036 355 1120 296 1174 c 1
 294 1277 151 1354 82 1408 c 1
 61 1408 l 2
 35 1408 3 1408 -17 1429 c 1
 91 1429 195 1476 296 1476 c 1
 296 1498 l 1
 386 1495 l 1
 413 1493 453 1494 475 1522 c 1
 475 1498 l 1
 462 1498 l 1
 511 1476 l 1
 530 1498 l 1
 530 1476 l 1
 601 1408 l 1
 566 1408 l 1
 566 1360 l 1
 582 1340 584 1320 584 1298 c 0
 584 1288 584 1277 584 1267 c 1
 599 1241 615 1211 623 1180 c 1
 635 1204 711 1399 711 1449 c 0
 711 1450 711 1450 711 1452 c 1
 692 1452 l 1
 692 1476 l 1
 674 1476 l 1
 674 1498 l 1
 692 1510 l 1
 692 1498 l 1
 772 1498 1167 1434 1221 1383 c 1
 1236 1383 l 1
 1102 1345 949 1273 891 1130 c 1
 910 1130 l 1
 910 1104 l 1
 891 1130 l 1
 820 965 853 776 766 620 c 1
 782 596 l 1
 782 549 l 1
 766 549 l 1
 766 526 l 1
 769 529 772 531 774 531 c 0
 778 531 782 524 782 515 c 0
 782 507 778 498 774 498 c 0
 772 498 769 501 766 505 c 1
 766 421 801 335 801 261 c 0
 801 258 801 253 801 250 c 1
 874 154 866 -14 910 -124 c 1
 891 -124 l 1
 874 -99 l 1
 874 -76 l 1
 853 -51 825 -53 801 -53 c 1
 782 -28 l 1
 728 -28 l 1
 711 -53 l 1
 655 -53 l 1
 655 59 639 169 601 272 c 1
 601 182 l 1
 565 182 565 55 565 26 c 0
 565 -25 565 -30 584 -76 c 1
 548 -28 l 1
 530 -28 l 1
 530 -58 l 1
 495 -53 l 1
 475 -76 l 1
 459 -76 l 1
 440 -53 l 1
 404 -99 l 1
 386 -99 l 1
 386 -124 l 1
 369 -124 l 1
 369 -76 l 1
 349 -99 l 1
 331 -76 l 1
 331 -28 l 1
 369 41 l 1
 371 72 383 103 396 128 c 1
 386 132 l 1
 386 156 l 1
 438 225 404 340 440 387 c 1
 422 387 l 1
 440 409 l 1
 440 456 l 1
 475 526 l 1
 475 574 442 579 440 610 c 1
 436 608 l 1
 422 620 l 1
 440 620 l 1
 428 676 413 735 404 793 c 1
 422 758 l 1
EndSplineSet
EndChar

StartChar: Y
Encoding: 58 89 24
Width: 1411
VWidth: 2308
Flags: W
HStem: -53 5<925.093 927> 1346 27<1369.68 1446> 1488 20G<259 275 350.545 583>
LayerCount: 2
Fore
SplineSet
1450 1373 m 1
 1446 1346 l 1
 1361 1346 1269 1300 1217 1222 c 1
 1221 1219 l 1
 1221 1207 1177 1184 1177 1186 c 1
 1162 1161 1051 1026 1051 1023 c 0
 1019 914 980 424 980 304 c 0
 980 203 967 -53 931 -53 c 0
 928 -53 927 -50 925 -48 c 1
 927 -48 926 -46 926 -46 c 1
 926 -36 923 -22 907 -18 c 1
 880 -49 816 -63 776 -65 c 1
 764 -94 l 1
 745 -70 l 1
 714 166 728 592 583 791 c 1
 583 909 497 983 474 1092 c 1
 493 1092 l 1
 433 1101 418 1166 366 1186 c 1
 366 1231 l 1
 365 1229 361 1226 359 1226 c 0
 353 1226 345 1237 345 1247 c 0
 345 1249 347 1253 349 1255 c 1
 267 1303 89 1441 -2 1441 c 1
 -2 1462 l 1
 18 1441 l 1
 98 1462 178 1486 259 1486 c 1
 259 1508 l 1
 291 1508 317 1488 349 1486 c 1
 366 1508 l 1
 583 1508 l 1
 583 1486 l 1
 590 1478 637 1397 637 1373 c 2
 637 1371 l 1
 655 1346 l 1
 656 1348 658 1350 662 1350 c 0
 668 1350 676 1340 676 1332 c 0
 676 1329 675 1326 673 1324 c 1
 764 1140 l 1
 871 1371 l 1
 853 1393 l 1
 853 1418 l 1
 871 1418 l 1
 871 1459 890 1492 890 1533 c 1
 904 1510 920 1508 939 1508 c 2
 961 1508 l 1
 1018 1438 1116 1488 1160 1441 c 1
 1256 1441 l 1
 1256 1400 1416 1377 1450 1373 c 1
EndSplineSet
EndChar

StartChar: Z
Encoding: 59 90 25
Width: 1424
VWidth: 2308
Flags: W
HStem: -7 291<673 807.255> 1492 20G<384 599 618 850.5>
VStem: 384 90<-22.0546 6> 439 18<-36 -22.4546> 586 13<-36 -14.9634>
LayerCount: 2
Fore
SplineSet
74 1411 m 1xe8
 100 1441 l 1
 220 1456 329 1512 439 1512 c 2xd8
 599 1512 l 1
 595 1508 594 1504 594 1500 c 0
 594 1494 602 1490 608 1490 c 0
 616 1490 622 1494 622 1500 c 0
 622 1504 621 1508 618 1512 c 1
 817 1512 l 2
 884 1512 949 1490 1016 1490 c 1
 1016 1466 l 1
 1032 1468 1047 1470 1064 1470 c 0
 1177 1470 1289 1397 1418 1397 c 1
 1395 1369 1321 1323 1319 1282 c 1
 1229 1124 1171 937 1072 799 c 1
 1073 801 1073 803 1073 805 c 0
 1073 815 1056 817 1051 817 c 1
 1051 795 l 1
 1033 770 l 1
 1029 768 1025 768 1021 768 c 0
 1014 768 1005 770 997 770 c 1
 997 748 l 1
 951 748 937 673 927 673 c 1
 927 673 927 676 925 679 c 1
 889 656 l 1
 889 632 l 1
 817 539 l 1
 817 515 l 1
 798 493 l 1
 797 495 793 497 791 497 c 0
 785 497 777 487 777 478 c 0
 777 474 779 472 781 470 c 1
 763 449 l 1
 766 445 768 440 768 437 c 0
 768 424 738 423 738 411 c 0
 738 408 741 403 744 399 c 1
 727 377 l 1
 709 377 l 1
 727 355 l 1
 691 332 l 1
 691 309 l 1
 673 284 l 1
 733 284 920 289 979 238 c 1
 983 217 l 1
 979 168 l 1
 943 146 l 1
 925 100 l 1
 943 77 l 1
 853 -58 l 1
 835 -58 l 1
 817 -36 l 1
 817 -45 835 -55 835 -63 c 1
 776 -39 716 -7 651 -7 c 0
 634 -7 616 -12 599 -16 c 1
 599 -36 l 1
 586 -36 l 1
 586 4 570 31 510 31 c 1
 474 6 l 1
 474 -16 l 1xe8
 460 -19 455 -26 455 -33 c 1
 457 -46 l 1
 439 -36 l 1
 439 -24 l 1xd8
 389 -16 384 -4 384 6 c 1xe8
 366 6 l 1
 351 27 344 72 344 108 c 0
 344 152 392 228 418 284 c 1
 439 284 l 1
 439 309 443 336 457 355 c 1
 457 373 l 2xd8
 457 396 461 399 472 399 c 2
 491 399 l 1
 491 449 l 1
 474 449 l 1
 510 493 l 1
 510 539 l 1
 528 539 l 1
 528 704 618 716 618 770 c 1
 636 785 650 818 654 842 c 1
 547 842 l 2
 500 842 464 795 418 795 c 1
 290 702 l 1
 311 726 l 1
 290 726 l 1
 271 748 l 1
 271 1162 81 1291 74 1411 c 1xe8
EndSplineSet
EndChar

StartChar: a
Encoding: 66 97 26
Width: 982
VWidth: 2308
Flags: W
HStem: 69 22<463 476> 620 25<534 547.44> 1507 20G<512.5 607.5 816.5 1021> 1507 20G<512.5 607.5 816.5 1021>
VStem: 196 263<-27.9557 46 320.892 458.827 460 597.786> 314 57<-180.161 -163> 560 239<437.703 575.947 645.008 667> 581 211<-91 36> 804 2<770 775> 818 20<481.157 529 551 588.192>
LayerCount: 2
Fore
SplineSet
665 -132 m 1xe1c0
 621 -91 l 1
 584 -118 l 1
 560 -116 l 1xe2c0
 581 -91 l 1
 581 -48 592 -7 592 36 c 1
 574 24 l 1
 556 46 l 1
 572 46 l 1
 555 69 541 92 529 116 c 1
 499 110 l 1
 476 128 l 1
 458 91 l 1
 476 91 l 1
 478 69 l 1
 463 72 l 1
 463 65 464 62 464 55 c 0
 464 33 452 -28 436 -28 c 0
 431 -28 424 -20 422 -12 c 1
 419 -55 415 -104 394 -163 c 1
 371 -140 l 1
 371 -154 l 2
 371 -188 336 -186 314 -186 c 1xe5c0
 312 -163 l 1
 288 -171 262 -176 237 -180 c 1
 192 -127 206 -22 200 46 c 1
 216 44 l 1
 220 69 l 1
 196 75 190 197 183 228 c 1
 222 228 220 291 220 320 c 1
 200 298 l 1
 196 375 l 1
 196 428 206 554 222 600 c 1
 204 600 l 1
 207 613 239 694 239 700 c 0
 239 781 206 858 206 942 c 0
 206 965 220 996 242 1008 c 1
 216 1093 207 1164 206 1253 c 1
 222 1277 l 1
 178 1298 67 1454 23 1454 c 0
 21 1454 19 1454 17 1454 c 1
 17 1492 424 1527 601 1527 c 0
 614 1527 634 1511 643 1503 c 1
 709 1525 781 1528 852 1528 c 2
 1021 1527 l 1
 813 1395 827 1270 827 1038 c 0
 827 961 818 827 785 760 c 1
 798 760 804 770 804 783 c 2
 804 791 l 1
 822 806 l 1
 811 795 806 775 806 750 c 0
 806 685 833 594 836 551 c 1
 817 551 l 1
 817 590 l 1
 806 568 799 541 799 515 c 2
 799 505 l 1xeac0
 822 477 l 1
 818 529 l 1
 838 529 l 1
 838 521 l 2
 838 351 792 181 792 13 c 0
 792 -10 792 -146 761 -150 c 1
 746 -134 l 1
 722 -138 l 1
 706 -116 l 1
 662 -135 l 1
 665 -132 l 1xe1c0
470 460 m 1
 452 460 l 1
 454 435 459 408 459 383 c 0
 459 360 454 339 440 320 c 1
 441 298 l 1
 459 320 l 1xcac0
 569 320 l 1
 567 351 567 383 564 414 c 0
 564 418 553 431 553 437 c 0
 553 452 560 467 560 483 c 1
 558 503 564 576 536 576 c 1
 553 600 l 1
 536 600 l 1
 551 620 l 1
 534 620 l 1
 532 645 l 1
 543 645 549 656 549 667 c 1
 531 667 l 1
 526 779 l 1
 512 677 468 586 468 483 c 0
 468 474 470 467 470 460 c 1
824 365 m 1
 822 363 822 363 820 363 c 0
 817 363 815 367 811 367 c 0
 809 367 809 357 809 355 c 2
 809 339 l 1
 811 349 818 355 824 365 c 1
767 -155 m 1
 757 -150 l 1
 767 -155 l 1
660 -138 m 1
 660 -136 660 -135 662 -135 c 1
 660 -138 l 1
EndSplineSet
EndChar

StartChar: b
Encoding: 67 98 27
Width: 1250
VWidth: 2308
Flags: W
HStem: 346 251<673.37 780.985>
VStem: 382 57<-101 -63.7988> 799 276<133 319> 799 239<133 276.821> 1001 40<498.991 505>
LayerCount: 2
Fore
SplineSet
919 -145 m 1xd0
 858 -145 l 1
 839 -122 l 1
 818 -145 l 1
 791 -111 693 -73 655 -73 c 1
 636 -97 l 1
 616 -70 l 1
 600 -122 l 1
 563 -76 l 1
 582 -51 l 1
 565 -51 l 2
 536 -51 439 -48 439 -101 c 1
 419 -122 l 1
 396 -120 382 -43 382 -20 c 1
 387 19 l 1
 395 14 l 1
 401 19 l 1
 364 110 l 1
 384 133 384 170 384 202 c 1
 381 199 l 1
 348 228 l 1
 344 271 l 2
 344 281 360 330 364 342 c 1
 348 342 l 1
 334 365 l 1
 317 401 311 613 311 666 c 0
 311 794 255 913 255 1036 c 1
 292 1082 l 1
 274 1079 l 1
 274 1107 l 1
 268 1104 l 1
 239 1104 142 1304 113 1339 c 1
 89 1365 56 1379 34 1409 c 1
 54 1405 l 1
 112 1405 158 1450 212 1454 c 1
 212 1433 l 1
 233 1454 l 1
 255 1429 l 1
 255 1454 l 1
 478 1498 703 1500 925 1500 c 0
 1182 1500 1201 1202 1201 992 c 0
 1201 926 1094 638 1061 574 c 1
 1082 549 l 1
 1064 546 l 1
 1041 578 l 1
 1041 548 1039 483 1001 483 c 1xc8
 1002 493 l 2
 1002 497 992 505 983 505 c 2
 982 505 l 1
 997 483 l 1
 941 459 l 1
 1015 452 1075 355 1075 280 c 0xe0
 1075 212 1038 156 1038 87 c 0
 1038 -2 957 -55 939 -144 c 1
 919 -122 l 1
 919 -145 l 1xd0
671 620 m 1
 722 620 744 597 781 597 c 1
 781 574 l 1
 799 597 l 1
 809 597 816 608 816 620 c 0
 816 632 809 642 799 642 c 1xd0
 801 653 816 712 816 714 c 2
 816 781 l 2
 816 832 781 851 744 851 c 2
 671 851 l 1
 655 829 l 1
 636 829 l 1
 636 808 634 805 618 805 c 1
 618 781 l 1
 636 781 l 1
 636 760 l 1
 655 736 l 1
 655 714 l 1
 636 714 l 1
 636 642 l 1
 646 642 l 2
 659 642 671 638 671 620 c 1
799 133 m 1xe0
 799 319 l 1
 781 319 l 1
 781 342 761 346 740 346 c 0
 729 346 718 344 709 344 c 0
 695 344 678 344 671 365 c 1
 663 351 632 296 618 296 c 1
 618 284 624 272 636 272 c 1
 636 110 l 1
 680 110 720 87 762 87 c 1
 762 83 762 65 767 63 c 1
 767 65 770 67 772 67 c 0
 776 67 778 65 781 65 c 1
 781 79 778 92 778 106 c 0
 778 122 785 133 799 133 c 1xe0
255 1060 m 1
 255 1082 l 1
 261 1082 268 1082 274 1079 c 1
 266 1075 261 1069 255 1060 c 1
EndSplineSet
EndChar

StartChar: c
Encoding: 68 99 28
Width: 1094
VWidth: 2308
Flags: W
HStem: 1487 41G<410.5 452 519 603.5> 1508 20G<519 603.5>
VStem: 432 61<-91 -23.3223> 550 55<-91 -46>
LayerCount: 2
Fore
SplineSet
1016 1142 m 1xb0
 1043.89933411 1131.88299152 1041.54070802 1083.53002516 1044 1033 c 1
 1044 964 1019 731 1001 580 c 1
 970 598 937 602 902 602 c 0
 875 602 850 600 824 600 c 0
 785 600 748 617 711 627 c 1
 694 602 l 1
 676 627 l 1
 676 651 694 651 694 673 c 0
 694 692 675 754 658 764 c 1
 676 789 l 1
 662 786 l 1
 658 806 l 1
 640 789 l 1
 633 801 619 827 619 847 c 0
 619 851 619 854 621 858 c 1
 591 858 559 835 553 799 c 1
 550 813 l 1
 532 829 l 1
 532 813 l 1
 515 813 510 798 510 783 c 0
 510 775 512 766 513 760 c 1
 493 742 l 1
 491 733 l 1
 491 690 518 653 518 610 c 1
 513 604 489 545 489 541 c 0
 489 449 519 213 569 141 c 1
 593 141 594 185 621 185 c 1
 621 209 l 1
 673 278 627 324 704 398 c 1
 755 398 879 369 920 324 c 1
 920 327 l 1
 942 324 l 1
 924 298 905 266 900 233 c 1
 920 233 l 1
 900 209 l 1
 903 183 l 1
 903 85 830 48 821 3 c 1
 802 24 l 1
 769 -20 746 -70 711 -113 c 1
 711 -91 l 1
 676 -138 l 1
 666 -90 631 -22 585 -22 c 1
 605 -46 l 1
 605 -91 l 1
 578 -94 l 2
 555 -96 550 -68 550 -46 c 1
 513 -46 l 1
 504 -33 489 -17 475 -10 c 1
 484 -45 493 -53 493 -91 c 1
 452 -113 l 1
 432 -91 l 1
 434 -56 l 1
 434 -36 410 -22 394 -22 c 0
 373 -22 353 -46 333 -46 c 0
 285 -46 281 91 253 92 c 1
 274 118 l 1
 200 118 195 292 193 349 c 1
 172 349 l 1
 172 437 132 515 132 602 c 1
 158 637 l 1
 153 649 l 1
 132 628 l 1
 132 649 l 1
 102 787 53 923 53 1066 c 0
 53 1168 108 1293 172 1367 c 1
 213 1344 l 1
 213 1377 l 1
 269 1435 369 1505 452 1507 c 1
 452 1484 l 1
 471 1508 506 1528 532 1528 c 0
 675 1528 807 1522 920 1390 c 1
 900 1390 l 1
 900 1367 l 1
 920 1367 l 1
 942 1390 l 1
 981 1344 l 1
 981 1291 1030 1263 1060 1229 c 1
 1060 1195 1038 1162 1016 1142 c 1xb0
569 -28 m 1
 567 -39 559 -43 553 -46 c 1
 564 -46 569 -41 569 -28 c 1
340 -20 m 2
 340 -20 338 -18 336 -18 c 0
 334 -18 334 -20 334 -22 c 1
 334 -20 338 -20 340 -20 c 2
EndSplineSet
EndChar

StartChar: d
Encoding: 69 100 29
Width: 1175
VWidth: 2308
Flags: W
HStem: 355 69<601.004 617> 1492 20G<544 657.5>
VStem: 617 37<740.607 748>
LayerCount: 2
Fore
SplineSet
574 -60 m 0
 423 -60 475 -134 402 -250 c 1
 383 -224 l 1
 383 -176 386 -130 366 -86 c 1
 383 -86 l 1
 366 -63 l 1
 366 373 266 960 95 1350 c 1
 104 1346 l 1
 116 1397 l 1
 95 1419 l 1
 76 1399 l 1
 76 1418 63 1419 44 1419 c 0
 35 1419 26 1419 21 1419 c 1
 74 1426 120 1466 176 1466 c 0
 331 1466 471 1512 617 1512 c 0
 698 1512 771 1468 856 1468 c 0
 860 1468 866 1468 871 1468 c 1
 909 1441 l 1
 921 1441 1120 1234 1127 1211 c 1
 1107 1211 l 1
 1150 1164 1148 1082 1148 1020 c 0
 1148 708 969 416 967 122 c 1
 947 122 l 1
 947 21 909 -89 842 -152 c 1
 835 -134 l 1
 817 -155 l 1
 829 -155 l 1
 781 -178 l 1
 762 -155 l 1
 727 -201 l 1
 690 -155 l 1
 671 -183 l 1
 636 -178 l 1
 636 -120 635 -60 574 -60 c 0
690 168 m 1
 709 146 l 1
 727 146 l 1
 744 168 l 1
 762 168 765 185 765 207 c 0
 765 226 762 250 762 261 c 1
 772 276 790 355 798 355 c 1
 798 373 795 390 795 411 c 0
 795 429 798 447 817 447 c 1
 817 457 815 470 803 470 c 1
 811 472 817 483 817 493 c 2
 817 586 l 2
 817 610 813 637 798 656 c 1
 798 724 774 793 709 793 c 2
 654 793 l 1
 654 768 642 726 617 726 c 1
 617 748 l 1
 601 748 l 1
 601 738 608 726 617 726 c 1
 617 656 l 1
 601 632 l 1
 601 610 l 1
 617 610 l 1
 617 539 l 2
 617 521 617 515 601 515 c 1
 601 447 l 2
 601 428 601 424 617 424 c 1
 617 355 l 1
 601 355 l 1
 601 342 608 330 617 330 c 1
 601 309 l 1
 601 261 l 2
 601 240 606 230 617 214 c 1
 617 192 l 1
 634 170 637 156 637 141 c 0
 637 128 636 115 636 100 c 1
 654 100 l 1
 654 120 656 122 673 122 c 1
 673 168 l 1
 690 168 l 1
835 -155 m 1
 842 -152 l 1
 848 -155 l 1
 835 -155 l 1
EndSplineSet
EndChar

StartChar: e
Encoding: 70 101 30
Width: 1295
VWidth: 2308
Flags: W
HStem: -43 255<700.217 865> -43 232<700.217 865> 351 277<646 827>
VStem: 303 623<353.266 558.297> 885 41<-134 -66>
LayerCount: 2
Fore
SplineSet
305 559 m 1x70
 286 582 l 1
 188 1162 l 1
 208 1162 l 1
 208 1186 l 1
 188 1186 l 1
 146 1270 111 1352 26 1393 c 1
 48 1393 l 1
 167 1493 532 1505 686 1505 c 0
 874 1505 1055 1479 1239 1439 c 1
 1192 1387 1078 1190 1078 1125 c 0
 1078 1096 1076 1066 1058 1046 c 1
 1060 1013 l 1
 1060 926 1037 830 1018 745 c 1
 982 765 929 791 902 791 c 0
 874 791 845 793 827 813 c 1
 751 813 685 827 611 837 c 1
 625 829 629 783 629 736 c 0
 629 692 625 644 625 628 c 1
 926 628 l 1x68
 926 466 l 2x70
 926 440 908 311 885 304 c 1
 827 351 l 1
 646 351 l 1
 625 329 l 1
 625 164 l 1
 646 148 l 1
 664 164 l 1
 646 212 l 1xa8
 751 209 854 189 962 189 c 1
 962 164 l 2
 962 141 944 104 944 73 c 1
 926 48 l 1
 944 26 l 1
 944 3 l 1
 926 3 l 1
 926 -18 l 1
 944 -43 l 1x68
 922 -73 926 -120 926 -158 c 1
 908 -134 l 1
 885 -134 l 1
 885 -66 l 1
 865 -43 l 1
 766 -43 l 1xa8
 749 -63 725 -66 699 -66 c 0
 685 -66 670 -65 655 -65 c 1
 625 -89 l 1
 585 -43 l 1
 585 -18 l 1
 568 0 548 3 526 3 c 2
 486 3 l 1
 465 -18 l 1
 465 -43 l 1
 430 -43 440 -113 406 -113 c 1
 406 -134 l 1
 370 70 303 306 303 513 c 0
 303 529 303 544 305 559 c 1x70
EndSplineSet
EndChar

StartChar: f
Encoding: 71 102 31
Width: 1146
VWidth: 2308
Flags: W
HStem: 409 279<624 660 696.659 825.453> 735 46<930.085 948>
VStem: 286 20<-124 -86.7207> 304 302<178.989 294 317 364.013 387 409> 306 14<-133.251 -93.7007> 306 0<-134 -118> 606 18<-132.377 -57.3302> 624 36<409 431>
LayerCount: 2
Fore
SplineSet
586 317 m 1xd1
 606 294 l 1
 606 185 l 2
 606 63 624 -53 624 -178 c 1xd1
 606 -201 l 1
 606 -178 l 1
 586 -155 l 1
 594 -137 606 -120 606 -99 c 0
 606 -39 575 -30 527 -30 c 1
 490 -86 525 -159 487 -205 c 1
 487 -180 l 1
 466 -155 l 1
 466 -77 l 1
 448 -53 416 -7 385 -7 c 0
 341 -7 334 -70 306 -99 c 1xe2
 306 -155 l 1xc4
 286 -124 l 1
 286 178 l 1xe0
 301 199 304 226 304 250 c 2
 304 290 l 2xd0
 304 319 308 344 326 365 c 1
 306 387 l 1
 306 409 l 1xc4
 286 431 l 1
 305 456 l 1
 286 481 l 1
 286 758 l 1xe0
 258 793 280 874 248 874 c 1
 248 1152 l 2
 248 1197 209 1226 209 1267 c 1
 156 1336 91 1395 29 1452 c 1
 248 1498 l 1
 265 1478 283 1474 305 1474 c 1
 323 1498 l 1
 557 1498 l 1
 574 1478 592 1474 614 1474 c 0
 634 1474 648 1484 666 1498 c 1
 666 1452 l 1
 701 1498 l 1
 823 1476 959 1479 1088 1429 c 1
 955 1429 928 903 928 781 c 1
 948 781 l 1
 948 735 l 1
 870 753 813 803 738 803 c 1
 738 827 l 1
 720 827 l 1
 720 803 l 1
 630 803 l 1
 616 819 593 825 575 827 c 1
 589 806 595 768 595 738 c 0
 595 727 595 720 593 712 c 1
 575 688 l 1
 847 688 l 1
 861 663 l 1
 847 642 l 1
 847 503 l 1
 827 503 l 1
 842 478 877 440 877 409 c 0
 877 403 862 371 858 365 c 1
 842 403 790 414 747 414 c 0
 728 414 710 411 696 409 c 1
 696 431 l 1
 678 431 l 1
 678 409 l 1
 660 431 l 1
 660 409 l 1
 624 409 l 1
 624 431 l 1
 608 411 605 385 605 360 c 0
 605 345 606 329 606 317 c 1
 586 317 l 1xd1
306 -124 m 2xe0
 306 -109 313 -99 320 -91 c 1xc8
 315 -103 308 -118 306 -134 c 1xc4
 306 -124 l 2xe0
322 -87 m 1
 326 -77 l 1
 326 -86 l 1
 324 -86 324 -86 322 -87 c 1
EndSplineSet
EndChar

StartChar: g
Encoding: 72 103 32
Width: 1120
VWidth: 2308
Flags: W
HStem: 1487 20G<446 466 494.5 521 538 569.304>
VStem: 502 36<-171.585 -115.224> 664 19<-161 -138>
LayerCount: 2
Fore
SplineSet
790 -113 m 1
 790 -91 l 1
 773 -81 l 1
 754 -113 l 1
 732 -125 l 1
 718 -113 l 1
 701 -138 l 1
 683 -138 l 1
 683 -113 l 1
 664 -138 l 1
 683 -138 l 1
 683 -161 l 1
 664 -176 l 1
 664 -138 l 1
 646 -161 l 1
 610 -113 l 1
 574 -113 l 1
 574 -91 l 1
 557 -91 l 1
 557 -113 l 1
 539 -137 538 -152 538 -185 c 1
 509 -183 502 -139 502 -113 c 1
 484 -91 l 1
 466 -91 l 1
 464 -127 443 -161 411 -161 c 1
 394 -138 l 1
 411 -138 l 1
 411 -113 l 1
 376 -113 l 1
 358 -91 l 1
 333 -91 326 -46 322 -22 c 1
 308 -35 l 1
 266 -35 251 130 223 164 c 1
 223 330 183 477 123 627 c 1
 142 627 l 1
 115 657 61 1048 61 1113 c 0
 61 1145 61 1182 84 1207 c 1
 84 1298 l 1
 163 1367 l 1
 202 1367 l 1
 202 1443 303 1488 365 1488 c 0
 375 1488 386 1486 394 1484 c 1
 410 1505 434 1507 458 1507 c 2
 466 1507 l 1
 466 1484 l 1
 484 1484 l 1
 484 1500 488 1508 501 1508 c 2
 521 1507 l 1
 484 1438 l 1
 521 1484 l 1
 557 1462 l 1
 538 1484 l 1
 538 1507 l 1
 574 1484 l 1
 588 1488 602 1495 615 1495 c 0
 867 1495 1086 1314 1086 998 c 0
 1086 929 1019 735 1019 625 c 0
 1019 594 1024 570 1037 558 c 1
 908 558 793 602 683 602 c 1
 671 617 664 628 664 649 c 2
 664 673 l 1
 683 673 l 1
 646 717 l 1
 664 742 l 1
 646 742 l 1
 628 766 l 1
 628 801 l 1
 610 789 l 1
 598 820 586 834 557 834 c 1
 538 858 l 1
 521 834 l 1
 484 834 l 1
 484 791 l 2
 484 768 479 736 466 717 c 1
 466 627 l 1
 448 627 l 1
 448 602 l 1
 466 580 l 1
 466 551 l 2
 466 541 451 497 448 487 c 1
 466 464 l 1
 484 464 l 1
 483 421 l 2
 483 406 492 383 502 371 c 1
 502 330 l 2
 502 304 506 276 521 255 c 1
 502 255 l 1
 502 233 l 1
 521 245 l 1
 538 209 l 1
 521 187 l 1
 538 187 l 1
 574 141 l 1
 574 118 l 1
 592 141 l 1
 610 141 l 1
 628 118 l 1
 628 141 l 1
 661 141 696 156 718 187 c 1
 728 187 l 1
 718 280 l 1
 701 280 l 2
 669 280 642 243 610 233 c 1
 610 334 592 435 592 536 c 1
 596 534 1005 440 1028 440 c 1
 959 300 1037 -91 906 -91 c 1
 875 -117 841 -145 809 -161 c 1
 809 -147 l 2
 809 -134 806 -113 790 -113 c 1
EndSplineSet
EndChar

StartChar: h
Encoding: 73 104 33
Width: 1496
VWidth: 2308
Flags: W
HStem: -68 46<335.23 350.848> 1487 41G<403.5 435 664 687 835 861.5 996.143 1035.5 1115 1132.14 1139 1291> 1508 20G<664 687 835 861.5 996.143 1035.5 1115 1132.14>
VStem: 191 440<913.105 1344> 311 320<24 394.446 418 440> 351 280<24 288 418 439.953> 796 319<-24.0398 44.0788 69.0677 324> 847 72<-112.238 -68.1882>
LayerCount: 2
Fore
SplineSet
1074 -68 m 1xd2
 1076 -68 l 1
 1076 -115 1032 -138 995 -138 c 1
 1025 -68 l 1
 1016 -46 l 1
 1012 -45 l 1
 963 -70 l 1
 954 -68 l 1
 916 -28 l 1
 919 -55 l 1
 919 -86 907 -113 875 -113 c 1
 868 -105 847 -93 847 -81 c 0xc1
 847 -77 849 -72 854 -68 c 1
 815 -46 l 1
 794 -76 l 1
 796 -35 815 5 815 46 c 1
 775 24 l 1
 758 69 l 1
 790 69 796 162 796 238 c 0
 796 279 794 315 794 327 c 0
 794 363 817 394 817 429 c 0
 817 439 809 442 803 442 c 0
 800 442 796 440 794 440 c 1
 775 464 l 1
 726 464 681 440 631 440 c 1
 631 418 l 1
 604 387 l 1
 620 396 l 1
 624 363 635 320 635 288 c 2
 631 24 l 1xca
 552 -22 l 1
 554 -7 l 1
 547 -2 l 1
 471 -2 l 1
 431 -22 l 1
 429 -53 374 -65 351 -68 c 1
 307 -28 l 1
 307 -25 311 -22 316 -22 c 0
 329 -22 348 -28 351 -30 c 1xc4
 348 127 311 282 311 440 c 0xc8
 311 710 191 972 191 1229 c 0
 191 1349 100 1431 -4 1438 c 1
 80 1438 376 1449 431 1507 c 1
 436 1482 l 1
 438 1480 440 1480 440 1480 c 1
 447 1480 453 1490 453 1500 c 0
 453 1502 451 1505 451 1507 c 1
 539 1507 624 1528 704 1528 c 1xb0
 670 1482 644 1421 613 1367 c 1
 631 1344 l 1
 631 1127 613 910 613 696 c 1
 646 696 672 717 704 717 c 1
 704 696 l 1
 748 696 788 717 835 717 c 1
 835 706 l 1
 855 732 861 807 861 888 c 0
 861 988 854 1094 854 1135 c 0
 854 1161 884 1275 914 1275 c 1
 914 1318 854 1306 854 1414 c 0
 854 1455 835 1488 835 1528 c 1
 888 1528 944 1525 995 1507 c 1
 1019 1528 l 1
 1052 1528 1081 1507 1115 1507 c 1
 1115 1528 l 1
 1139 1500 l 1
 1276 1507 l 1
 1306 1464 1376 1503 1415 1460 c 1
 1471 1460 l 1
 1401 1449 1323 1243 1299 1174 c 1
 1279 1123 1255 1061 1253 1020 c 2
 1251 974 l 1
 1237 974 l 1
 1255 952 l 1
 1231 871 1209 789 1174 714 c 1
 1196 673 l 1
 1159 673 1151 630 1151 587 c 0
 1151 557 1155 528 1155 510 c 0
 1155 456 1135 404 1135 349 c 1
 1097 317 l 1
 1115 324 l 1
 1115 192 1074 67 1074 -68 c 1xd2
EndSplineSet
EndChar

StartChar: i
Encoding: 74 105 34
Width: 844
VWidth: 2308
Flags: W
HStem: 1500 20G<319 392.522 514 562>
VStem: 239 360<550.155 1032.74> 464 94<-30 -8.32521 -8 34.1932> 464 75<-55 -41>
LayerCount: 2
Fore
SplineSet
466 -8 m 1xa0
 468 -8 l 1
 468 21 454 38 432 38 c 0
 400 38 380 -7 360 -30 c 1
 305 -28 317 327 305 387 c 0
 273 555 239 717 239 892 c 0xc0
 239 971 251 1049 251 1128 c 1
 269 1128 l 1
 210 1265 l 2
 188 1316 88 1340 90 1418 c 1
 90 1426 l 1
 49 1452 l 1
 61 1474 l 1
 31 1452 l 1
 12 1474 l 1
 140 1474 262 1520 376 1520 c 1
 395 1497 l 1
 443 1497 489 1520 539 1520 c 1x90
 585 1474 732 1493 800 1474 c 1
 774 1449 719 1400 719 1358 c 1
 739 1358 l 1
 700 1313 677 1255 658 1197 c 1
 679 1174 l 1
 638 1022 599 843 599 685 c 0
 599 638 619 594 619 548 c 1
 607 532 601 505 599 483 c 1
 579 503 l 1
 579 469 599 440 599 408 c 1xc0
 558 387 l 1
 577 387 581 365 581 349 c 0
 581 221 558 94 558 -30 c 1xa0
 575 -30 579 -51 579 -66 c 2
 579 -77 l 1
 561 -73 544 -61 539 -41 c 1
 539 -55 l 1x90
 514 -56 l 1
 493 -58 464 -48 464 -22 c 0
 464 -18 464 -15 466 -8 c 1xa0
EndSplineSet
EndChar

StartChar: j
Encoding: 75 106 35
Width: 940
VWidth: 2308
Flags: W
HStem: 1488 24<248.622 254>
VStem: -38 292<289.204 424> 380 383<676 1093.05> 380 362<676 980.249> 400 321<260 330 377 493 515 608>
LayerCount: 2
Fore
SplineSet
272 -18 m 1xc8
 254 6 l 1
 80 6 83 62 2 214 c 1
 21 238 l 1
 21 294 -38 329 -38 424 c 1
 -59 424 l 1
 2 470 l 1
 37 470 141 485 178 498 c 1
 143 470 l 1
 162 470 l 2
 190 470 193 515 218 515 c 1
 236 539 l 1
 254 539 l 1
 254 515 l 1
 236 493 l 1
 254 493 l 1
 254 399 l 1
 294 348 274 225 345 214 c 1
 400 260 l 1
 400 330 l 1
 421 355 l 1
 400 377 l 1
 400 608 l 1xc8
 421 632 l 1
 380 676 l 1xe0
 380 1142 l 1
 362 1142 l 1
 362 1207 325 1261 325 1327 c 1
 291 1397 l 1
 291 1421 270 1443 254 1456 c 1
 254 1488 l 1
 236 1488 l 1
 244 1495 268 1512 276 1512 c 0
 288 1512 307 1508 307 1488 c 1
 325 1488 l 1
 345 1512 l 1
 481 1512 l 2
 524 1512 845 1441 902 1419 c 1
 887 1411 830 1375 821 1373 c 1
 806 1373 l 1
 806 1350 824 1330 824 1308 c 1
 821 1257 l 1
 796 1255 791 1094 742 1094 c 1xd0
 760 1074 763 1031 763 986 c 0xe0
 763 863 742 760 742 632 c 1xd0
 723 610 721 580 721 551 c 2
 721 515 l 1
 701 515 l 1
 721 493 l 1
 721 408 712 291 680 214 c 1
 701 192 l 1
 680 192 l 1
 680 150 657 142 643 110 c 1
 631 79 647 17 622 -38 c 1
 642 -63 l 1
 622 -87 l 1
 601 -87 599 -54 599 -38 c 1
 581 -38 l 1
 568 -24 553 -16 535 -16 c 1
 500 -18 l 1
 500 -63 l 1
 441 -63 l 1
 421 -38 l 1
 400 -38 l 1
 400 -18 l 1
 307 -18 l 1
 307 -38 l 1
 272 6 l 1
 272 -18 l 1xc8
EndSplineSet
EndChar

StartChar: k
Encoding: 76 107 36
Width: 1303
VWidth: 2308
Flags: W
HStem: 608 48<803 823> 1324 95<143.161 194.752> 1490 20G<472 492 573 654 774.174 800 851 870 870 1052.5>
VStem: 311 343<726.243 839 862 1059.85> 393 219<100 320.365> 472 20<1464 1510> 573 81<1466.45 1510> 793 36<-41 -18> 940 84<-41 -18> 1041 19<-41 -18>
LayerCount: 2
Fore
SplineSet
829 -41 m 1xe3c0
 813 -41 l 1
 813 -65 l 1
 793 -41 l 1
 793 -18 l 1
 777 3 l 1
 777 28 781 55 793 75 c 1
 791 135 727 176 725 238 c 1
 707 238 l 1
 707 260 l 1
 690 279 687 298 687 320 c 0
 687 330 689 342 689 353 c 1
 671 360 l 1
 659 317 634 276 612 240 c 1
 612 209 l 2
 612 120 613 27 643 -58 c 1
 632 -41 l 1
 612 -65 l 1xe9c0
 573 -18 l 1
 553 -18 l 1
 532 0 l 1
 513 -18 l 1
 492 -18 l 1
 492 -41 l 1
 472 -65 l 1xe7c0
 462 -41 432 -25 411 -18 c 1
 411 100 l 1
 393 100 l 1xe9c0
 396 211 l 2
 398 249 396 300 372 330 c 1
 372 469 l 1
 354 470 350 493 350 513 c 0
 350 524 352 531 352 538 c 1
 337 538 l 1
 352 562 l 1
 332 562 l 1
 332 656 311 745 311 839 c 1
 298 862 l 1
 311 862 l 1
 311 931 l 2xf1c0
 311 1004 175 1226 175 1291 c 0
 175 1295 175 1300 176 1301 c 2
 196 1324 l 1
 158 1324 l 1
 113 1365 66 1389 16 1419 c 1
 147 1452 280 1490 409 1490 c 1
 453 1488 l 1
 472 1464 l 1
 472 1510 l 1
 492 1510 l 1
 492 1464 l 1
 532 1464 l 1
 532 1488 l 1
 553 1464 l 1
 573 1464 l 1
 573 1510 l 1
 654 1510 l 1xe7c0
 629 1454 612 1389 612 1324 c 0xe9c0
 612 1123 654 929 654 724 c 1
 684 845 694 1053 707 1186 c 1
 712 1263 764 1346 764 1419 c 2
 764 1464 l 1
 782 1441 l 1
 782 1464 l 1
 764 1464 l 1
 782 1510 l 1
 800 1510 l 1
 800 1488 l 1
 851 1488 l 1
 851 1510 l 1
 870 1495 l 1
 886 1510 l 1
 1014 1510 l 2
 1091 1510 1220 1470 1290 1441 c 1
 1144 1441 1058 1267 959 1186 c 1
 941 1186 l 1
 941 1095 937 994 907 909 c 1
 886 909 l 1
 803 656 l 1
 823 656 l 1
 823 608 l 1
 803 608 l 1
 894 469 903 282 992 144 c 1
 974 122 l 1
 974 100 l 1
 992 100 l 1
 1060 -41 l 1
 1041 -41 l 1
 1041 -18 l 1
 1024 3 l 1
 1024 -41 l 1
 940 -41 l 1
 940 -18 l 1
 903 -18 l 1
 896 -43 884 -73 867 -87 c 1
 848 -87 l 1
 848 -41 l 1
 829 -18 l 1
 829 -41 l 1xe3c0
EndSplineSet
EndChar

StartChar: l
Encoding: 77 108 37
Width: 899
VWidth: 2308
Flags: W
HStem: 230 48<922 945> 1320 22<144 162> 1367 69<125 164.875> 1411 116<683 765.043> 1411 25<40.6315 95.9721> 1459 68<718.657 783> 1485 20G<261.5 527 527 544> 1495 20G<527 544>
VStem: 203 403<924.508 1166.9> 283 331<591.591 762> 528 56<-24 -2> 654 35<-48 -24>
LayerCount: 2
Fore
SplineSet
967 278 m 1xd050
 945 230 l 1
 922 230 l 1
 943 207 l 1
 922 207 l 1
 915 104 871 9 864 -94 c 1
 823 -94 l 1
 801 -118 l 1
 820 -140 l 1
 779 -140 l 1
 762 -94 l 1
 742 -94 l 1
 744 -70 l 1
 723 -70 l 1
 725 -48 l 1
 709 -24 l 1
 690 -24 l 1
 689 -48 l 1
 671 -48 l 2
 657 -48 654 -30 654 -12 c 0
 654 0 655 14 657 23 c 1
 641 46 l 1
 604 46 l 1
 584 23 l 1
 584 -24 l 1
 528 -24 l 1xd030
 529 -2 l 1
 475 -2 l 1
 473 -20 449 -26 431 -26 c 0
 427 -26 422 -24 418 -24 c 1
 414 -94 l 1
 429 -118 l 1
 413 -118 l 1
 413 -134 402 -142 390 -142 c 1
 376 -140 l 1
 360 -118 l 1
 301 394 l 1
 319 416 l 1
 302 416 l 1
 286 440 l 1
 305 485 l 1
 287 485 l 1
 289 513 l 1
 289 577 283 637 283 700 c 0xd050
 283 720 285 742 286 762 c 1
 268 762 l 1
 268 783 246 786 229 786 c 1
 238 800 253 827 253 849 c 2
 253 855 l 1
 234 855 l 1
 215 878 l 1
 222 993 l 1
 209 1012 203 1036 203 1060 c 0
 203 1084 209 1112 211 1133 c 1
 192 1156 l 1
 194 1180 l 1
 176 1204 l 1
 178 1234 181 1273 201 1296 c 1
 181 1296 l 1
 162 1320 l 1
 143 1320 l 1
 144 1342 l 1
 164 1342 l 1
 166 1367 l 1
 125 1367 l 1xe090
 125 1387 l 1
 109 1411 l 1
 58 1411 60 1418 16 1436 c 1
 118 1436 213 1505 310 1505 c 2
 508 1505 l 1
 527 1486 l 1
 527 1505 l 1xca90
 546 1515 l 1xc190
 544 1505 l 1
 563 1505 l 1xc290
 565 1527 l 1
 583 1527 l 1xc490
 598 1505 l 1
 652 1505 l 1xc290
 637 1527 l 1
 848 1527 l 1
 841 1503 l 1
 783 1459 l 1xc490
 742 1459 720 1411 683 1411 c 1
 691 1395 l 1
 688 1359 645 1334 641 1296 c 1
 622 1270 l 1
 620 1250 l 1
 602 1250 l 1
 601 1226 l 1
 619 1226 l 1
 632 1211 634 1190 634 1170 c 0
 634 1104 606 1034 606 990 c 0xd090
 606 938 614 890 614 847 c 2
 614 834 l 1
 592 462 l 1
 610 440 l 1
 591 440 l 1
 581 431 l 1
 608 394 l 1
 598 394 l 1
 604 370 l 1
 591 344 l 1
 602 309 l 1
 619 322 l 1
 617 280 809 274 821 266 c 1
 827 278 l 1
 967 278 l 1xd050
EndSplineSet
EndChar

StartChar: m
Encoding: 78 109 38
Width: 1577
VWidth: 2308
Flags: W
HStem: -94 24<323.074 334> 231 47<574 593> 740 26<210.046 232.905> 1411 25<1482.8 1518> 1507 20G<691.5 700 703.364 720.556> 1507 20G<691.5 700 703.364 720.556>
VStem: 253 321<139.516 205.95 278 600 625 630> 296 278<138 205.95 278 594.282> 334 59<-116 -94 -94 -70 -70 23> 495 79<23 67> 862 37<-24 23> 1044 18<-70 -32.8673>
LayerCount: 2
Fore
SplineSet
828 1250 m 1xf630
 810 1250 l 1
 810 1273 l 1
 828 1255 l 1
 840 1270 846 1300 846 1324 c 0
 846 1330 846 1336 844 1342 c 1
 881 1411 l 1
 883 1418 883 1423 883 1429 c 0
 883 1464 861 1495 861 1518 c 0
 861 1520 862 1525 862 1527 c 1
 881 1551 l 1
 899 1527 l 1
 899 1551 l 1
 935 1551 l 1
 954 1505 l 1
 1025 1505 l 1
 1035 1527 1063 1528 1082 1528 c 0
 1208 1528 1396 1465 1538 1436 c 1
 1518 1411 l 1
 1479 1411 l 1
 1418 1367 l 1
 1418 1342 l 1
 1392 1342 l 1
 1337 1273 l 1
 1337 1204 l 1
 1346 1204 l 1
 1317 1158 l 1
 1317 1143 1315 1132 1311 1118 c 1
 1302 1102 l 1
 1297 1101 l 1
 1295 1107 1293 1113 1288 1113 c 0
 1284 1113 1283 1113 1279 1112 c 1
 1297 1064 l 1
 1246 868 1209 329 1115 207 c 1
 1125 185 l 1
 1098 162 l 1
 1115 138 l 1
 1098 138 l 1
 1098 46 l 1
 1073 10 1070 -43 1062 -87 c 1
 1044 -70 l 1
 1044 0 l 1
 1025 23 l 1
 1025 -24 l 1
 1009 -48 l 1
 981 15 990 46 917 46 c 1
 901 23 899 6 899 -24 c 1
 862 -24 l 1
 862 23 l 1
 844 23 l 1
 844 44 917 600 917 600 c 1
 899 600 l 1
 883 578 881 538 881 508 c 1
 844 440 l 1
 844 428 l 2
 844 399 844 369 828 346 c 1
 828 322 823 296 810 278 c 1
 810 231 l 1
 790 207 l 1
 790 147 754 89 754 36 c 0
 754 28 755 21 756 14 c 1
 732 10 702 -2 683 -24 c 1
 671 -24 l 1
 683 0 l 1
 655 82 677 211 629 278 c 1
 629 281 628 284 628 288 c 0
 628 310 636 334 642 353 c 1
 629 375 593 574 574 630 c 1
 574 278 l 1xf630
 593 278 l 1
 593 231 l 1
 574 231 l 1
 593 207 l 1
 574 185 570 137 570 92 c 0
 570 57 572 23 574 0 c 1
 533 0 l 1
 495 23 l 1
 495 67 l 1
 474 46 l 1
 454 67 l 1
 454 63 l 2
 454 55 447 44 442 44 c 0
 440 44 440 46 437 48 c 1
 393 23 l 1
 393 -116 l 1
 373 -140 l 1
 334 -140 l 1
 334 -94 l 1
 331 -94 l 2
 325 -94 323 -90 323 -84 c 0
 323 -77 325 -70 331 -70 c 2
 334 -70 l 1
 334 23 l 1xf4f0
 312 46 l 1
 312 116 l 1
 294 138 l 1
 296 235 l 2xf530
 298 357 252 478 253 600 c 1
 233 600 l 1
 253 625 l 1
 253 635 l 2
 253 667 244 671 213 671 c 1
 220 696 233 726 253 740 c 1
 213 740 l 1
 211 742 209 745 209 748 c 0
 209 756 218 766 226 766 c 0
 227 766 231 764 233 762 c 1
 233 834 213 904 213 974 c 1
 172 974 l 1
 172 993 l 2
 172 1028 196 1064 196 1112 c 0
 196 1120 196 1125 194 1133 c 1
 172 1133 l 1
 194 1158 l 1
 194 1180 l 2
 194 1280 34 1342 32 1389 c 1
 54 1367 l 1
 190 1431 683 1513 700 1527 c 1xfa30
 700 1505 l 1
 737 1527 l 1
 700 1482 l 1
 700 1411 l 2
 700 1373 720 1340 720 1296 c 0
 720 1288 720 1282 718 1273 c 1
 767 1201 737 1087 773 1043 c 1
 828 1250 l 1xf630
EndSplineSet
EndChar

StartChar: n
Encoding: 79 110 39
Width: 1360
VWidth: 2308
Flags: W
HStem: 1486 9<1340.71 1358.51> 1498 20G<445.5 533.5 580 633 779 808.5>
VStem: 401 34<-103 -79> 507 20<-116.99 -56> 580 53<1495 1518> 725 17<-147 -120.183> 832 394<1195.32 1377.81> 833 35<-147 -125> 907 52<-119.851 -56.3267>
LayerCount: 2
Fore
SplineSet
435 -79 m 1xfd80
 435 -103 l 1
 418 -125 l 1
 401 -125 l 1
 401 -79 l 1
 387 -95 366 -103 346 -103 c 1
 328 -125 l 1
 310 -103 l 1
 254 429 l 1
 273 452 l 1
 202 488 173 1095 173 1197 c 1
 155 1209 l 1
 173 1231 l 1
 152 1267 81 1421 55 1441 c 1
 55 1464 l 1
 14 1488 l 1
 189 1488 364 1518 527 1518 c 1
 540 1500 562 1495 580 1495 c 1
 580 1518 l 1
 633 1518 l 1
 633 1402 l 1
 671 1356 l 1
 653 1334 l 1
 653 1303 671 1284 688 1263 c 1
 686 1261 685 1257 685 1255 c 0
 685 1247 694 1238 700 1238 c 0
 702 1238 704 1240 706 1241 c 1
 706 1199 769 933 798 933 c 1
 798 934 l 2
 798 1058 832 1164 832 1288 c 1
 820 1306 779 1517 779 1518 c 1
 798 1518 l 1
 819 1493 939 1486 1060 1486 c 0
 1191 1486 1330 1493 1360 1495 c 1
 1323 1488 1256 1344 1226 1310 c 1
 1226 1286 l 1xfe
 1131 1166 1117 683 1067 500 c 1
 1049 500 l 1
 1067 477 l 1
 1067 452 l 1
 1051 431 1045 404 1045 375 c 0
 1045 355 1047 333 1049 315 c 1
 1019 315 l 1
 1032 292 l 1
 1018 274 1010 233 1010 201 c 0
 1010 191 1010 183 1012 174 c 1
 992 146 1000 82 959 82 c 1
 959 33 l 2
 959 2 958 -33 941 -56 c 1
 939 -81 931 -175 906 -175 c 1
 886 -173 l 1
 886 -147 l 2
 886 -135 907 -111 907 -76 c 0
 907 -68 908 -63 906 -56 c 1
 886 -33 l 1
 868 -56 l 1
 868 -147 l 1
 833 -219 l 1
 833 -125 l 1
 761 -103 l 1
 742 -173 l 1
 725 -147 l 1
 725 -103 l 1
 706 -103 l 1
 706 -147 l 1
 685 -119 673 34 673 81 c 0
 673 122 656 146 633 174 c 1
 653 199 l 1
 630 237 617 291 617 337 c 1
 595 366 580 387 580 429 c 1
 598 452 l 1
 580 452 l 1
 580 490 556 505 543 538 c 1
 543 361 l 1
 530 342 525 320 525 298 c 0
 525 263 535 228 543 199 c 1
 527 174 l 1
 527 -125 l 1
 508 -103 507 -87 507 -56 c 1
 472 -56 l 2
 467 -56 440 -76 435 -79 c 1xfd80
EndSplineSet
EndChar

StartChar: o
Encoding: 80 111 40
Width: 1118
VWidth: 2308
Flags: W
HStem: 6 186<503.743 592.728> 1072 25<53 56> 1492 20G<356.5 546 547.727 583>
VStem: 215 260<205.063 354.984> 619 299<200.093 340.319> 774 44<-154.928 -41.5469>
LayerCount: 2
Fore
SplineSet
213 170 m 1xf4
 215 170 l 1
 215 221 185 303 172 355 c 0
 116 574 102 824 67 1050 c 1
 60 1046 l 1
 53 1048 l 1
 73 1072 l 1
 53 1072 l 1
 53 1097 l 1
 56 1097 l 1
 53 1120 l 1
 62 1118 l 1
 69 1133 75 1154 75 1172 c 0
 75 1179 73 1184 73 1188 c 1
 54 1188 l 1
 97 1201 167 1512 546 1512 c 1
 546 1490 l 1
 565 1512 l 1
 601 1512 638 1490 678 1490 c 1
 678 1512 l 1
 763 1512 874 1431 938 1375 c 1
 958 1397 l 1
 960 1379 l 1
 942 1375 l 1
 979 1350 l 1
 960 1329 l 1
 967 1314 1002 1282 1021 1282 c 2
 1025 1282 l 1
 1078 1212 l 1
 1064 1212 l 1
 1058 1186 1058 1159 1058 1130 c 0
 1058 1101 1058 1072 1060 1048 c 1
 1078 1026 l 1
 1078 963 1060 905 1060 842 c 1
 1078 842 l 1
 1055 654 1021 510 960 332 c 0
 944 286 918 240 918 192 c 1xf8
 938 170 l 1
 905 170 884 106 879 77 c 1
 824 14 818 -27 818 -91 c 2
 818 -155 l 1
 798 -155 l 2
 777 -155 774 -144 774 -128 c 0
 774 -109 779 -87 779 -76 c 0
 779 -53 756 -40 739 -38 c 1
 739 -60 l 1
 726 -58 l 1
 698 -86 l 1
 678 -66 l 1
 678 -109 l 1
 650 -134 l 1
 559 -115 632 6 546 6 c 0
 523 6 509 -22 498 -22 c 0
 496 -22 493 -19 491 -16 c 1
 449 -73 l 1
 429 -39 390 43 350 43 c 0
 340 43 285 20 274 16 c 1
 269 82 213 92 213 170 c 1xf4
658 402 m 1
 638 424 l 1
 638 449 l 2
 638 470 645 479 658 493 c 1
 658 564 l 2
 658 587 654 614 638 632 c 1
 638 683 l 2
 638 736 626 866 563 866 c 2
 528 866 l 1
 528 842 l 1
 509 842 l 1
 477 797 452 743 452 679 c 2
 452 493 l 2
 452 485 459 474 464 470 c 1
 452 470 l 1
 452 402 l 2
 452 383 462 367 475 355 c 1
 475 309 501 227 528 192 c 1
 546 192 l 2
 603 192 619 263 619 322 c 0
 619 334 619 344 617 355 c 1
 638 355 l 1
 638 402 l 1
 658 402 l 1
73 1003 m 1
 53 1003 l 1
 53 1026 l 1
 73 1003 l 1
73 981 m 1
 53 981 l 1
 56 992 l 1
 73 981 l 1
EndSplineSet
EndChar

StartChar: p
Encoding: 81 112 41
Width: 1141
VWidth: 2308
Flags: W
HStem: 322 234<606 615 651.603 734.802 735 741> 322 212<615 627 645.093 734.802 735 740.141 741.006 758.748> 1485 20G<419.5 500 542 648.522 655.565 696.37 739 846>
VStem: 327 300<-44.7514 0 46 177.75 185 207 231.666 321.907 322 346> 606 23<-72.5117 -70> 625 2<301.002 306> 627 2<312.094 321.907>
LayerCount: 2
Fore
SplineSet
386 -91 m 1xa8
 386 -94 l 1
 330 -94 327 73 327 162 c 2
 327 207 l 1
 309 231 l 1
 317 245 328 272 328 292 c 0
 328 296 306 323 306 383 c 0
 306 402 309 418 309 426 c 0
 309 435 293 474 289 485 c 1
 289 462 l 1
 280 661 230 844 230 1048 c 0
 230 1112 230 1250 189 1298 c 0
 155 1339 50 1400 50 1460 c 1
 203 1482 350 1505 489 1505 c 0
 511 1505 522 1482 544 1482 c 1
 542 1490 l 1
 632 1505 l 1
 651 1482 l 1
 686 1505 l 1
 700 1478 l 1
 707 1481 737 1505 741 1505 c 0
 951 1505 1093 1385 1093 1140 c 0
 1093 1124 1090 1089 1070 1089 c 1
 1070 947 1006 301 844 301 c 0
 808 301 771 322 735 322 c 1xb0
 735 304 l 1
 731 323 713 327 697 327 c 2
 681 327 l 1
 681 329 l 2
 681 335 677 351 675 351 c 0
 661 351 660 320 650 320 c 0
 648 320 647 320 645 322 c 1
 645 346 l 1
 627 346 l 1
 627 322 l 1x70
 606 322 l 1xa8
 627 280 627 231 627 185 c 1xb0
 606 178 l 1
 606 162 l 2xa8
 606 122 627 87 627 46 c 1xb0
 606 24 l 1xa8
 627 24 l 1xa2
 606 -18 l 1xa8
 627 0 l 1xb0
 629 -43 l 2xa2
 629 -49 610 -81 606 -89 c 1
 606 -70 l 1
 570 -66 l 1
 548 -81 l 1
 548 -63 l 1
 525 -91 l 1
 507 -70 l 1
 509 -46 l 1
 487 -46 l 1
 476 -70 409 -66 386 -91 c 1xa8
657 880 m 2
 597 880 l 1
 597 855 l 2
 597 835 599 834 615 834 c 1
 615 786 l 1
 607 778 595 764 592 752 c 1
 578 764 l 1
 578 740 l 1
 597 740 l 1
 578 717 l 1
 597 717 l 1
 597 578 l 1
 578 556 l 1
 615 556 l 1xa0
 615 534 l 1
 651 534 l 1x60
 664 548 668 556 686 556 c 2
 741 556 l 1xa0
 741 544 749 534 760 534 c 1x60
 760 554 758 574 758 592 c 0
 758 621 762 649 778 671 c 1
 778 740 l 2
 778 783 766 825 741 855 c 1
 741 880 l 1
 725 855 l 1
 686 855 l 1
 686 878 671 880 657 880 c 2
668 322 m 1
 681 327 l 1
 681 322 l 1
 668 322 l 1
627 322 m 1x70
 629 320 629 319 629 317 c 2x62
 629 317 629 314 627 312 c 1
 627 322 l 1x70
625 306 m 2x24
 627 312 l 1
 627 301 l 1x30
 625 301 625 304 625 306 c 2x24
EndSplineSet
EndChar

StartChar: q
Encoding: 82 113 42
Width: 1152
VWidth: 2308
Flags: W
HStem: 928 590<515 699.036> 1439 23<890.9 907.498>
VStem: 49 479<751.692 901.249> 153 359<465.226 689.058> 671 2<398.141 417.812> 673 12<787.015 808.407> 748 341<397.397 461.338 766 879.221> 888 20<1438.49 1461>
LayerCount: 2
Fore
SplineSet
969 1389 m 1xa1
 985 1367 l 1
 1076 1275 1089 1191 1089 1069 c 0
 1089 1013 1105 959 1109 904 c 1
 1089 904 l 1
 1089 815 1080 431 1050 373 c 1
 1068 373 l 1
 1043 313 1032 238 989 187 c 1
 1006 166 l 1
 1000 166 987 156 987 152 c 0
 987 144 993 141 999 141 c 0
 1002 141 1004 141 1008 142 c 1
 1008 118 l 1
 1080 46 l 1
 1096 46 1120 53 1129 72 c 1
 1129 -48 1072 -14 1066 -68 c 1
 1013 -68 964 -240 948 -290 c 1
 948 -254 l 1
 928 -254 l 1
 928 -180 901 -120 829 -113 c 1
 829 -106 l 2
 829 -87 814 -56 807 -45 c 1
 749 -63 642 -68 589 -68 c 0
 535 -68 482 -39 432 2 c 1
 450 2 l 1
 406 53 353 89 311 142 c 1
 311 118 l 1
 309 159 253 204 230 233 c 1
 250 233 l 1
 215 270 200 330 169 373 c 1
 169 375 167 378 167 380 c 0
 167 390 174 403 180 411 c 1
 132 464 l 1
 143 490 153 526 153 558 c 0x92
 153 567 151 572 151 580 c 1
 121 613 49 917 49 974 c 0
 49 1008 69 1036 69 1069 c 1
 40 1089 l 1
 82 1135 l 1
 69 1135 l 1
 99 1170 128 1227 128 1275 c 1
 126 1273 125 1273 121 1273 c 0
 114 1273 102 1281 102 1291 c 0
 102 1344 482 1518 548 1518 c 0
 619 1518 836 1513 888 1438 c 1
 892 1405 943 1390 973 1375 c 1
 969 1379 969 1382 969 1389 c 1xa1
546 396 m 1
 581 349 586 233 638 233 c 1
 638 241 654 301 673 301 c 1
 673 398 l 1
 676 396 680 394 684 394 c 2
 748 396 l 1
 748 426 768 406 768 464 c 1
 748 464 l 1
 770 472 770 556 770 578 c 0
 770 647 763 717 685 783 c 1
 748 766 l 1
 748 783 l 2
 748 839 680 928 618 928 c 0
 537 928 528 742 528 673 c 0xa6
 528 617 512 566 512 510 c 1
 532 508 546 416 546 396 c 1
908 1462 m 1x41
 908 1459 908 1436 902 1436 c 1
 901 1438 897 1439 893 1439 c 0
 892 1439 890 1439 888 1438 c 1
 888 1450 895 1462 908 1462 c 1x41
673 813 m 0x04
 673 815 673 817 675 817 c 0
 678 817 685 786 685 783 c 1
 680 793 673 799 673 813 c 0x04
1068 -91 m 1
 1066 -83 1066 -77 1066 -68 c 2
 1068 -91 l 1
671 408 m 0x08
 671 409 671 414 673 418 c 1
 673 398 l 1x04
 671 401 671 404 671 408 c 0x08
EndSplineSet
EndChar

StartChar: r
Encoding: 83 114 43
Width: 1262
VWidth: 2308
Flags: W
HStem: -87 3<503 517> 1492 20G<500 523 561.5 607 805 837>
VStem: 263 962<923.402 1210.53> 303 339<616.493 724 748 864.898> 342 302<-34.9731 192> 401 2<-133.674 -103.143> 604 19<-63 -39.3271> 731 266<-56.8438 29 29.0015 52.9055 100.31 283.372> 824 300<609.063 769.441>
LayerCount: 2
Fore
SplineSet
642 192 m 1xd0
 644 192 l 1xc8
 644 100 623 5 623 -87 c 1
 604 -63 l 1
 604 -38 l 1
 569 -38 l 2
 540 -38 505 -43 503 -84 c 1
 475 -80 449 -63 422 -63 c 1
 403 -103 l 1
 403 -87 l 1xc6
 383 -134 l 1
 346 -134 340 -24 340 57 c 0
 340 98 342 132 342 144 c 0
 342 176 342 213 322 238 c 1
 329 238 l 1
 340 253 342 274 342 294 c 0
 342 327 338 340 322 377 c 1
 342 447 l 1xc8
 322 472 313 507 301 539 c 1
 322 562 l 1
 322 586 l 1
 281 608 l 1
 281 673 303 637 303 679 c 0xd0
 303 745 263 938 263 1094 c 0
 263 1224 84 1334 42 1441 c 1
 130 1441 241 1443 322 1488 c 1
 362 1466 l 1
 396 1502 477 1512 523 1512 c 1
 523 1488 l 1
 528 1492 560 1512 563 1512 c 0
 651 1512 729 1488 805 1488 c 1
 813 1505 l 1
 861 1470 1225 1421 1225 1234 c 0xe0
 1225 995 1124 786 1124 562 c 1xc080
 1107 541 1058 472 1069 431 c 1
 1069 425 1071 418 1074 414 c 1
 1055 424 l 1
 1036 399 l 1
 992 399 974 377 974 330 c 1
 993 330 997 263 997 201 c 0
 997 158 995 118 995 106 c 0
 995 34 995 -41 1015 -109 c 1
 995 -178 l 1
 895 -109 l 1
 867 -109 886 -87 855 -87 c 0
 811 -87 820 -103 794 -134 c 1
 794 -118 802 -97 816 -91 c 1
 816 -85 786 -64 781 -60 c 1
 774 -63 l 1
 774 -97 l 1
 770 -63 735 -68 735 29 c 1
 737 29 739 31 739 34 c 0
 739 36 737 43 737 46 c 0
 737 48 737 51 739 53 c 1
 755 53 l 1
 755 77 l 1
 735 77 l 1
 755 100 l 1
 735 106 731 152 731 197 c 0
 731 233 733 271 735 284 c 1
 714 309 l 1
 714 346 l 1
 710 330 692 327 670 327 c 0
 652 327 632 329 623 330 c 1xc3
 642 260 l 1xd0
 623 238 l 1xc2
 619 211 l 1
 642 192 l 1xd0
774 608 m 2
 806 608 824 702 824 733 c 0
 824 751 833 758 844 770 c 1
 803 860 779 888 698 888 c 0
 677 888 679 858 671 858 c 0
 669 858 663 865 661 865 c 2
 626 865 l 1
 635 863 642 849 642 839 c 2
 642 748 l 1xd080
 623 724 l 1xc2
 642 724 l 1xd0
 642 706 639 690 639 671 c 0
 639 613 703 608 747 608 c 2
 774 608 l 2
403 -134 m 1xc4
 401 -127 401 -123 401 -116 c 0
 401 -112 401 -106 403 -103 c 1
 403 -134 l 1xc4
503 -84 m 1
 517 -87 l 1
 503 -87 l 1
 503 -84 l 1
EndSplineSet
EndChar

StartChar: s
Encoding: 84 115 44
Width: 986
VWidth: 2308
Flags: W
HStem: 656 23<873 913> 1492 20G<382 492.545 530.5 647.5>
VStem: 117 19<192 204.166> 423 19<284 309>
LayerCount: 2
Fore
SplineSet
518 842 m 1
 533 842 l 1
 513 865 l 1
 513 842 l 1
 478 865 l 1
 442 817 l 1
 442 770 l 2
 442 717 468 690 494 656 c 1
 494 638 l 1
 513 656 l 1
 732 656 831 478 831 238 c 1
 813 238 l 1
 813 154 789 144 752 77 c 1
 752 34 694 2 694 -86 c 1
 675 -73 l 1
 675 -86 l 1
 671 -82 643 -63 638 -63 c 0
 614 -63 592 -86 567 -86 c 1
 567 -63 l 1
 513 -63 l 1
 513 -86 l 1
 494 -86 l 1
 478 -63 l 1
 478 -86 l 1
 404 -86 l 1
 404 -111 384 -113 367 -113 c 1
 314 -109 l 1
 236 -16 l 1
 236 31 181 104 157 142 c 1
 157 192 l 1
 140 205 l 1
 136 192 l 1
 117 192 l 1
 117 221 157 228 157 261 c 1
 182 261 214 266 236 284 c 1
 423 284 l 1
 423 309 l 1
 442 309 l 1
 442 238 l 1
 460 217 l 1
 442 192 l 1
 442 171 458 168 471 168 c 0
 473 168 476 168 478 168 c 1
 478 150 486 144 500 144 c 2
 533 146 l 1
 567 217 l 1
 567 261 l 1
 549 284 l 1
 549 355 l 1
 533 332 l 1
 513 355 l 1
 469 355 429 377 387 377 c 1
 379 389 365 398 352 399 c 1
 352 424 l 1
 333 424 l 1
 314 399 l 1
 246 436 159 492 117 564 c 1
 117 640 57 723 57 817 c 2
 57 1018 l 2
 57 1273 286 1512 478 1512 c 1
 494 1490 l 1
 500 1494 528 1512 533 1512 c 0
 762 1512 824 1375 852 1375 c 1
 852 1334 913 1342 913 1304 c 1
 931 1292 955 1247 955 1221 c 0
 955 1217 954 1212 954 1211 c 1
 933 1211 l 1
 892 702 l 1
 873 679 l 1
 913 679 l 1
 913 656 l 1
 831 656 l 1
 813 679 l 1
 813 702 l 1
 802 692 785 683 771 679 c 1
 732 726 l 1
 732 702 l 1
 604 702 l 1
 582 731 571 765 549 795 c 1
 567 817 l 1
 523 817 544 830 518 842 c 1
EndSplineSet
EndChar

StartChar: t
Encoding: 85 116 45
Width: 1399
VWidth: 2308
Flags: W
HStem: 1495 20G<436.5 971.5> 1495 20G<436.5 971.5>
VStem: 255 40<748 769.098> 583 342<259.251 472 493 541> 604 303<195.939 403.61> 623 277<-154 191.574> 783 41<-247.237 -201> 884 21<-270 -201>
LayerCount: 2
Fore
SplineSet
643 -176 m 1xa3
 623 -154 l 1xa4
 625 -68 l 2
 625 -26 619 17 604 55 c 1xa8
 623 31 l 1
 623 195 l 1xa4
 604 195 l 1xa8
 604 286 583 361 583 452 c 2
 583 472 l 1
 569 488 l 1
 583 493 l 1
 583 541 l 1
 566 564 l 1
 583 632 l 1xb0
 570 651 565 678 565 706 c 0
 565 714 564 719 566 726 c 1
 550 746 547 776 547 801 c 2
 547 835 l 1
 533 803 354 768 313 748 c 1
 295 773 l 1
 295 748 l 1
 255 704 l 1
 255 924 207 1277 35 1419 c 1
 93 1419 148 1435 196 1468 c 1
 207 1466 218 1466 229 1466 c 0
 314 1466 397 1515 476 1515 c 2
 905 1515 l 2
 1038 1515 1185 1468 1328 1443 c 1
 1328 1425 1216 1219 1207 1212 c 1
 1189 1212 l 1
 1189 1188 l 1
 1207 1188 l 1
 1207 1041 1185 894 1168 748 c 1
 1148 748 l 1
 1108 795 l 1
 1090 791 1075 789 1060 789 c 0
 1012 789 970 811 923 842 c 1
 905 842 l 1
 923 773 l 1
 905 726 l 1xa1
 921 707 925 642 925 582 c 0xb0
 925 536 923 491 923 472 c 1
 919 474 919 477 918 477 c 0
 916 477 914 474 914 470 c 0
 914 457 927 418 927 406 c 0
 927 355 907 305 907 257 c 0xa8
 907 237 910 215 923 195 c 1
 905 122 900 43 900 -36 c 0xa4
 900 -115 905 -196 905 -270 c 1
 884 -294 l 1
 884 -201 l 1
 824 -201 l 1
 824 -248 l 1
 803 -248 l 1
 787 -232 783 -198 783 -176 c 1
 643 -176 l 1xa3
EndSplineSet
EndChar

StartChar: u
Encoding: 86 117 46
Width: 1451
VWidth: 2308
Flags: W
HStem: 103 150<690.052 760> 1485 20G<337.5 392 394.478 670>
VStem: 291 361<440.903 567.676 578 762> 779 0<29 48> 833 345<441.036 578 647 696>
LayerCount: 2
Fore
SplineSet
289 526 m 1
 286.655552496 549.879595962 292.241544903 561.160360298 306 568 c 1
 291 578 l 1
 291 600 l 2
 291 766 239 945 215 1112 c 1
 202 1112 l 1
 215 1133 l 1
 172 1184 176 1255 176 1320 c 1
 103 1405 116 1436 -4 1436 c 1
 110 1462 283 1464 392 1505 c 1
 392 1482 l 1
 411 1505 l 1
 670 1505 l 1
 652 1482 l 1
 652 1411 l 1
 632 1389 l 2
 633 1390 636 1390 640 1390 c 0
 647 1390 656 1383 656 1375 c 0
 656 1371 654 1369 652 1367 c 2
 632 1342 l 1
 645 1322 654 1298 654 1270 c 0
 654 1247 647 1222 632 1204 c 1
 667 1163 675 1032 675 918 c 0
 675 851 673 793 670 762 c 1
 652 762 l 1
 652 600 l 2
 652 530 689 448 689 389 c 0
 689 367 687 344 687 324 c 0
 687 268 717 253 760 253 c 1
 797 278 l 1
 797 300 l 1
 815 322 l 1
 797 346 l 1
 837 401 833 508 833 578 c 1
 841 584 l 1
 815 625 l 1
 833 647 l 1
 833 696 l 1
 850 696 l 1
 850 849 870 1005 870 1158 c 1
 850 1180 l 1
 850 1204 l 1
 870 1204 l 1
 873 1208 874 1212 874 1214 c 0
 874 1226 843 1225 843 1238 c 0
 843 1241 846 1243 850 1250 c 1
 833 1270 l 1
 835 1270 834 1269 836 1269 c 0
 842 1269 850 1280 850 1286 c 0
 850 1288 848 1290 846 1291 c 1
 866 1311 871 1367 871 1411 c 0
 871 1429 871 1446 870 1459 c 1
 850 1482 l 1
 959 1482 l 2
 1023 1482 1082 1462 1140 1436 c 1
 1157 1459 l 1
 1263 1459 1357 1367 1471 1367 c 1
 1408 1330 1357 1281 1309 1226 c 1
 1329 1207 l 1
 1325 1207 l 2
 1316 1207 1306 1197 1306 1186 c 0
 1306 1184 1307 1181 1309 1180 c 2
 1331 1158 l 1
 1309 1158 l 1
 1211 963 1178 740 1178 517 c 0
 1178 491 1169 462 1157 440 c 1
 1157 394 l 1
 1140 394 l 1
 1142 365 l 2
 1142 351 1140 322 1122 322 c 1
 1140 278 l 1
 1104 185 l 2
 1105 187 1106 189 1110 189 c 0
 1116 189 1125 178 1125 170 c 0
 1125 166 1124 164 1122 162 c 1
 1104 185 l 1
 1085 138 l 1
 1104 116 l 1
 1085 116 l 1
 1048 46 l 1
 1048 23 l 1
 1042 21 1033 21 1025 21 c 0
 995 21 963 31 941 46 c 1
 936 33 909 -24 886 -26 c 1
 883 -17 870 10 870 19 c 0
 870 21 904 21 904 23 c 1
 850 46 l 1
 797 0 l 1
 797 31 l 1
 797 31 793 48 779 48 c 1
 779 29 l 1
 775 65 763 103 705 103 c 1
 699 94 689 89 679 89 c 0
 675 89 673 89 670 91 c 1
 673 51 l 1
 673 35 674 -24 652 -24 c 1
 645 0 632 31 612 46 c 1
 605 46 599 46 595 44 c 1
 612 26 l 1
 571 -7 l 1
 533 16 l 1
 533 34 534 67 411 67 c 1
 411 85 354 342 352 346 c 1
 350 344 346 342 345 342 c 0
 337 342 328 353 328 361 c 0
 328 363 330 368 332 370 c 1
 311 394 l 1
 332 440 l 1
 311 440 l 1
 295 459 289 495 289 526 c 1
EndSplineSet
EndChar

StartChar: v
Encoding: 87 118 47
Width: 1319
VWidth: 2308
Flags: W
HStem: 1505 22<559 576> 1507 20G<831.636 848>
VStem: 596 35<-140 -116>
LayerCount: 2
Fore
SplineSet
649 -94 m 1xa0
 631 -116 l 1
 631 -140 l 1
 596 -140 l 1
 596 -116 l 1
 578 -116 573 -70 573 -24 c 0
 573 8 574 36 576 46 c 1
 517 87 486 221 474 278 c 1
 455 253 l 1
 453 257 453 260 453 263 c 0
 453 284 465 309 474 322 c 1
 455 322 l 1
 455 346 l 1
 437 370 l 1
 437 416 l 1
 365 479 285 1063 241 1204 c 1
 207 1204 l 1
 221 1226 l 1
 203 1329 142 1428 94 1429 c 1
 94 1452 l 1
 -6 1452 l 1
 182 1488 364 1505 542 1505 c 1xa0
 542 1527 l 1x60
 576 1527 l 1
 598 1505 l 1
 559 1505 l 1
 559 1436 l 1
 576 1411 l 1
 576 1296 l 1
 596 1296 l 1
 576 1273 l 1
 582 1261 596 1231 596 1212 c 2
 596 1204 l 1
 613 1181 616 1147 616 1112 c 0
 616 1079 613 1044 613 1018 c 0
 613 996 639 875 649 855 c 1
 636 872 l 1
 674 805 634 500 686 444 c 1
 726 577 718 779 740 926 c 1
 722 949 l 1
 740 974 l 1
 740 1051 738 1129 757 1204 c 1
 755 1202 753 1201 751 1201 c 0
 744 1201 738 1211 738 1219 c 0
 738 1250 795 1365 795 1419 c 0
 795 1426 795 1432 793 1436 c 1
 811 1459 l 1
 811 1505 l 1
 830 1505 l 1xa0
 848 1527 l 1x60
 848 1505 l 1
 1007 1505 1164 1472 1324 1472 c 1
 1243 1428 l 1
 1142 1359 1042 1051 1042 878 c 1
 1024 878 l 1
 1024 801 958 493 933 440 c 1
 951 440 l 1
 951 416 l 1
 933 394 l 1
 933 337 910 251 880 207 c 1
 880 151 863 91 863 34 c 1
 830 5 830 -22 830 -48 c 1
 811 -70 l 2
 809 -72 807 -76 805 -76 c 0
 799 -76 790 -65 790 -56 c 0
 790 -55 792 -50 793 -48 c 1
 757 -48 l 1
 757 -68 754 -100 740 -116 c 1
 686 -116 l 1
 667 -94 l 1
 649 -94 l 1xa0
EndSplineSet
EndChar

StartChar: w
Encoding: 88 119 48
Width: 1443
VWidth: 2308
Flags: W
HStem: 1164 26<212.897 235.859> 1490 20G<655 815 982.182 1022.26>
VStem: 273 255<1029.44 1141.67> 329 35<1464 1488> 634 181<1327 1461.84> 655 160<1329.16 1464> 834 225<30.3352 122 132 189.93> 834 40<3 29>
LayerCount: 2
Fore
SplineSet
707 75 m 1xc5
 707 53 l 1
 671 53 l 1
 671 3 l 1
 618 75 l 1
 599 29 l 1
 599 53 l 1
 581 29 l 1
 575 35 400 647 400 724 c 1
 348 815 l 1
 348 839 l 1
 309 886 l 1
 300 942 273 1056 273 1122 c 0xe5
 273 1128 273 1135 275 1142 c 1
 241 1142 l 1
 256 1164 l 1
 215 1164 l 1
 214 1166 212 1169 212 1172 c 0
 212 1181 221 1190 228 1190 c 0
 230 1190 233 1188 236 1186 c 1
 236 1240 164 1327 115 1327 c 1
 103 1349 44 1395 13 1395 c 0
 11 1395 9 1395 7 1395 c 1
 114 1439 224 1464 329 1464 c 1
 329 1488 l 1
 364 1488 l 1
 364 1464 l 1xd0
 382 1464 l 2
 386 1464 414 1484 419 1488 c 1
 435 1468 455 1464 477 1464 c 2
 490 1464 l 1
 473 1488 l 1
 490 1488 l 1
 508 1464 l 1
 490 1441 l 1
 503 1421 510 1383 510 1352 c 0
 510 1342 510 1335 508 1327 c 1
 528 1301 l 1
 528 1186 l 1
 553 1150 575 993 599 931 c 1
 596 962 594 992 594 1022 c 0
 594 1107 601 1202 634 1280 c 1
 618 1301 l 1
 618 1327 l 1
 634 1327 l 1xe8
 634 1373 655 1418 655 1464 c 1
 671 1488 l 1
 655 1510 l 1
 815 1510 l 1
 815 1458 837 1336 870 1301 c 1
 870 1232 l 1
 888 1211 l 1
 907 1211 l 1
 888 1186 l 1
 902 1150 903 1101 924 1071 c 1
 924 1031 l 1
 979 1232 l 1
 959 1257 l 1
 979 1280 l 1
 975 1286 1001 1354 999 1387 c 2
 996 1464 l 1
 979 1488 l 1
 1014 1510 l 1
 1033 1464 l 1
 1051 1464 l 2
 1057 1464 1096 1484 1105 1488 c 1
 1122 1464 l 1
 1233 1464 1355 1418 1472 1373 c 1
 1416 1373 1346 1352 1311 1301 c 1
 1311 1257 l 1
 1270 1211 l 1
 1291 1211 l 1
 1270 1186 l 1
 1285 1186 l 1
 1237 1123 1126 864 1126 719 c 0
 1126 694 1132 668 1141 653 c 1
 1122 632 l 1
 1105 632 l 1
 1105 531 1107 431 1107 330 c 1
 1091 301 l 1
 1091 306 l 1
 1061 269 1059 219 1059 168 c 2
 1059 98 l 2xc6
 1059 63 1059 3 1034 3 c 1
 1014 -18 l 1
 1012 20 902 29 874 29 c 1
 874 3 l 1
 853 -18 l 1
 834 3 l 1xc1
 834 122 l 1xc2
 848 132 l 1
 848 156 821 168 815 191 c 1
 834 214 l 1
 815 238 l 1
 815 310 801 452 780 515 c 1
 762 416 746 324 746 223 c 0
 746 197 737 166 726 144 c 1
 726 100 l 1
 744 100 l 1
 726 53 l 1
 707 75 l 1xc5
6 1395 m 1
 7 1395 l 1
 6 1395 l 1
EndSplineSet
EndChar

StartChar: x
Encoding: 89 120 49
Width: 1228
VWidth: 2308
Flags: W
HStem: 513 23<774 792> 617 11<430 448> 1416 23<2.28458 96.0558> 1462 45<702 715.502> 1510 20G<474 485 682 702>
VStem: 377 19<-113 -91> 882 36<-91 -58.64>
LayerCount: 2
Fore
SplineSet
430 766 m 1
 430 813 l 2
 430 868 412 921 412 975 c 1
 369 1044 363 1128 304 1184 c 1
 304 1286 157 1365 90 1416 c 1
 69 1416 l 2
 43 1416 11 1418 -9 1439 c 1
 99 1439 203 1484 304 1484 c 1
 304 1507 l 1
 394 1503 l 2
 423 1501 463 1502 485 1530 c 1
 485 1507 l 1
 470 1507 l 1
 521 1484 l 1
 538 1507 l 1
 538 1484 l 1
 611 1416 l 1
 576 1416 l 1
 576 1370 l 1
 590 1350 594 1330 594 1308 c 0
 594 1298 592 1286 592 1275 c 1
 607 1250 623 1219 631 1188 c 1
 645 1212 719 1408 719 1459 c 0
 719 1460 719 1460 719 1462 c 1
 702 1462 l 1
 702 1484 l 1
 682 1484 l 1
 682 1507 l 1
 702 1518 l 1
 702 1507 l 1
 784 1507 1175 1445 1229 1390 c 1
 1244 1390 l 1
 1106 1349 963 1283 899 1137 c 1
 918 1137 l 1
 918 1113 l 1
 899 1137 l 1
 828 973 863 785 774 628 c 1
 792 605 l 1
 792 558 l 1
 774 558 l 1
 774 536 l 1
 792 536 l 1
 792 513 l 1
 774 513 l 1
 774 488 l 2
 774 411 809 339 809 271 c 0
 809 267 809 260 809 257 c 1
 882 166 876 -6 918 -113 c 1
 899 -113 l 1
 882 -91 l 1
 882 -66 l 1
 861 -43 833 -45 809 -45 c 1
 792 -20 l 1
 736 -20 l 1
 719 -45 l 1
 665 -45 l 1
 665 67 649 178 611 280 c 1
 611 187 l 1
 610 189 l 1
 583 189 574 137 574 81 c 0
 574 21 584 -46 592 -66 c 1
 556 -20 l 1
 538 -20 l 1
 538 -48 l 1
 503 -45 l 1
 485 -66 l 1
 467 -66 l 1
 448 -45 l 1
 412 -91 l 1
 396 -91 l 1
 396 -113 l 1
 377 -113 l 1
 377 -66 l 1
 357 -91 l 1
 340 -66 l 1
 340 -20 l 1
 377 48 l 1
 377 79 391 110 404 135 c 1
 396 142 l 1
 396 164 l 1
 448 233 413 348 448 398 c 1
 430 398 l 1
 448 419 l 1
 448 464 l 1
 485 536 l 1
 485 568 471 599 448 618 c 1
 444 617 l 1
 430 628 l 1
 448 628 l 1
 436 687 421 746 412 806 c 1
 430 766 l 1
EndSplineSet
EndChar

StartChar: y
Encoding: 90 121 50
Width: 1239
VWidth: 2308
Flags: W
HStem: 1219 3<310.281 329> 1485 20G<273 282 329 496 761 776.2 796 819> 1505 20G<761 776.2>
VStem: 534 272<42.593 361.391 365 714.213> 544 280<136.656 365> 995 1<1176 1188> 996 2<1188.09 1197> 1058 0<1429 1452>
LayerCount: 2
Fore
SplineSet
422 1079 m 1xa9
 348.949811189 1082.95143249 327.436577665 1173.98769319 329 1245 c 1
 233 1298 147 1380 54 1454 c 1
 50 1454 l 1
 54 1464 l 1
 74 1454 l 1
 128.267218804 1488.39240978 216.370329917 1447.55107482 256 1500 c 1
 273 1500 l 1
 275 1505 l 1
 289 1489 308 1478 329 1476 c 1
 329 1500 l 1
 444 1505 l 1xc9
 548 1505 603 1241 636 1130 c 1
 663 1209 693 1296 742 1360 c 1
 719 1393 l 1
 725 1409 l 1
 761 1409 761 1495 761 1525 c 1
 780 1500 l 1
 796 1498 l 1
 815 1518 l 1
 823 1456 1009 1457 1058 1429 c 1
 1058 1452 l 1
 1068 1418 1193 1385 1225 1385 c 1
 1105 1379 1086 1269 1037 1269 c 1
 1024 1259 1011 1240 1009 1221 c 1
 996 1197 l 1
 978 1199 l 1
 975 1132 913 1108 888 1060 c 0
 847 981 841 521 806 365 c 1xb3
 824 365 l 1xa9
 824 288 806 211 806 133 c 1
 783 108 778 75 778 41 c 0
 778 6 783 -29 783 -60 c 1
 764 -97 l 1
 752 -84 743 -60 729 -48 c 1
 688 -79 585 -79 585 -145 c 1
 544 -97 534 13 534 125 c 0xb1
 534 243 544 367 544 434 c 0
 544 543 419 964 419 1060 c 0
 419 1069 420 1075 422 1079 c 1xa9
14 1429 m 1
 22 1438 31 1450 42 1452 c 1
 31 1443 29 1429 14 1429 c 1
329 1222 m 1
 329 1219 l 1
 322 1219 316 1221 310 1222 c 1
 329 1222 l 1
996 1188 m 1x85
 996 1176 l 1x83
 995 1176 995 1180 995 1181 c 2
 996 1188 l 1x85
996 1197 m 1
 998 1197 998 1194 998 1191 c 1x83
 998 1191 998 1190 996 1188 c 1x85
 996 1197 l 1
50 1454 m 1
 50 1452 48 1452 46 1452 c 2
 46 1452 49 1452 50 1454 c 1
EndSplineSet
EndChar

StartChar: z
Encoding: 91 122 51
Width: 1274
VWidth: 2308
Flags: W
HStem: -60 321<650.406 849> -38 299<650.204 847.222> 1495 20G<329.5 523 540 884> 1495 20G<329.5 523 540 884>
VStem: 846 36<-131.882 -60.0517>
LayerCount: 2
Fore
SplineSet
306 704 m 1x48
 324 726 l 1
 306 726 l 1
 306 707 l 1
 273 817 268 916 247 1026 c 0
 218 1178 98 1300 65 1443 c 1
 178 1443 280 1515 379 1515 c 2
 523 1515 l 1
 523 1490 l 1
 540 1490 l 1
 540 1515 l 1
 884 1515 l 1
 884 1490 l 1
 940 1490 l 2
 985 1490 1032 1488 1078 1468 c 1
 1078 1443 l 1
 1097 1443 l 1
 1118 1468 l 1
 1179 1443 l 1
 1179 1419 l 1
 1197 1419 l 1
 1197 1275 1057 1253 1057 957 c 1
 1048 942 993 820 978 820 c 1
 958 842 l 1
 958 795 l 1
 938 773 l 1
 902 773 l 1
 902 744 894 704 865 704 c 1
 865 679 l 1
 849 657 l 1
 831 657 l 1
 831 592 794 594 794 558 c 1
 776 564 l 1
 776 493 l 1
 758 493 l 1
 758 472 l 1
 739 472 l 1
 739 426 l 1
 721 426 l 1
 721 402 l 1
 704 402 l 1
 721 377 l 1
 708 377 702 360 702 346 c 0
 702 339 702 336 704 332 c 1
 685 286 l 1
 668 310 l 1
 669 284 l 2
 669 269 663 261 650 261 c 1x68
 650 240 l 1
 654 243 681 261 685 261 c 2
 849 261 l 2
 880 261 905 240 938 240 c 1
 938 217 l 1
 958 217 l 1
 938 195 l 1
 958 170 l 1
 938 170 l 1
 920 146 l 1
 920 100 l 1
 902 100 l 1
 920 79 l 1
 920 8 l 2
 920 -22 882 -82 882 -120 c 0
 882 -124 882 -128 884 -132 c 1
 865 -132 l 2
 849 -132 846 -115 846 -99 c 0
 846 -86 847 -70 849 -60 c 1x88
 811 -60 778 -38 739 -38 c 2
 613 -38 l 1x48
 631 -60 l 1
 613 -60 l 2x88
 598 -60 595 -55 595 -45 c 0
 595 -38 596 -28 596 -20 c 0
 596 5 575 8 558 8 c 0
 550 8 530 -18 502 -18 c 0
 497 -18 491 -17 487 -16 c 1
 469 -38 l 1
 487 -38 l 1x48
 484 -60 l 1x88
 473 -56 l 1
 433 -86 l 1
 416 -71 414 -36 414 -16 c 1
 411 -18 l 1
 379 31 l 1
 379 123 l 1
 402 161 424 213 433 261 c 1
 450 261 l 1
 438 286 l 1
 450 355 l 1
 469 355 l 1
 469 377 l 1
 487 377 l 1
 485 387 484 400 484 416 c 0
 484 452 491 498 506 517 c 1
 523 517 l 1
 523 610 l 1
 539 630 556 704 579 704 c 1
 577 710 577 717 577 724 c 0
 577 776 607 822 645 842 c 1
 613 842 l 2
 573 842 359 786 359 726 c 1
 343 726 l 1
 306 685 l 1
 306 704 l 1x48
EndSplineSet
EndChar

StartChar: D
Encoding: 37 68 52
Width: 1071
VWidth: 2308
Flags: W
HStem: -195 21G<662.5 679> 1418 3<59.0007 63.9063> 1418 1<62.1555 64>
VStem: 534 91<-79 -55> 552 37<-264 -129.075> 637 39<-186.193 -81.7097> 697 210<257.75 407.106>
LayerCount: 2
Fore
SplineSet
589 -310 m 1xce
 552 -264 l 1xce
 552 -150 537 -46 534 62 c 1
 267 62 410 -135 318 -241 c 1
 318 -152 282 -53 280 36 c 1
 295 36 l 1
 287 61 278 85 278 110 c 0
 278 133 280 174 301 176 c 1
 258 261 208 790 201 918 c 1
 188 1108 148 1186 81 1356 c 1
 101 1356 l 1
 101 1380 l 2
 101 1387 85 1419 81 1428 c 1
 59 1421 l 1
 66 1428 l 1
 39 1428 l 1
 293 1439 518 1497 752 1497 c 0
 859 1497 841 1402 887 1402 c 1
 893 1356 1007 1320 1013 1273 c 1
 991 1241 l 1
 1031 1232 1033 1123 1033 1089 c 0
 1033 799 907 497 907 251 c 0
 907 67 848 87 797 -33 c 1
 778 -8 l 1
 758 -33 l 1
 769 -33 l 1
 717 -55 l 1
 702 -45 l 1
 682 -48 676 -111 676 -155 c 0
 676 -173 679 -186 679 -195 c 1
 646 -195 637 -173 637 -138 c 0
 637 -120 640 -96 641 -81 c 1
 625 -55 l 1
 625 -79 l 1xd6
 612 -84 l 1
 603 -159 599 -234 589 -310 c 1xce
589 199 m 1
 589 245 l 1x8e
 681 270 697 241 697 340 c 0
 697 365 700 389 717 408 c 1
 717 454 l 1
 734 454 735 477 735 497 c 2
 735 526 l 1
 758 526 l 1
 758 548 l 1
 735 526 l 1
 735 570 l 1
 746 570 l 1
 737 577 735 600 735 625 c 0
 735 643 737 661 737 669 c 0
 733 763 717 847 625 847 c 2x96
 589 847 l 1
 589 824 l 1
 570 824 l 1
 570 803 l 1
 552 779 l 1
 552 733 l 1x8e
 534 707 l 1
 534 570 l 1
 516 570 l 1
 516 558 524 548 534 548 c 1
 534 477 l 1x96
 552 454 l 1x8e
 534 454 l 1
 534 315 l 1x96
 551 315 560 259 570 245 c 1
 570 199 l 1
 589 199 l 1
552 779 m 1
 534 803 l 1x96
 534 783 534 779 552 779 c 1
62 1418 m 0xc6
 60 1419 59 1419 59 1421 c 1xc6
 60 1421 62 1419 64 1419 c 1xa6
 64 1418 64 1418 62 1418 c 0xc6
EndSplineSet
EndChar

StartChar: A
Encoding: 34 65 53
Width: 1013
VWidth: 2308
Flags: W
HStem: 65 24<444 446>
VStem: 210 242<-1.6624 65 396.947 505 528 528 551 665.129> 230 214<15.896 65 552.918 667> 230 162<-93.9132 -7> 370 22<-251.001 -109> 522 3<-213 -125> 525 220<484.4 666.709 696 714> 544 39<-406.553 -341.359> 544 19<-443 -360.523> 546 157<19 85.6742> 762 4<483 541>
LayerCount: 2
Fore
SplineSet
525 -213 m 1x8460
 522 -145 l 2
 522 -125 535 -89 544 -73 c 1x84a0
 525 -51 l 1x8220
 546 13 l 1
 546 41 491 110 461 110 c 1
 432 89 l 1
 446 89 l 1
 452 65 l 1xc060
 444 65 l 1xa020
 432 -28 l 1
 408 -28 420 -7 392 -7 c 1x9020
 392 -274 l 1
 370 -219 370 -168 370 -109 c 1x8820
 366 -152 351 -166 312 -166 c 1
 312 -122 l 1
 290 -97 l 1
 272 -122 l 1
 294 -186 l 1
 290 -188 l 1
 280 -286 l 1
 272 -284 l 1
 235 -217 230 -125 230 -43 c 2x9020
 230 46 l 2xa020
 230 108 196 191 196 263 c 0
 196 284 205 336 226 342 c 1
 210 342 l 1
 234 396 l 1
 232 416 208 449 208 460 c 2
 210 528 l 1xc020
 230 528 l 1x9020
 210 551 l 1xc020
 210 592 230 627 230 667 c 1xa020
 210 690 l 1
 226 706 232 738 232 760 c 0
 232 832 210 897 210 969 c 0xc020
 210 1002 230 1030 230 1060 c 0x9020
 230 1135 210 1214 210 1291 c 1xc020
 230 1291 l 1
 230 1316 l 1
 202 1316 176 1356 142 1362 c 1
 152 1362 l 1
 120 1397 73 1416 32 1431 c 1
 89 1474 348 1478 509 1478 c 0
 687 1478 807 1460 964 1431 c 1
 709 1286 812 1038 753 785 c 1
 762 803 l 1
 758 743 745 680 745 620 c 1
 750 646 762 675 762 704 c 2
 762 640 l 2
 762 592 751 580 751 549 c 0
 751 534 754 513 762 483 c 1
 762 541 l 1
 766 483 l 2
 766 472 749 423 745 411 c 1x9220
 758 382 762 353 762 320 c 0
 762 282 741 228 741 178 c 0
 741 135 703 70 703 19 c 1
 723 19 l 1
 678 -85 692 -304 644 -304 c 1
 644 -329 l 1
 627 -331 l 1
 604 -294 l 1
 604 -284 l 1
 629 -254 625 -236 625 -198 c 1
 644 -166 l 1
 625 -145 l 1
 604 -175 l 1
 587 -96 l 1
 526 -152 555 -125 525 -213 c 1x8460
432 505 m 1
 452 505 l 1
 452 481 421 418 412 389 c 1
 487 389 l 2
 499 389 535 389 543 377 c 1
 537 450 525 523 525 597 c 1xc220
 528 597 l 1
 523 599 522 615 522 627 c 0x8420
 522 642 523 661 525 667 c 1
 505 690 l 1
 525 696 l 1
 525 714 l 1
 523 714 520 712 517 712 c 0
 506 712 505 748 505 777 c 2
 505 813 l 1
 497 714 452 627 452 528 c 1xc220
 432 529 l 1
 432 505 l 1
583 -329 m 1x8120
 571.706238829 -351.783663533 559.417296552 -405.511464334 563 -443 c 1
 544 -443 l 1x80a0
 544 -399 l 2
 544 -358 576 -308 583 -265 c 1
 583 -329 l 1x8120
745 770 m 1x8220
 745 760 l 1
 754 760 l 2
 750 760 747 766 745 770 c 1x8220
525 13 m 2
 525 19 l 1
 528 19 l 2
 526 19 525 14 525 13 c 2
EndSplineSet
EndChar

StartChar: B
Encoding: 35 66 54
Width: 1059
VWidth: 2308
Flags: W
HStem: 1497 20G<501 589>
VStem: 240 298<661 685 706 823.948> 277 244<152 268> 461 41<-74.6398 -35.7555> 648 201<117.03 268 269.056 355.594>
LayerCount: 2
Fore
SplineSet
520 -66 m 1xc8
 518 -65 l 1
 502 -35 l 1
 502 -48 498 -81 461 -89 c 1x98
 458 -46 444 13 400 13 c 0
 363 13 347 -7 339 -35 c 1
 321 -66 l 1
 284 -53 277 -12 277 33 c 0xa8
 277 130 280 223 280 268 c 1
 261 268 256 309 256 355 c 0
 256 387 258 419 260 429 c 1
 242 429 236 501 236 570 c 0
 236 628 240 687 240 706 c 0
 240 801 229 995 199 1079 c 1
 240 1101 l 1
 240 1123 l 1xc8
 199 1101 l 1
 199 1123 l 1
 221 1123 l 1
 221 1232 105 1373 39 1449 c 1
 74 1445 l 1
 81 1454 481 1517 521 1517 c 0xa8
 657 1517 989 1520 989 1286 c 0
 989 1092 882 587 884 587 c 1
 878 587 871 594 869 600 c 1
 869 540 834 521 788 498 c 1
 854 498 869 416 869 360 c 0
 869 266 849 173 849 81 c 1
 829 48 792 -63 750 -63 c 2
 745 -63 l 1
 751 -70 l 1
 734 -77 716 -84 697 -84 c 0
 694 -84 690 -81 687 -81 c 1
 687 -58 l 1
 672 -77 l 1
 640 -63 608 -35 576 -35 c 1
 562 -50 540 -80 538 -96 c 1
 528 -96 521 -84 520 -66 c 1xc8
648 360 m 1
 619 396 575 361 556 406 c 1
 556 360 521 422 521 337 c 1xa8
 502 337 l 1
 502 312 l 1x98
 520 312 522 282 522 253 c 0
 522 230 521 207 521 197 c 2
 521 152 l 1xa8
 573 152 585 154 629 128 c 1
 622 128 l 1
 629 116 l 1
 629 138 636 159 648 174 c 1
 648 255 l 2
 648 266 651 268 657 268 c 2
 668 268 l 1
 668 291 646 284 646 329 c 0
 646 337 646 347 648 360 c 1
629 623 m 1
 629 637 l 1
 650 632 l 1
 644 620 l 1
 648 615 l 1
 648 649 669 609 669 679 c 0
 669 710 664 742 664 773 c 0
 664 781 669 793 676 796 c 1
 668 803 666 818 666 832 c 0
 666 835 668 842 668 845 c 1
 633 885 594 851 556 892 c 1
 556 868 l 1
 521 868 l 1xa8
 538 845 l 1xc8
 521 845 l 1
 521 837 l 2xa8
 521 831 522 825 524 822 c 1
 528 824 l 1
 538 824 538 752 538 740 c 2
 538 706 l 1xc8
 521 685 l 1xa8
 538 685 l 1
 538 661 l 1xc8
 543 661 623 635 629 623 c 1
EndSplineSet
EndChar

StartChar: C
Encoding: 36 67 55
Width: 1033
VWidth: 2308
Flags: W
HStem: -216 20G<537 540> -196 21G<530.5 537> 1497 20G<435 721>
VStem: 396 36<-195 -188 -172.672 -58> 445 4<-190 -166> 449 2<-217 -190.376> 520 56<-185.321 -103.547> 520 17<-195.688 -186.217> 576 146<-79.812 -12.0403> 613 39<-219 -94.4705>
LayerCount: 2
Fore
SplineSet
886 360 m 1xb440
 881 381 l 1
 901 360 l 1
 919 360 l 1
 901 334 l 1
 901 290 l 1
 883 290 877 272 877 251 c 0
 877 236 881 217 881 207 c 1
 860 174 l 1
 860 128 l 1
 840 103 l 1
 820 103 l 1
 820 82 818 48 802 34 c 1
 779 57 l 2
 781 55 781 52 781 48 c 0
 781 40 774 31 766 31 c 0
 765 31 763 33 761 34 c 1
 761 -22 748 -2 722 -36 c 1
 722 -58 l 1xb080
 700 -86 674 -81 648 -81 c 1
 652 -161 l 2
 654 -189 646 -221 630 -244 c 1
 613 -219 l 1xb040
 613 -118 576 -65 576 -12 c 1
 559 -12 l 1
 559 -93 576 -160 576 -236 c 1
 573 -228 562 -186 559 -186 c 1
 557 -185 554 -185 552 -185 c 0
 544 -185 537 -190 537 -196 c 1xb180
 524 -196 520 -178 520 -178 c 1
 520 -152 540 -152 540 -138 c 2
 540 -103 l 1
 527 -87 522 -58 522 -36 c 1
 487 -12 l 1
 469 -36 l 1
 449 -36 l 1xb6
 432 -58 l 1
 432 -152 l 1
 437 -159 441 -166 445 -173 c 1xb8
 432 -188 l 1
 432 -195 l 1
 396 -213 l 1
 396 -103 l 2
 396 -56 359 -48 359 -12 c 1
 287 -12 l 1
 287 13 l 1
 247 13 l 1
 232 31 224 69 224 102 c 0
 224 112 224 120 226 128 c 1
 208 128 l 1
 226 151 l 1
 210 183 192 219 166 243 c 1
 166 266 l 1
 185 290 l 1
 166 312 l 1
 166 314 167 319 167 322 c 0
 167 342 155 368 147 381 c 1
 157 381 l 1
 106 637 l 1
 127 671 l 1
 106 659 l 1
 92 787 57 918 57 1046 c 0
 57 1154 103 1308 185 1377 c 1
 215 1354 l 1
 208 1377 l 1
 226 1400 l 1
 247 1400 l 1
 292 1478 401 1517 469 1517 c 2
 703 1517 l 1
 739 1466 798 1468 840 1423 c 1
 840 1377 l 1
 860 1377 l 1
 860 1400 l 1
 881 1400 l 1
 919 1354 l 1
 901 1332 l 1
 941 1332 937 1261 980 1261 c 1
 980 1170 l 1
 962 1170 l 1
 980 1145 l 1
 980 983 l 2
 980 933 960 659 941 637 c 1
 941 613 l 1
 892 635 877 638 814 638 c 0
 779 638 742 634 730 620 c 1
 717 632 698 638 682 638 c 0
 677 638 672 637 668 637 c 1
 648 613 l 1
 630 637 l 1
 648 659 l 1
 648 683 l 2
 648 727 613 751 613 799 c 1
 595 799 l 1
 578 832 587 868 559 868 c 0
 551 868 546 844 542 844 c 1
 542 844 540 844 540 845 c 2
 522 824 l 1
 487 824 l 1
 481 809 467 783 467 762 c 0
 467 758 467 754 469 752 c 1
 449 752 l 1
 449 727 l 1
 469 727 l 1
 469 613 l 2
 469 572 449 526 449 474 c 0
 449 409 469 340 469 266 c 1
 487 266 l 1
 487 219 l 1
 522 174 l 1
 538 174 l 1
 559 197 578 219 595 243 c 1
 593 245 592 248 592 251 c 0
 592 260 601 271 607 271 c 0
 609 271 611 268 613 266 c 1
 613 334 l 1
 630 360 l 1
 630 406 l 1
 703 406 l 1
 717 404 853 373 886 360 c 1xb440
127 706 m 1
 113 696 106 677 106 659 c 1
 121 677 127 681 127 706 c 1
449 -166 m 1x38
 449 -190 l 1
 445 -173 l 1
 449 -166 l 1x38
451 -217 m 1x34
 449 -201 l 1x34
 449 -190 l 1x38
 451 -198 451 -207 451 -217 c 1x34
540 -204 m 1
 538 -202 537 -198 537 -196 c 2xb1
 540 -204 l 1
EndSplineSet
EndChar

StartChar: one
Encoding: 19 49 56
Width: 751
VWidth: 2308
Flags: W
HStem: -38 46<567 585> 1399 91<612.142 634> 1495 20G<476.5 525 525 560.5> 1495 20G<476.5 525 525 560.5>
VStem: 444 123<38.3489 122.692>
LayerCount: 2
Fore
SplineSet
486 -20 m 1xe8
 446 3 l 1
 444 10 444 18 444 26 c 0
 444 46 447 69 456 82 c 1
 425 55 l 1
 370 55 l 1
 353 19 l 1
 353 6 341 3 333 3 c 1
 316 24 l 1
 306 118 226 1148 208 1186 c 1
 164 1162 113 1147 64 1135 c 1
 45 1181 l 1
 64 1207 l 1
 45 1204 l 1
 18 1204 9 1295 6 1313 c 1
 -15 1313 l 1
 -15 1322 76 1357 87 1360 c 2
 353 1445 l 1
 353 1421 l 1
 373 1495 447 1495 506 1515 c 1
 525 1497 l 1
 545 1515 l 1
 576 1515 608 1510 634 1490 c 1
 634 1399 l 1
 611 1399 l 1
 611 1375 l 1
 634 1375 l 1
 626 1212 l 1
 645 1212 654 1202 666 1188 c 1
 643 1064 639 892 606 773 c 1
 585 773 l 1
 585 748 589 722 606 704 c 1
 606 517 l 1
 571 517 l 1
 587 510 587 483 587 469 c 1
 585 449 l 1
 567 426 l 1
 567 402 l 1
 591 402 589 348 589 332 c 0
 589 245 567 164 567 79 c 0
 567 71 582 39 585 31 c 1
 567 8 l 1
 585 8 l 1
 585 -12 593 -24 606 -38 c 1
 567 -38 l 1
 545 -16 l 1
 525 -16 l 1
 510 8 l 1
 486 -20 l 1xe8
525 13 m 1
 525 24 l 1
 516 14 l 1
 519 14 521 13 525 13 c 1
EndSplineSet
EndChar

StartChar: two
Encoding: 20 50 57
Width: 1179
VWidth: 2308
Flags: W
HStem: 1497 20G<365 631.5>
VStem: 434 38<-109.55 -84> 767 14<-124.232 -8.48236> 857 40<-138 -46> 951 83<-173 -113>
LayerCount: 2
Fore
SplineSet
88 -103 m 1
 77 -70 l 1
 94 -87 l 1
 98 -22 103 -5 125 57 c 1
 119 82 l 1
 119 127 145 179 160 217 c 1
 197 197 l 1
 223 209 l 1
 280 183 l 1
 288 205 l 1
 304 195 l 1
 455 339 l 1
 454 361 l 1
 471 361 l 1
 505 408 l 1
 505 452 l 1
 525 452 l 1
 525 497 l 1
 544 477 l 1
 544 543 l 2
 544 553 528 600 525 613 c 1
 618 727 l 1
 637 727 l 1
 637 752 l 1
 618 752 l 1
 618 754 618 756 618 760 c 0
 618 779 605 811 599 824 c 1
 563 824 l 1
 545 845 l 1
 527 845 l 1
 527 868 l 1
 509 868 l 1
 509 865 511 862 511 858 c 0
 511 837 499 813 492 799 c 1
 472 799 l 1
 472 743 438 735 438 659 c 1
 455 637 l 1
 438 613 l 1
 419 637 l 1
 415 637 408 638 404 638 c 0
 385 638 368 632 356 620 c 1
 344 634 309 638 274 638 c 0
 212 638 199 635 149 613 c 1
 149 637 l 1
 131 657 109 932 109 983 c 2
 109 1145 l 1
 127 1170 l 1
 109 1170 l 1
 109 1261 l 1
 151 1261 147 1332 188 1332 c 1
 170 1354 l 1
 208 1400 l 1
 228 1400 l 1
 228 1377 l 1
 249 1377 l 1
 249 1423 l 1
 291 1468 348 1466 382 1517 c 1
 618 1517 l 2
 645 1517 674 1493 708 1493 c 0
 714 1493 720 1493 726 1495 c 1
 740 1479 761 1472 779 1470 c 1
 834 1400 l 1
 852 1400 l 1
 870 1377 l 1
 862 1354 l 1
 889 1377 l 1
 970 1308 1015 1154 1015 1046 c 0
 1015 918 980 787 965 659 c 1
 946 671 l 1
 965 637 l 1
 935 580 877 391 822 381 c 1
 830 381 l 1
 824 368 812 342 812 322 c 0
 812 319 812 314 814 312 c 1
 795 290 l 1
 802 280 l 1
 870 280 944 255 1016 255 c 0
 1046 255 1059 280 1081 280 c 0
 1090 280 1102 280 1113 280 c 0
 1118 280 1148 298 1153 301 c 1
 1153 255 l 1
 1133 255 l 1
 1133 185 l 1
 1113 185 l 1
 1133 164 l 1
 1104 98 1094 4 1094 -68 c 1
 1072 -68 l 1
 1034 -113 l 1
 1034 -115 1034 -118 1034 -120 c 0
 1034 -144 1009 -209 993 -219 c 1
 953 -173 l 1
 951 -163 951 -150 951 -138 c 0
 951 -114 953 -87 962 -68 c 1
 953 -68 l 1
 912 -22 l 1
 895 -46 l 1
 897 -97 l 2
 897 -120 889 -145 877 -163 c 1
 857 -138 l 1
 857 -36 822 26 822 46 c 1
 787 44 781 -20 781 -76 c 0
 781 -106 784 -134 784 -145 c 1
 778 -101 767 -55 767 -8 c 1
 751 -8 l 1
 730 14 l 1
 730 -22 l 1
 714 -22 l 1
 696 -7 l 1
 690 -8 l 1
 690 -58 l 1
 653 -81 l 1
 653 -58 l 1
 637 -36 l 1
 626 -36 l 1
 604 -55 605 -95 605 -124 c 1
 563 -35 l 1
 563 -38 565 -45 565 -48 c 0
 565 -77 555 -109 545 -130 c 1
 545 -124 l 1
 527 -124 l 1
 509 -77 l 1
 517 -12 l 1
 509 -12 l 1
 509 -46 479 -65 472 -96 c 1
 472 -84 l 1
 463 -96 436 -158 434 -158 c 1
 438 -81 l 1
 436 -81 434 -81 432 -81 c 0
 423 -81 419 -84 411 -84 c 0
 407 -84 400 -83 394 -79 c 1
 387 -99 l 1
 371 -91 l 1
 379 -122 l 1
 374 -125 371 -125 365 -125 c 0
 351 -125 334 -117 325 -113 c 1
 315 -135 l 1
 289 -150 l 1
 253 -132 l 1
 219 -142 l 1
 179 -120 l 1
 144 -130 l 1
 107 -111 l 1
 81 -124 l 1
 88 -103 l 1
EndSplineSet
EndChar

StartChar: three
Encoding: 21 51 58
Width: 1060
VWidth: 2308
Flags: W
HStem: 656 23<100 142> 1492 20G<367 483.5 519.636 557.5>
VStem: 523 20<284 309>
LayerCount: 2
Fore
SplineSet
419 485 m 1
 419 582 l 1
 433 605 l 1
 500 605 l 1
 518 587 l 1
 518 605 l 1
 550 661 571 700 571 770 c 2
 571 817 l 1
 536 865 l 1
 500 842 l 1
 500 865 l 1
 481 842 l 1
 496 842 l 1
 470 830 492 817 445 817 c 1
 463 795 l 1
 443 765 432 731 410 702 c 1
 282 702 l 1
 282 726 l 1
 242 679 l 1
 200 702 l 1
 200 679 l 1
 180 656 l 1
 100 656 l 1
 100 679 l 1
 142 679 l 1
 120 702 l 1
 80 1211 l 1
 60 1211 l 1
 58 1212 58 1217 58 1221 c 0
 58 1247 83 1291 100 1304 c 1
 100 1342 160 1334 160 1375 c 1
 189 1375 253 1512 481 1512 c 0
 486 1512 513 1494 518 1490 c 1
 536 1512 l 1
 579 1512 619 1490 663 1490 c 1
 811 1382 956 1238 956 1018 c 2
 956 817 l 2
 956 723 898 640 898 564 c 1
 874 531 l 1
 884 515 944 389 944 377 c 2
 944 238 l 1
 924 238 l 1
 924 154 900 144 863 77 c 1
 863 34 803 2 803 -86 c 1
 782 -73 l 1
 782 -86 l 1
 776 -82 747 -63 743 -63 c 0
 715 -63 694 -86 669 -86 c 1
 669 -63 l 1
 614 -63 l 1
 614 -86 l 1
 596 -86 l 1
 577 -63 l 1
 577 -86 l 1
 504 -86 l 1
 466 -113 l 1
 414 -109 l 1
 343 -16 l 1
 343 35 290 100 266 142 c 1
 266 192 l 1
 252 205 l 1
 246 192 l 1
 226 192 l 1
 226 221 266 228 266 261 c 1
 292 261 324 269 343 284 c 1
 523 284 l 1
 523 309 l 1
 543 309 l 1
 543 238 l 1
 559 217 l 1
 543 192 l 1
 543 171 560 168 574 168 c 2
 577 168 l 1
 600 146 l 1
 632 146 l 1
 669 217 l 1
 669 261 l 1
 648 284 l 1
 648 406 l 1
 632 383 l 1
 614 406 l 1
 558 406 500 409 443 416 c 1
 449 428 l 1
 441 418 l 1
 419 485 l 1
EndSplineSet
EndChar

StartChar: eight
Encoding: 26 56 59
Width: 941
VWidth: 2308
Flags: W
HStem: -196 21G<402.5 411> -81 4<540 556> 1497 20G<331.5 461.5>
VStem: 216 178<152 311.978 337 360.597> 390 21<-193.84 -106.875> 520 200<117.03 268 269.056 355.594>
LayerCount: 2
Fore
SplineSet
394 1517 m 0xf4
 529 1517 860 1520 860 1286 c 0
 860 1077 754 587 756 587 c 1
 750 587 742 594 740 600 c 1
 740 540 706 521 660 498 c 1
 726 498 740 416 740 360 c 0
 740 266 720 173 720 81 c 1
 700 50 664 -63 622 -63 c 2
 616 -63 l 1
 624 -70 l 1
 606 -77 588 -84 570 -84 c 0
 566 -84 561 -81 558 -81 c 1
 558 -58 l 1
 542 -77 l 1
 513 -63 478 -35 448 -35 c 0
 426 -35 411 -173 411 -196 c 1
 394 -196 390 -165 390 -132 c 0xec
 390 -106 392 -81 394 -70 c 1
 376 -53 l 1
 376 -76 l 1
 356 -76 l 2
 343 -76 327 -68 314 -65 c 1
 318 -58 l 1
 276 -58 236 55 216 87 c 1
 216 182 196 271 196 365 c 0
 196 421 211 505 278 505 c 1
 232 524 196 543 196 605 c 1
 188 594 l 1
 176 596 l 1
 176 638 76 1082 76 1291 c 0
 76 1466 269 1517 394 1517 c 0xf4
520 360 m 1
 492 396 447 361 428 406 c 1
 428 360 394 422 394 337 c 1
 374 337 l 1
 374 312 l 1
 392 312 394 282 394 253 c 0
 394 219.333333333 394 185.666666667 394 152 c 1xf4
 445 152 457 154 501 128 c 1
 494 128 l 1
 501 116 l 1
 501 138 508 159 520 174 c 1
 520 255 l 2
 520 266 523 268 528 268 c 0
 532 268 536 268 540 268 c 1
 540 291 518 284 518 329 c 0
 518 337 518 347 520 360 c 1
501 623 m 1
 501 637 l 1
 522 632 l 1
 516 620 l 1
 520 615 l 1
 520 649 542 609 542 679 c 0
 542 710 536 742 536 773 c 0
 536 781 542 793 548 796 c 1
 540 803 538 818 538 832 c 0
 538 835 540 842 540 845 c 1
 505 885 467 851 428 892 c 1
 428 868 l 1
 394 868 l 1xf4
 411 845 l 1xec
 394 845 l 1
 394 837 l 2xf4
 394 831 394 825 396 822 c 1
 400 824 l 1
 411 824 411 752 411 740 c 2
 411 706 l 1xec
 394 685 l 1xf4
 411 685 l 1
 411 661 l 1xec
 415 661 500 633 501 623 c 1
542 -77 m 1
 556 -81 l 1
 540 -81 l 1
 542 -77 l 1
EndSplineSet
EndChar

StartChar: bracketleft
Encoding: 60 91 60
Width: 841
VWidth: 2308
Flags: W
HStem: 178 50<785 807>
VStem: 120 329<485.845 762> 138 301<786.666 855 858.814 1199> 381 59<-24 -2> 513 36<-48 -24> 586 19<-70 -48>
LayerCount: 2
Fore
SplineSet
726 1750 m 1xcc
 705 1727 l 1
 728 1704 l 1
 768 1704 l 1
 768 1419 l 1
 788 1419 l 1
 777 1409 767 1394 761 1379 c 1
 768 1332 l 1
 672 1349 l 1
 667 1360 l 1
 649 1349 506 1339 466 1336 c 1
 450 1352 l 1
 437 1313 l 1
 453 1291 l 1
 446 1267 l 1
 455 1267 l 1
 426 1229 l 1
 432 1222 442 1221 451 1221 c 2
 458 1221 l 1
 439 1199 l 1xac
 446 880 451 562 449 243 c 1xcc
 460 223 477 219 496 219 c 0
 537 219 575 230 619 230 c 0
 643 230 665 225 684 214 c 1
 689 228 l 1
 829 228 l 1
 807 178 l 1
 785 178 l 1
 805 156 l 1
 785 156 l 1
 777 102 733 63 726 8 c 1
 686 8 l 1
 663 -16 l 1
 682 -38 l 1
 642 -38 l 1
 624 8 l 1
 605 8 l 1
 605 -70 l 1
 586 -70 l 1
 588 -48 l 1
 571 -24 l 1
 551 -24 l 1
 549 -48 l 1
 531 -48 l 2
 517 -48 513 -30 513 -12 c 0
 513 0 515 14 517 23 c 1
 500 46 l 1
 461 46 l 1
 440 23 l 1
 440 -24 l 1
 381 -24 l 1x9c
 383 -2 l 1
 324 -2 l 1
 323 -20 298 -26 282 -26 c 0
 277 -26 273 -24 269 -24 c 1
 273 -33 l 1
 256 -33 l 1
 256 -51 242 -56 228 -56 c 1
 216 -55 l 1
 198 -33 l 1
 131 394 l 1
 151 416 l 1
 133 416 l 1
 114 440 l 1
 136 485 l 1
 116 485 l 1
 118 503 120 523 120 541 c 0xcc
 120 597 110 656 112 710 c 2
 114 762 l 1
 153 762 l 1
 153 783 131 786 114 786 c 1
 124 800 138 827 138 849 c 2
 138 855 l 1xac
 120 855 l 1
 126 936 135 1040 135 1135 c 0
 135 1173 133 1211 129 1243 c 1
 144 1263 127 1285 166 1313 c 1
 144 1334 l 1
 144 1745 l 1
 170 1766 l 1
 194 1768 l 1
 207 1768 210 1758 210 1745 c 1
 219 1748 249 1762 258 1762 c 0
 393 1755 521 1748 649 1748 c 0
 674 1748 700 1750 726 1750 c 1xcc
EndSplineSet
EndChar

StartChar: bracketright
Encoding: 62 93 61
Width: 834
VWidth: 2308
Flags: W
HStem: -24 254<190 393.342> 178 50<30 44> 1397 22<60 62>
VStem: 391 301<832.723 855 860.748 1199> 402 310<485 762> 410 280<243 394 786.666 855 860.748 1193.28>
LayerCount: 2
Fore
SplineSet
618 1745 m 1x68
 643 1768 l 1
 678 1745 l 1
 678 1334 l 1
 664 1313 l 1
 688 1295 692 1291 692 1263 c 0x70
 692 1140 697 977 710 855 c 1
 690 855 l 1
 690 849 l 2x64
 690 827 703 800 715 786 c 1
 676 762 l 1
 716 762 l 1
 718 712 l 2
 720 637 710 559 712 485 c 1x68
 692 485 l 1
 716 440 l 1
 697 416 l 1
 678 416 l 1
 697 394 l 1
 705 -33 l 1
 696 -36 661 -58 653 -58 c 0
 625 -58 594 -53 572 -33 c 1
 557 -33 l 1
 562 -24 l 1
 537 -10 499 0 467 0 c 0
 458 0 451 -2 445 -2 c 1
 447 -24 l 1
 202 -24 l 1xb0
 202 -28 l 1
 190 -28 l 1
 170 -7 l 1
 166 -7 l 1
 166 8 l 1
 144 8 l 1
 145 6 146 3 146 2 c 0
 146 -2 141 -8 136 -8 c 0
 134 -8 132 -8 130 -7 c 1
 121 -20 104 -29 90 -35 c 1
 108 -16 l 1
 86 8 l 1
 46 8 l 1
 46 156 l 1
 24 156 l 1
 44 178 l 1
 22 178 l 1
 30 228 l 1
 140 228 l 1x70
 144 214 l 1
 162 225 189 230 218 230 c 0xb0
 261 230 306 221 346 221 c 0
 364 221 380 224 394 228 c 1
 402 243 l 1x68
 409 439 410 632 410 827 c 0x64
 410 949 397 1077 391 1199 c 1x70
 375 1221 l 1
 392 1221 l 1
 402 1229 l 1
 376 1267 l 1
 385 1267 l 1
 379 1288 l 1
 394 1313 l 1
 383 1352 l 1
 364 1336 l 1
 323 1342 180 1349 162 1360 c 1
 158 1349 l 1
 62 1349 l 1
 68 1397 l 1
 60 1397 l 1
 42 1419 l 1
 62 1419 l 1
 62 1704 l 1
 100 1704 l 1
 122 1727 l 1
 104 1750 l 1
 202 1750 321 1764 428 1764 c 0
 497 1764 563 1758 618 1745 c 1x68
EndSplineSet
EndChar

StartChar: acute
Encoding: 108 180 62
Width: 900
VWidth: 2308
Flags: W
HStem: 1561 513
VStem: 121 674
LayerCount: 2
Fore
SplineSet
582 2074 m 1
 596.607864567 2020.23550687 652.23995385 1997.86563709 654 1948 c 1
 633.258953172 1943.0261042 642.139892394 1917.92730464 645 1900 c 1
 661 1888 670 1884 675 1861 c 1
 688 1864 l 1
 681 1837 l 1
 701 1844 l 1
 725 1826 l 1
 735 1784 l 1
 749 1808 l 1
 767 1815 l 1
 772 1791 784 1772 795 1750 c 1
 359 1620 l 2
 357 1620 341 1616 341 1620 c 1
 298 1609 l 1
 300 1604 l 1
 156 1561 l 1
 151 1586 128 1611 121 1642 c 0
 102 1726 198 1746 239 1778 c 1
 582 2074 l 1
EndSplineSet
EndChar

StartChar: grave
Encoding: 65 96 64
Width: 910
VWidth: 2308
Flags: W
HStem: 1563 509
VStem: 103 675
LayerCount: 2
Fore
SplineSet
224 1859 m 1
 227.781078384 1889.1272963 283.039063369 1916.87914057 244 1948 c 1
 245.47743777 1995.58395974 302.515765684 2018.50817644 314 2072 c 1
 659 1780 l 1
 702 1748 798 1726 778 1644 c 0
 770 1611 750 1587 745 1563 c 1
 601 1604 l 1
 601 1609 l 1
 560 1622 l 1
 558 1615 543 1620 541 1620 c 2
 103 1748 l 1
 115 1770 126 1789 131 1813 c 1
 150 1806 l 1
 163 1782 l 1
 173 1825 l 1
 198 1841 l 1
 217 1837 l 1
 210 1863 l 1
 224 1859 l 1
EndSplineSet
EndChar

StartChar: period
Encoding: 16 46 65
Width: 767
VWidth: 2308
Flags: W
HStem: 103 591<162.697 213.993 214.947 496.978 505.201 630.703> 130 592<316.062 631> 657 18<90 92.8966>
VStem: 72 595
LayerCount: 2
Fore
SplineSet
332 103 m 1x90
 291 103 l 2
 267 103 234 106 214 85 c 1
 214 98 204 103 195 103 c 1x90
 184 94 177 81 162 81 c 1
 162 266 146 434 123 617 c 1
 111 630 92 657 72 657 c 1
 90 675 l 1x30
 102 675 114 671 125 671 c 0
 140 671 153 679 160 694 c 1
 297 694 l 1x90
 341 722 457 722 499 722 c 0
 552 722 608 697 656 697 c 1
 656 655 658 464 633 464 c 1
 642 456 654 447 667 447 c 1
 647 106 l 1
 631 125 l 1
 612 125 l 2
 599 125 577 110 564 110 c 0
 531 110 551 130 503 130 c 0x50
 471 130 352 125 332 103 c 1x90
EndSplineSet
EndChar

StartChar: comma
Encoding: 14 44 66
Width: 740
VWidth: 2308
Flags: W
VStem: 94 538<125.701 333.338 339 601.117> 114 518<174.254 333.338 339 601.117>
LayerCount: 2
Fore
SplineSet
570 -290 m 1x40
 378 -298 l 1
 375 -279 372 -260 372 -241 c 0
 372 -205 378 -170 378 -135 c 1
 386 -140 l 1
 386 -84 389 -68 406 -12 c 1
 404 -14 l 1
 422 85 l 1
 375 87 312 81 268 110 c 1
 132 89 l 1
 132 95 130 108 122 112 c 1
 116 108 l 1
 98 125 l 1
 97 140 94 152 94 166 c 0x80
 94 342 114 524 114 702 c 1x40
 127 702 141 690 148 679 c 1
 165 679 169 704 206 704 c 0
 295 704 383 673 474 673 c 0
 521 673 502 694 534 694 c 0
 549 694 567 676 582 676 c 2
 602 676 l 1
 618 697 l 1
 632 460 l 1
 632 447 l 2
 632 416 637 388 638 358 c 1
 632 358 l 1
 632 339 l 1
 620 334 l 1
 620 320 632 298 632 294 c 0x80
 632 258 628 223 628 187 c 1
 626 166 l 1
 628 160 632 129 632 125 c 2
 570 -290 l 1x40
EndSplineSet
EndChar

StartChar: circumflex
Encoding: 299 710 67
Width: 1083
VWidth: 2308
Flags: W
LayerCount: 2
Fore
SplineSet
867 1445 m 1
 810 1492 582 1767 532 1829 c 1
 467 1750 402 1671 334 1596 c 1
 330 1597 l 1
 301 1565 l 1
 305 1561 l 1
 198 1445 l 1
 182 1460 l 1
 175 1456 l 1
 159 1468 98 1518 80 1518 c 1
 353 2135 l 1
 378 2135 419 2127 451 2127 c 0
 459 2127 466 2128 474 2130 c 1
 486 2119 l 1
 522 2119 561 2122 597 2125 c 1
 595 2127 l 1
 630 2133 667 2142 703 2142 c 1
 720 2140 l 1
 714 2135 l 1
 1007 1565 l 1
 889 1456 l 1
 883 1460 l 1
 867 1445 l 1
472 2133 m 1
 472 2133 474 2132 474 2130 c 1
 476 2133 l 1
 472 2133 l 1
469 2135 m 1
 472 2133 l 1
 469 2133 469 2133 469 2135 c 1
EndSplineSet
EndChar

StartChar: caron
Encoding: 300 711 72
Width: 996
VWidth: 2308
Flags: W
HStem: 1454 2<427.813 430.955>
LayerCount: 2
Fore
SplineSet
488 1758 m 1
 599 1890 656 2068 786 2181 c 1
 802 2168 l 1
 807 2171 l 1
 962 2022 l 1
 669 1452 l 1
 675 1449 l 1
 658 1445 l 1
 622 1445 585 1454 551 1460 c 1
 551 1462 l 1
 514 1464 478 1468 441 1468 c 1
 429 1456 l 1
 424 1458 415 1460 405 1460 c 0
 373 1460 327 1452 309 1452 c 1
 35 2068 l 1
 53 2068 164 2155 187 2171 c 1
 192 2168 l 1
 208 2181 l 1
 312 2066 l 1
 309 2062 l 1
 335 2030 l 1
 339 2032 l 1
 379 1936 431 1842 488 1758 c 1
431 1454 m 1
 430 1454 431 1456 429 1456 c 1
 429 1456 426 1454 426 1452 c 1
 426 1454 430 1454 431 1454 c 1
EndSplineSet
EndChar

StartChar: dotlessi
Encoding: 223 305 73
Width: 843
VWidth: 2308
Flags: W
HStem: 1500 20G<319 391.652 514 561.5>
VStem: 239 360<550.155 1032.74> 463 95<-30 -8.32521 -8 34.1932> 463 76<-55 -41>
LayerCount: 2
Fore
SplineSet
466 -8 m 1xa0
 467 -8 l 1
 467 21 454 38 431 38 c 0
 399 38 379 -7 360 -30 c 1
 305 -28 317 327 305 387 c 0
 273 555 239 717 239 892 c 0xc0
 239 971 250 1049 250 1128 c 1
 268 1128 l 1
 210 1265 l 1
 187 1316 87 1340 90 1418 c 1
 90 1426 l 1
 49 1452 l 1
 60 1474 l 1
 31 1452 l 1
 13 1474 l 1
 140 1474 262 1520 376 1520 c 1
 394 1497 l 1
 443 1497 489 1520 539 1520 c 1x90
 584 1474 731 1493 800 1474 c 1
 773 1449 719 1400 719 1358 c 1
 738 1358 l 1
 700 1313 676 1255 657 1197 c 1
 678 1174 l 1
 638 1022 599 843 599 685 c 0
 599 638 619 594 619 548 c 1
 606 532 601 505 599 483 c 1
 578 503 l 1
 578 469 599 440 599 408 c 1xc0
 558 387 l 1
 576 387 580 365 580 349 c 0
 580 221 558 94 558 -30 c 1xa0
 575 -30 578 -51 578 -66 c 2
 578 -77 l 1
 560 -73 543 -61 539 -41 c 1
 539 -55 l 1x90
 514 -56 l 1
 492 -58 463 -48 463 -22 c 0
 463 -18 464 -15 466 -8 c 1xa0
EndSplineSet
EndChar

StartChar: ogonek
Encoding: 304 731 74
Width: 739
VWidth: 2308
Flags: W
HStem: -14 260<375.333 593.212 594.378 621>
VStem: 109 538<166.526 245.391>
LayerCount: 2
Fore
SplineSet
162 696 m 1
 354 704 l 1
 358 685 359 666 359 647 c 0
 359 631.377358491 354 616.188679245 354 601 c 5
 347 606 l 5
 347 585 344.904761905 579 336 558 c 5
 338 560 l 5
 320 461 l 5
 312 433.222222222 323 328.777777778 385 281 c 5
 435 254 l 5
 435 254 450 246 567 246 c 5
 621 248 l 5
 644 256 l 5
 646 241 647 230 647 216 c 4
 647 141 628 64 628 -12 c 5
 614 -12 602 0 594 11 c 5
 577 11 572 -14 535 -14 c 4
 178 -14 109 182 109 396 c 6
 109 420 l 5
 162 696 l 1
EndSplineSet
EndChar

StartChar: cedilla
Encoding: 112 184 76
Width: 555
VWidth: 2308
Flags: W
VStem: 105 350<-663 -545.468 -370.312 -284.104> 299.6 155.4<-534.988 -407.892 -407 -393>
LayerCount: 2
Fore
SplineSet
453 -272 m 1x80
 464.8515625 -277.802734375 469.522460938 -293.110351562 469 -311 c 1
 458 -435 455 -556 455 -681 c 1
 446 -681 438 -674 432 -667 c 1
 423 -667 414 -683 394 -683 c 0
 331 -683 270 -663 207 -663 c 0
 173 -663 186 -674 165 -674 c 0
 152 -674 140 -665 124 -665 c 0
 123 -665 121 -665 119 -665 c 1
 108 -679 l 1
 98 -552 l 2
 98 -548 300.599609375 -534 300.599609375 -528 c 0
 300.599609375 -510 298.599609375 -425 295.599609375 -407 c 1
 299.599609375 -407 l 1
 299.599609375 -393 l 1x40
 307.599609375 -389 l 1
 97 -371 l 1
 103 -327 l 2
 103.540039062 -323.036132812 105 -318 105 -315 c 0
 105 -312 103 -311 103 -311 c 1
 103 -308 96.419921875 -285.907226562 97 -284 c 2
 184 2 l 1
 355 0 l 1
 357 -6 328 -19 328 -31 c 0
 328 -54 324 -73 324 -97 c 1
 310 -101 l 1
 310 -139 288 -145 277 -185 c 1
 279 -185 l 1
 242 -255 l 1
 277 -257 318 -253 349 -274 c 1
 444 -259 l 1
 444 -261 446 -276 449 -276 c 0
 451 -276 451 -274 453 -272 c 1x80
EndSplineSet
EndChar

StartChar: OE
Encoding: 253 338 77
Width: 1617
VWidth: 2308
Flags: W
HStem: 2 185<480.653 567.438> 31 230<1085.01 1203.63> 349 24<577 594> 402 277<1009 1225.47> 1487 20G<394.5 501.652 506.478 539 614.478 651 912.5 1059.5>
VStem: 133 280<488.002 510 511.181 763.26> 194 239<257.067 373.904> 395 53<-239 -38.0764> 577 70<-231 -52.625> 738 21<-215.524 -152.91> 919 63<-274.183 6> 1172 54<-266.318 -165> 1208 53<-132.307 20.9353>
LayerCount: 2
Fore
SplineSet
173 187 m 1xb9e8
 194 187 l 1xbae0
 194 291 133 365 133 483 c 0
 133 656 74 816 74 974 c 1
 52 998 l 1
 74 979 l 1
 74 992 l 2
 74 1010 72 1028 69 1046 c 1
 61 1041 l 1
 52 1044 l 1
 74 1069 l 1
 52 1089 l 1
 52 1316 303 1507 486 1507 c 1
 504 1484 l 1
 523 1507 l 1
 555 1507 581 1484 612 1484 c 1
 631 1507 l 1
 654 1484 l 1
 757 1500 861 1507 964 1507 c 0
 1155 1507 1349 1484 1557 1443 c 1
 1501 1390 1390 1082 1375 1000 c 1
 1376 1002 l 1
 1376 933 1357 864 1357 795 c 1
 1238 795 1110 866 990 866 c 1
 990 679 l 1
 974 656 l 1
 1009 679 l 1
 1172 679 l 2xbcf0
 1198 679 1220 653 1248 653 c 0
 1253 653 1256 654 1261 656 c 1xb8e8
 1261 611 1241 401 1226 377 c 1
 1215 380 1182 402 1172 402 c 2xb8f0
 1009 402 l 1
 974 377 l 1
 974 238 l 1
 990 217 l 1
 990 261 l 1
 1155 261 l 2
 1196 261 1232 235 1280 235 c 0
 1286 235 1293 236 1299 238 c 1
 1299 179 1261 138 1261 85 c 0x78e8
 1261 3 1257 -101 1221 -165 c 1
 1226 -248 l 1
 1190 -294 l 1
 1172 -248 l 1x78f0
 1178 -235 1208 -87 1208 -81 c 0
 1208 -2 1205 31 1135 31 c 0x78e8
 1101 31 1061 -55 1047 -89 c 1
 989 -89 990 -81 990 -16 c 1
 974 6 l 1
 974 -24 982 -96 982 -165 c 0
 982 -241 971 -316 919 -316 c 1
 919 55 l 1
 905 71 875 79 850 79 c 0
 819 79 790 36 790 -20 c 0
 790 -27 792 -35 794 -38 c 1
 780 -62 763 -195 759 -231 c 1
 742 -198 738 -165 738 -130 c 0
 738 -106 740 -81 740 -55 c 1
 715 -20 l 1
 704 -22 l 1
 654 -84 647 -106 647 -152 c 0
 647 -173 648 -196 648 -231 c 1
 612 -275 l 1
 581 -275 575 -231 575 -188 c 0
 575 -168 577 -150 577 -138 c 0
 577 -97 575 2 528 2 c 0
 459 2 448 -86 448 -161 c 0
 448 -191 450 -219 450 -239 c 1
 444 -254 l 1
 396 -254 395 -127 395 -91 c 0
 395 -26 291 8 252 46 c 1
 255 44 255 42 255 38 c 0
 255 30 247 21 240 21 c 0
 238 21 236 23 234 24 c 1
 252 46 l 1
 224 84 173 132 173 187 c 1xb9e8
594 373 m 1
 612 396 l 1
 612 580 l 2
 612 647 594 661 594 746 c 2
 594 766 l 1
 559 835 l 1
 559 860 536 858 523 858 c 1
 523 882 l 1
 504 882 l 1
 504 870 498 858 486 858 c 1
 486 835 l 1
 468 835 l 1
 433 766 l 1xbae0
 433 707 413 683 413 605 c 0xbce0
 413 572 413 535 433 510 c 1xbae0
 413 510 l 1xbce0
 413 490 417 488 433 488 c 1
 433 373 l 1
 452 349 454 257 468 257 c 1
 485 231 488 187 523 187 c 0
 573 187 594 302 594 349 c 1
 577 349 l 1
 577 373 l 1
 594 373 l 1
EndSplineSet
EndChar

StartChar: oe
Encoding: 254 339 78
Width: 1594
VWidth: 2308
Flags: W
HStem: -48 255<993.493 1165> -48 231<993.493 1165> 6 186<485.511 572.574> 344 279<986 1130> 785 713<1130.76 1305.83> 1072 48<51 61>
VStem: 738 40<-145.583 -79> 1182 37<-140 -73>
LayerCount: 2
Fore
SplineSet
212 170 m 1x33
 214 170 l 1
 214 268 88 908 66 1050 c 1
 59 1046 l 1
 51 1048 l 1
 72 1072 l 1
 51 1072 l 1
 51 1120 l 1x37
 61 1118 l 1
 68 1133 74 1154 74 1172 c 0
 74 1179 72 1184 72 1188 c 1
 53 1188 l 1
 96 1201 166 1512 527 1512 c 1
 527 1490 l 1
 546 1512 l 1
 583 1512 617 1490 654 1490 c 1
 654 1512 l 1
 687 1512 718 1499 748 1480 c 1
 833 1491 919 1498 1004 1498 c 0x1b
 1173 1498 1348 1471 1532 1433 c 1
 1485 1380 1372 1184 1372 1120 c 0x17
 1372 1091 1370 1061 1351 1041 c 1
 1353 1029 1353 1015 1353 1003 c 0
 1353 918 1327 815 1311 738 c 1
 1275 758 1222 785 1198 785 c 0
 1173 785 1146 786 1130 806 c 1
 1090 806 1050 806 1010 815 c 1
 986 623 l 1
 1219 623 l 1
 1219 460 l 2
 1219 447 1188 320 1182 298 c 1
 1130 344 l 1
 967 344 l 1
 949 322 l 1
 949 158 l 1
 967 142 l 1
 984 166 l 1
 967 207 l 1x9b
 1061 205 1155 183 1256 183 c 1
 1256 158 l 2
 1256 132 1238 98 1238 67 c 1
 1231 59 1217 44 1217 34 c 1
 1238 21 l 1
 1238 19 1239 19 1239 19 c 1
 1239 10 1219 6 1219 -2 c 2
 1219 -24 l 1
 1238 -48 l 1x53
 1216 -79 1219 -125 1219 -165 c 1
 1203 -140 l 1
 1182 -140 l 1
 1182 -73 l 1
 1165 -48 l 1
 1075 -48 l 2x93
 1046 -48 1024 -73 992 -73 c 0
 988 -73 980 -72 975 -70 c 1
 949 -96 l 1
 913 -48 l 1
 913 -24 l 1
 899 -17 867 -2 853 -2 c 0
 847 -2 809 -4 809 -22 c 0
 809 -24 811 -24 811 -26 c 1
 804 -24 l 1
 804 -48 l 1x53
 778 -79 l 1
 778 -155 l 1
 761 -155 l 1
 738 -130 l 1
 744 -91 l 1
 744 -66 730 -38 709 -38 c 1
 709 -40 710 -43 710 -45 c 0
 710 -53 705 -65 700 -65 c 0
 698 -65 698 -62 696 -58 c 1
 672 -86 l 1
 654 -68 l 1
 654 -109 l 1
 628 -134 l 1
 541 -103 609 6 527 6 c 0
 511 6 491 -4 481 -22 c 1
 473 -16 l 1
 433 -73 l 1
 393 -73 404 43 343 43 c 0
 331 43 288 20 272 16 c 1
 267 82 212 92 212 170 c 1x33
636 402 m 1
 617 424 l 1
 617 449 l 2
 617 470 623 479 636 493 c 1
 636 564 l 2
 636 605 617 640 617 683 c 0
 617 735 606 866 544 866 c 2
 510 866 l 1
 510 842 l 1
 491 842 l 1
 458 797 437 743 437 679 c 2
 437 493 l 2
 437 487 443 474 446 470 c 1
 437 470 l 1
 437 402 l 2
 437 383 445 367 456 355 c 1
 456 309 483 227 510 192 c 1
 527 192 l 2
 589 192 587 274 597 286 c 1
 599 355 l 1
 617 355 l 1
 617 402 l 1
 636 402 l 1
72 1003 m 1
 51 1003 l 1
 51 1026 l 1
 72 1003 l 1
72 981 m 1
 51 981 l 1
 55 992 l 1
 72 981 l 1
EndSplineSet
EndChar

StartChar: ae
Encoding: 152 230 79
Width: 1547
VWidth: 2308
Flags: W
HStem: -43 255<953.493 1124> -43 232<953.493 1124> 72 23<474 486.703> 351 277<927 1089> 620 25<546 558.466> 813 715<898.135 1215.45> 1507 20G<521.5 609>
VStem: 207 264<320.756 458.827 460 597.559> 325 57<-179.103 -163> 1142 36<-134 -66>
LayerCount: 2
Fore
SplineSet
664 -132 m 1x4140
 625 -91 l 1
 592 -118 l 1
 571 -116 l 1
 588 -84 l 1
 588 -43 598 -5 598 36 c 1
 582 24 l 1
 566 46 l 1
 580 46 l 1
 540 116 l 1
 510 110 l 1
 487 125 l 1
 469 91 l 1
 473 94 475 95 477 95 c 0
 485 95 489 79 489 69 c 0
 489 67 487 67 487 67 c 1
 482 67 476 72 474 72 c 1
 471 59 l 1x2140
 474 10 l 1
 452 -26 l 1
 450 -26 450 -28 450 -28 c 1
 445 -28 443 -4 436 -4 c 0
 420 -4 422 -101 422 -107 c 0
 422 -118 408 -152 404 -163 c 1
 382 -140 l 1
 382 -186 358 -186 325 -186 c 1x20c0
 323 -163 l 1
 248 -180 l 1
 214 -142 211 -89 211 -35 c 0
 211 -20 213 -6 213 6 c 0
 213 21 211 34 211 46 c 0
 211 48 213 48 214 48 c 0
 218 48 223 44 227 44 c 1
 231 69 l 1
 194 228 l 1
 225 228 231 294 231 320 c 1
 211 298 l 1
 207 375 l 1
 207 429 220 549 232 600 c 1
 214 600 l 1
 220 615 249 688 249 700 c 0
 249 779 216 854 216 933 c 0
 216 962 229 994 253 1008 c 1
 232 1089 216 1168 216 1253 c 1
 232 1273 l 1
 33 1454 l 1
 28 1454 l 1
 32 1495 436 1527 607 1527 c 0x2340
 611 1527 641 1507 645 1503 c 1
 704 1525 769 1528 832 1528 c 0
 1046 1528 1256 1469 1493 1439 c 1
 1446 1389 1332 1191 1332 1128 c 0
 1332 1099 1330 1069 1312 1046 c 1
 1314 1034 1314 1022 1314 1008 c 0
 1314 923 1288 822 1271 745 c 1
 1237 760 1182 791 1158 791 c 0
 1135 791 1105 793 1089 813 c 1
 1021 813 962 827 895 837 c 1
 909 796 911 756 911 714 c 0
 911 685 910 657 908 628 c 1
 1178 628 l 1
 1178 466 l 2
 1178 452 1146 327 1142 304 c 1
 1089 351 l 1
 927 351 l 1
 908 329 l 1
 908 164 l 1
 927 148 l 1
 943 172 l 1
 927 212 l 1x9540
 1020 211 1113 189 1215 189 c 1
 1215 164 l 2
 1215 138 1197 104 1197 73 c 1
 1191 65 1177 51 1177 41 c 1
 1197 26 l 1
 1197 24 1199 24 1199 24 c 1
 1199 16 1178 13 1178 3 c 2
 1178 -18 l 1
 1197 -43 l 1x4140
 1175 -73 1178 -120 1178 -158 c 1
 1162 -134 l 1
 1142 -134 l 1
 1142 -66 l 1
 1124 -43 l 1
 1034 -43 l 2x8140
 1006 -43 984 -66 952 -66 c 0
 947 -66 939 -66 935 -65 c 1
 908 -89 l 1
 871 -43 l 1
 871 -18 l 1
 858 -15 828 3 816 3 c 0
 748 3 794 -142 751 -150 c 1
 737 -134 l 1
 717 -138 l 1
 700 -116 l 1
 661 -135 l 1
 664 -132 l 1x4140
481 460 m 1
 463 460 l 1
 465 435 471 409 471 381 c 0
 471 360 463 336 450 320 c 1
 452 298 l 1
 471 320 l 1
 579 320 l 1
 577 351 578 383 574 414 c 0
 574 418 563 431 563 437 c 0
 563 452 571 467 571 483 c 1
 569 503 575 576 546 576 c 1
 563 600 l 1
 546 600 l 1
 562 620 l 1
 546 620 l 1
 544 645 l 1x0940
 554 645 560 656 560 667 c 1
 542 667 l 1
 538 779 l 1
 523 667 481 578 481 460 c 1
748 -150 m 1
 751 -150 l 1
 756 -155 l 1
 748 -150 l 1
660 -138 m 2
 660 -136 660 -135 661 -135 c 2
 660 -138 l 2
EndSplineSet
EndChar

StartChar: dieresis
Encoding: 102 168 83
Width: 1297
VWidth: 2308
Flags: W
HStem: 1650 461<198.236 202.856 207 409.841 413.283 526.69 734.372 745.58 763.658 977.385> 1650 449<168.327 197.998 276.928 447.086 449.264 531> 1669 473<833.054 1109>
VStem: 139 397<1657.05 1880 1880.09 1898 1898 2097> 716 419<1884.11 2075.7>
LayerCount: 2
Fore
SplineSet
807 1647 m 0x38
 793 1647 777 1647 763 1654 c 1
 763 1673 761 1673 746 1673 c 1
 737 1665 731 1650 718 1650 c 1x58
 716 2035 l 2
 716 2041 704 2070 702 2076 c 1
 719 2094 l 1
 734 2091 l 1
 742 2092 746 2104 748 2112 c 1
 855 2112 l 1
 881 2135 945 2142 979 2142 c 0x38
 1045 2142 1135 2121 1135 2097 c 0
 1135 2038 1133 1884 1111 1884 c 1
 1121 1875 1133 1864 1146 1864 c 1
 1126 1647 l 1
 1109 1666 l 1
 1091 1666 l 2
 1082 1666 1052 1650 1043 1650 c 0x58
 1021 1650 1034 1669 1003 1669 c 0
 933 1669 868 1647 807 1647 c 0x38
412 2094 m 0
 440 2094 428 2112 448 2112 c 0
 475 2112 500 2094 528 2094 c 0
 532 2094 535 2097 539 2097 c 1
 541 1898 l 1
 537 1898 536 1897 536 1894 c 2
 536 1885 l 2
 536 1884 536 1882 535 1880 c 1
 538 1880 543 1880 543 1874 c 0
 543 1798 531 1724 531 1647 c 1
 485 1647 437 1640 390 1640 c 2
 331 1640 l 2
 319 1640 309 1642 300 1650 c 1
 207 1650 l 1x98
 203 1647 l 1
 200 1648 192 1650 187 1650 c 2
 182 1650 l 1
 180 1658 175 1663 168 1663 c 0
 161 1663 154 1657 147 1654 c 1
 143 1719 139 1784 139 1849 c 0
 139 1933 147 2017 147 2101 c 1
 157 2101 168 2099 180 2099 c 0x58
 196 2099 198 2098 198 2116 c 1
 203 2112 210 2111 217 2111 c 0x98
 237 2111 255 2119 275 2119 c 0
 316 2119 366 2094 412 2094 c 0
EndSplineSet
EndChar

StartChar: Scaron
Encoding: 267 352 109
Width: 1032
VWidth: 2308
Flags: W
HStem: 1864 3<460.752 464.954>
VStem: 399 17<-84.9061 -63> 508 35<-68 -46 -42.8628 -38> 581 16<-178 -105.381> 687 54<-87 -70> 706 35<-87 -70.0156>
LayerCount: 2
Fore
SplineSet
941 726 m 1xf0
 961 726 l 1
 941 702 l 1
 941 726 l 1xf0
361 -63 m 1
 361 -41 l 1
 382 -63 l 1
 399 -63 l 1
 399 -87 l 1
 434 -138 l 1
 434 -104 416 -72 416 -38 c 1
 508 -38 l 1
 508 -68 l 1
 526 -91 l 1
 529 -83 543 -53 543 -46 c 0
 543 -45 538 -42 538 -38 c 1
 581 -38 l 1
 593 -36 595 -35 597 -33 c 1
 597 -63 l 1
 583 -87 581 -125 581 -155 c 2
 581 -178 l 1
 597 -178 l 1
 597 -145 595 -111 616 -87 c 1
 616 -63 l 1
 687 -18 l 1xf8
 741 -63 l 1xf4
 687 -63 l 1xf8
 687 -66 703 -99 706 -107 c 1xf4
 741 -87 l 1
 741 -70 l 1xf8
 763 -70 l 1
 760 -38 l 1
 800 31 l 1
 800 108 900 176 900 238 c 1
 881 260 l 2
 883 258 885 257 887 257 c 0
 906 257 915 344 915 355 c 0
 915 545 676 676 543 676 c 1
 526 656 l 1
 526 676 l 1
 489 676 453 752 453 793 c 1
 471 817 l 1
 471 842 l 1
 476 845 503 865 508 865 c 2
 543 865 l 1
 581 817 l 1
 597 842 l 1
 595 822 592 799 592 779 c 0
 592 750 601 726 633 726 c 2
 780 726 l 1
 780 748 l 1
 841 702 l 1
 862 726 l 2
 863 726 865 727 867 727 c 0
 890 727 946 685 961 676 c 1
 981 702 l 1
 981 726 l 1
 961 726 l 1
 961 895 981 1064 981 1234 c 1
 1001 1234 l 1
 1001 1257 l 1
 952 1315 889 1360 841 1419 c 1
 834 1409 l 1
 728 1493 679 1512 560 1512 c 1
 547 1497 130 1443 130 1234 c 1
 69 1120 l 1
 69 1046 49 971 49 894 c 0
 49 624 124 532 326 424 c 1
 345 447 l 1
 359 414 402 398 434 398 c 0
 441 398 448 398 453 399 c 1
 469 377 496 371 520 373 c 2
 581 377 l 1
 581 330 l 1
 597 309 l 1
 597 284 l 1
 616 261 l 1
 587 226 562 194 526 168 c 1
 508 168 l 1
 508 189 495 195 481 195 c 1
 471 192 l 1
 471 284 l 1
 455 284 451 300 451 319 c 1
 453 330 l 1
 434 309 l 1
 390 309 332 319 274 319 c 0
 198 319 128 304 89 238 c 1
 112 238 l 2
 124 238 130 233 130 211 c 0
 130 168 168 112 191 77 c 1
 193 41 246 -14 270 -38 c 1
 304 -38 310 -81 335 -81 c 0
 341 -81 357 -66 361 -63 c 1
521 2168 m 1
 632 2300 688 2479 818 2592 c 1
 834 2578 l 1
 839 2582 l 1
 994 2432 l 1
 702 1862 l 1
 709 1859 l 1
 691 1856 l 1
 655 1856 618 1864 584 1870 c 1
 584 1872 l 1
 547 1874 512 1879 475 1879 c 1
 462 1867 l 1
 457 1869 449 1870 439 1870 c 0
 407 1870 360 1862 342 1862 c 1
 71 2478 l 1
 89 2478 200 2566 223 2582 c 1
 228 2578 l 1
 244 2592 l 1
 345 2476 l 1
 342 2473 l 1
 368 2440 l 1
 372 2442 l 1
 412 2346 464 2252 521 2168 c 1
465 1864 m 1
 464 1864 464 1867 462 1867 c 1
 462 1867 459 1864 459 1862 c 1
 459 1864 464 1864 465 1864 c 1
EndSplineSet
EndChar

StartChar: AE
Encoding: 120 198 122
Width: 1503
VWidth: 2308
Flags: W
HStem: 31 230<973.735 1092.93> 65 20<437.346 444.906> 402 277<898 1114.47> 866 641<874 1085.18>
VStem: 209 242<396.711 505 528 528 551 665.129> 231 258<552.918 667 690.767 784.757> 252 40<-240.996 -188> 370 21<-249.564 -118> 524 17<-203.447 -122> 541 17<-443 -358.414> 808 64<-266.324 6> 1060 55<-266.318 -165> 1098 52<-133.049 19.8818>
LayerCount: 2
Fore
SplineSet
580 -96 m 1xb028
 541 -122 l 1
 541 -154 533 -184 524 -213 c 1xb0a8
 520 -145 l 2
 520 -135 538 -86 541 -73 c 1xb060
 524 -51 l 1xb0a0
 542 13 l 1
 541 19 l 1
 503 19 522 110 457 110 c 1
 430 89 l 1
 430 87 433 85 435 85 c 0
 440 85 443 87 445 89 c 1
 451 65 l 1x7860
 443 65 l 1
 432 49 426 24 426 2 c 0
 426 -8 428 -20 430 -28 c 1
 406 -28 419 -7 391 -7 c 1
 391 -267 l 1
 370 -221 370 -171 370 -118 c 1
 325 -166 l 1
 310 -166 l 1
 310 -122 l 1
 290 -97 l 1
 270 -122 l 1
 294 -186 l 1
 290 -188 l 1
 290 -196 292 -203 292 -209 c 0
 292 -234 287 -262 279 -286 c 1
 248 -241 l 1
 252 -241 252 -235 252 -229 c 0x7320
 252 -148 229 -46 229 46 c 0
 229 115 194 191 194 263 c 0
 194 272 220 332 224 342 c 1
 209 342 l 1
 233 396 l 1
 217 411 207 437 207 460 c 2
 209 528 l 1
 229 528 l 1
 209 551 l 1
 209 592 229 627 229 667 c 1
 209 690 l 1x7820
 215 706 231 746 231 760 c 0x7420
 231 936 209 1113 209 1291 c 1
 211 1290 213 1288 217 1288 c 0
 224 1288 233 1298 233 1308 c 0
 233 1327 166 1359 141 1362 c 1
 150 1362 l 1
 118 1397 71 1416 30 1431 c 1
 83 1469 738 1507 846 1507 c 0
 1040 1507 1239 1484 1447 1443 c 1
 1387 1390 1279 1082 1264 1000 c 1
 1266 1002 l 1
 1266 933 1246 864 1246 795 c 1
 1125 795 996 866 874 866 c 1
 880 679 l 1
 864 656 l 1
 898 679 l 1
 1060 679 l 2x7830
 1087 679 1108 653 1137 653 c 0
 1141 653 1146 654 1150 656 c 1x7028
 1150 609 1132 401 1115 377 c 1
 1104 380 1071 402 1060 402 c 2x7030
 898 402 l 1
 864 377 l 1
 864 238 l 1
 865 234 872 214 876 214 c 0
 878 214 878 215 880 217 c 1
 880 261 l 1
 1044 261 l 2
 1085 261 1122 235 1169 235 c 0
 1175 235 1182 236 1188 238 c 1
 1179 209 1171 176 1171 146 c 1
 1164 146 l 1
 1150 122 l 1xb028
 1150 34 1153 -91 1110 -165 c 1
 1115 -248 l 1
 1079 -294 l 1
 1060 -248 l 1xb030
 1067 -235 1098 -87 1098 -81 c 0
 1098 -2 1093 31 1024 31 c 0
 989 31 950 -55 937 -89 c 1
 879 -89 880 -81 880 -16 c 1
 864 6 l 1
 864 -24 872 -96 872 -165 c 0
 872 -241 860 -316 808 -316 c 1
 808 55 l 1
 794 71 764 79 739 79 c 0
 709 79 691 51 685 19 c 1
 702 19 l 1
 679 -40 663 -304 631 -304 c 1
 633 -306 632 -308 632 -312 c 0
 632 -320 626 -333 621 -333 c 0
 620 -333 618 -333 616 -331 c 2
 595 -294 l 1
 595 -284 l 1
 615 -260 614 -231 614 -198 c 1
 631 -166 l 1
 614 -145 l 1
 595 -175 l 1
 580 -96 l 1xb028
430 505 m 1
 451 505 l 1x3820
 451 481 419 418 410 389 c 1
 487 389 l 2
 499 389 533 389 540 377 c 1
 535 450 524 523 524 597 c 1
 528 597 l 1
 524 599 522 617 522 632 c 0
 522 646 522 661 524 667 c 1
 503 690 l 1
 524 696 l 1
 524 714 l 1
 522 714 518 712 516 712 c 0
 504 712 489 755 489 786 c 1x34a0
 486.228904416 697.913433247 451 617.904923044 451 528 c 1x3820
 430 529 l 1
 430 505 l 1
576 -329 m 1
 565.013488933 -352.108811922 554.97531807 -405.495673917 558 -443 c 1
 541 -443 l 1
 541 -399 l 2x3060
 541 -358 570 -308 576 -265 c 1
 576 -329 l 1
524 14 m 2x30a0
 524 19 l 1
 526 19 l 2
 524 19 524 16 524 14 c 2x30a0
EndSplineSet
EndChar

StartChar: Zcaron
Encoding: 294 381 123
Width: 1421
VWidth: 2308
Flags: W
HStem: -7 291<672 806.255> 1864 3<671.711 674.955>
VStem: 383 90<-22.0546 6> 438 18<-33 -22.4546> 585 13<-36 -14.9634>
LayerCount: 2
Fore
SplineSet
99 1441 m 1xd8
 73 1411 l 1
 80 1291 270 1162 270 748 c 1
 289 726 l 1
 310 726 l 1
 289 702 l 1
 417 795 l 1
 463 795 499 842 546 842 c 2
 653 842 l 1
 649 818 635 785 617 770 c 1
 617 716 527 704 527 539 c 1
 509 539 l 1
 509 493 l 1
 473 449 l 1xe8
 490 449 l 1
 490 399 l 1
 471 399 l 2
 460 399 456 396 456 373 c 2
 456 355 l 1
 442 336 438 309 438 284 c 1xd8
 417 284 l 1
 391 228 343 152 343 108 c 0
 343 72 350 27 365 6 c 1
 383 6 l 1xe8
 383 -4 388 -16 438 -24 c 1
 438 -36 l 1
 456 -46 l 1xd8
 454 -33 l 1
 454 -26 459 -19 473 -16 c 1
 473 6 l 1xe8
 509 31 l 1
 569 31 585 4 585 -36 c 1
 598 -36 l 1
 598 -16 l 1
 615 -12 633 -7 650 -7 c 0
 715 -7 775 -39 834 -63 c 1
 834 -55 816 -45 816 -36 c 1
 834 -58 l 1
 853 -58 l 1
 942 77 l 1
 924 100 l 1
 942 146 l 1
 978 168 l 1
 982 217 l 1
 978 238 l 1
 919 289 732 284 672 284 c 1
 690 309 l 1
 690 332 l 1
 726 355 l 1
 708 377 l 1
 726 377 l 1
 743 399 l 1
 740 403 737 408 737 411 c 0
 737 423 767 424 767 437 c 0
 767 440 766 445 763 449 c 1
 780 470 l 1
 778 472 776 474 776 478 c 0
 776 487 784 497 790 497 c 0
 792 497 796 495 797 493 c 1
 816 515 l 1
 816 539 l 1
 889 632 l 1
 889 656 l 1
 924 679 l 1
 926 676 926 673 926 673 c 1
 936 673 951 748 997 748 c 1
 997 770 l 1
 1005 770 1013 768 1020 768 c 0
 1024 768 1029 768 1033 770 c 1
 1050 795 l 1
 1050 817 l 1
 1055 817 1072 815 1072 805 c 0
 1072 803 1072 801 1071 799 c 1
 1170 937 1228 1124 1318 1282 c 1
 1320 1323 1394 1369 1417 1397 c 1
 1288 1397 1176 1470 1063 1470 c 0
 1046 1470 1031 1468 1015 1466 c 1
 1015 1490 l 1
 948 1490 883 1512 816 1512 c 2
 617 1512 l 1
 620 1508 621 1504 621 1500 c 0
 621 1494 615 1490 607 1490 c 0
 601 1490 593 1494 593 1500 c 0
 593 1504 594 1508 598 1512 c 1
 438 1512 l 2
 328 1512 219 1456 99 1441 c 1xd8
732 2168 m 1
 843 2300 900 2479 1023 2592 c 1
 1037 2578 l 1
 1042 2582 l 1
 1182 2432 l 1
 913 1862 l 1
 919 1859 l 1
 902 1856 l 1
 866 1856 829 1864 795 1870 c 1
 795 1872 l 1
 758 1874 722 1879 685 1879 c 1
 673 1867 l 1
 668 1869 659 1870 649 1870 c 0
 617 1870 571 1862 553 1862 c 1
 302 2478 l 1
 320 2478 419 2566 440 2582 c 1
 445 2578 l 1
 459 2592 l 1
 556 2476 l 1
 553 2473 l 1
 579 2440 l 1
 583 2442 l 1
 623 2346 675 2252 732 2168 c 1
675 1864 m 1
 674 1864 675 1867 673 1867 c 1
 673 1867 670 1864 670 1862 c 1
 670 1864 674 1864 675 1864 c 1
EndSplineSet
EndChar

StartChar: zcaron
Encoding: 295 382 124
Width: 1273
VWidth: 2308
Flags: HW
HStem: -60 321<649.406 848> -38 299<649.204 684 738 846.222> 1454 2<574 574.955>
VStem: 522 17<1490 1515> 845 36<-131.882 -60.0517>
LayerCount: 2
Fore
SplineSet
323 726 m 1x78
 305 704 l 1
 305 685 l 1
 342 726 l 1
 358 726 l 1
 358 786 572 842 612 842 c 2
 644 842 l 1
 606 822 576 776 576 724 c 0
 576 717 576 710 578 704 c 1
 555 704 538 630 522 610 c 1
 522 517 l 1
 505 517 l 1
 490 498 483 452 483 416 c 0
 483 400 484 387 486 377 c 1
 468 377 l 1
 468 355 l 1
 449 355 l 1
 437 286 l 1
 449 261 l 1
 432 261 l 1x78
 423 213 401 161 378 123 c 1
 378 31 l 1
 410 -18 l 1
 413 -16 l 1
 413 -36 415 -71 432 -86 c 1
 472 -56 l 1
 483 -60 l 1xb8
 486 -38 l 1
 468 -38 l 1x78
 486 -16 l 1
 490 -17 497 -18 502 -18 c 0
 530 -18 549 8 557 8 c 0
 574 8 595 5 595 -20 c 0
 595 -28 594 -38 594 -45 c 0
 594 -55 597 -60 612 -60 c 2
 630 -60 l 1xb8
 612 -38 l 1
 738 -38 l 2x78
 777 -38 810 -60 848 -60 c 1
 846 -70 845 -86 845 -99 c 0
 845 -115 848 -132 864 -132 c 2
 883 -132 l 1
 881 -128 881 -124 881 -120 c 0
 881 -82 919 -22 919 8 c 2
 919 79 l 1
 901 100 l 1
 919 100 l 1
 919 146 l 1
 937 170 l 1
 957 170 l 1
 937 195 l 1
 957 217 l 1
 937 217 l 1
 937 240 l 1
 904 240 879 261 848 261 c 2
 684 261 l 2xb8
 680 261 653 243 649 240 c 1
 649 261 l 1
 662 261 668 269 668 284 c 2
 667 310 l 1
 684 286 l 1
 703 332 l 1
 701 336 701 339 701 346 c 0
 701 360 707 377 720 377 c 1
 703 402 l 1
 720 402 l 1
 720 426 l 1
 738 426 l 1
 738 472 l 1
 757 472 l 1
 757 493 l 1
 775 493 l 1
 775 564 l 1
 793 558 l 1
 793 594 830 592 830 657 c 1
 848 657 l 1
 864 679 l 1
 864 704 l 1
 893 704 901 744 901 773 c 1
 937 773 l 1
 957 795 l 1
 957 842 l 1
 977 820 l 1
 992 820 1047 942 1056 957 c 1
 1056 1253 1196 1275 1196 1419 c 1
 1178 1419 l 1
 1178 1443 l 1
 1117 1468 l 1
 1096 1443 l 1
 1077 1443 l 1
 1077 1468 l 1
 1031 1488 984 1490 939 1490 c 2
 883 1490 l 1
 883 1515 l 1
 539 1515 l 1
 539 1490 l 1
 522 1490 l 1
 522 1515 l 1
 378 1515 l 2
 279 1515 177 1443 64 1443 c 1
 97 1300 217 1178 246 1026 c 0
 267 916 272 817 305 707 c 1
 305 726 l 1
 323 726 l 1x78
632 2176.70019531 m 5
 743 2308.70019531 800 2486.70019531 923 2599.70019531 c 5
 937 2586.70019531 l 5
 942 2589.70019531 l 5
 1096 2440.70019531 l 5
 813 1870.70019531 l 5
 819 1867.70019531 l 5
 802 1863.70019531 l 5
 766 1863.70019531 729 1872.70019531 695 1878.70019531 c 5
 695 1880.70019531 l 5
 658 1882.70019531 622 1886.70019531 585 1886.70019531 c 5
 573 1874.70019531 l 5
 568 1876.70019531 559 1878.70019531 549 1878.70019531 c 4
 517 1878.70019531 471 1870.70019531 453 1870.70019531 c 5
 192 2486.70019531 l 5
 210 2486.70019531 319 2573.70019531 340 2589.70019531 c 5
 345 2586.70019531 l 5
 359 2599.70019531 l 5
 456 2484.70019531 l 5
 453 2480.70019531 l 5
 479 2448.70019531 l 5
 483 2450.70019531 l 5
 523 2354.70019531 575 2260.70019531 632 2176.70019531 c 5
575 1454 m 1
 574 1454 575 1456 573 1456 c 1
 573 1456 570 1454 570 1452 c 1
 570 1454 574 1454 575 1454 c 1
EndSplineSet
EndChar

StartChar: colon
Encoding: 28 58 125
Width: 791
VWidth: 2308
Flags: W
HStem: 122 3<404 415> 122 1<404 414.437> 138 589<284.763 578.76> 1482 259<395 651> 1618 63<107.094 130.964>
VStem: 118 520<465.597 662.035> 142 522<1150.06 1477.58>
LayerCount: 2
Fore
SplineSet
410 1150 m 1x32
 415 1135 l 1
 404 1135 391 1137 380 1137 c 0
 364 1137 340 1135 329 1120 c 1
 286 1116 240 1112 201 1092 c 1
 209 1109 l 1
 197 1118 l 1
 188 1107 176 1094 162 1091 c 1
 165 1226 l 1
 165 1277 142 1334 142 1389 c 0
 142 1431 146 1476 169 1512 c 1
 133 1514 137 1618 113 1618 c 0
 111 1618 109 1618 107 1616 c 1
 106 1645 91 1670 65 1676 c 1
 87 1688 l 1
 100 1685 115 1681 128 1681 c 0x2a
 144 1681 157 1690 162 1709 c 1
 201 1707 242 1706 281 1706 c 0
 292 1706 384 1731 395 1741 c 1
 546 1735 540 1726 662 1712 c 1
 664 1693 666 1676 666 1657 c 0
 666 1612 651 1569 651 1527 c 0
 651 1513 653 1498 658 1480 c 1
 651 1482 l 1
 646 1482 638 1479 633 1478 c 1
 642 1469 653 1462 664 1460 c 1
 670 1150 l 1
 649 1142 631 1140 610 1140 c 0
 596 1140 581 1128 566 1128 c 0
 524 1128 468 1150 410 1150 c 1x32
176 201 m 1
 129.580851666 317.298882552 142.964601589 434.260278816 118 556 c 1
 118 570 122 588 122 600 c 0
 122 638 97 650 69 666 c 1
 93 677 141 669 153 694 c 1
 159 694 373 716 387 727 c 1
 457 717 528 735 596 707 c 1
 603 712 l 1
 616 702 631 694 647 694 c 0
 651 694 656 694 660 696 c 1
 651 656 638 615 638 574 c 0x64
 638 536 651 498 664 464 c 1
 653 469 l 1
 646 465 637 462 629 462 c 1
 642 454 653 447 668 447 c 1
 642 113 l 1
 631 123 l 1x62
 610 125 l 2
 607 125 572 110 566 108 c 1
 538 118 542 138 511 138 c 0
 476 138 439 129 404 125 c 1
 415 122 l 1xa2
 403 122 391 123 378 123 c 0x62
 352 123 340 91 315 91 c 0
 292 91 269 98 246 98 c 0
 229 98 211 93 205 75 c 1
 209 91 l 1
 192 106 l 1
 185 93 172 81 159 81 c 1
 176 201 l 1
EndSplineSet
EndChar

StartChar: semicolon
Encoding: 29 59 126
Width: 770
VWidth: 2308
Flags: W
HStem: 1135 5<361.734 376.86> 1505 21G<641 643> 1681 5<49 70>
VStem: 121 520<164 187 188.418 312 471.064 658.495> 136 496<251.405 595.213 1454.53 1507.35> 386 2<-147 -135> 386 0<-147 -135> 388 199<-294 -193.46 -191.434 -10.5355> 632 2<164 166> 641 11<1506.45 1507>
LayerCount: 2
Fore
SplineSet
634 187 m 1xe080
 634 179.333333333 634 171.666666667 634 164 c 1
 632 164 632 164 632 166 c 2
 647 112 l 1
 634 94 593 -262 587 -316 c 1
 388 -294 l 1
 383 -264 381 -223 381 -192 c 0
 381 -180 381 -163 386 -152 c 1xe380
 386 -135 l 1
 388 -147 l 1xe4
 390 -122 394 -20 416 -10 c 1
 427 85 l 1
 386 89 318 83 282 108 c 1
 140 89 l 1
 140 92 140 113 131 113 c 0
 129 113 125 112 123 110 c 1
 112 122 103 138 96 154 c 1
 107 199 121 250 121 300 c 1xf0
 119 312 l 1
 126 363 140 416 140 469 c 0
 140 513 114 559 114 597 c 0
 114 632 117 666 119 700 c 1
 126 700 l 2
 142 700 145 679 158 679 c 0
 177 679 182 700 193 714 c 1
 241 698 304 675 353 675 c 0
 363 675 372 675 379 681 c 1
 383 659 l 1
 420 663 518 700 534 700 c 0
 551 700 580 676 592 676 c 2
 610 676 l 1
 639 700 l 1
 639 460 l 1
 641 460 l 1
 643 454 650 438 650 434 c 0
 650 408 648 383 647 358 c 1
 641 358 l 1
 641 339 l 1xe040
 627 330 l 1
 629 324 641 298 641 294 c 0xf0
 641 263 638 217 636 187 c 1
 634 187 l 1xe080
307 1130 m 1
 307 1132 304 1132 302 1132 c 0
 287 1132 221 1079 170 1077 c 1
 175 1089 180 1101 189 1112 c 1
 179 1118 l 1
 171 1109 158 1099 145 1099 c 2
 140 1099 l 1
 151 1231 l 1
 134 1234 133 1301 133 1313 c 0
 133 1354 138 1395 152 1431 c 1
 140 1431 136 1446 136 1462 c 0
 136 1480 142 1502 143 1508 c 1
 107 1524 116 1600 112 1635 c 1
 88 1616 l 1
 88 1635 70 1681 49 1681 c 1
 68 1686 l 1
 107 1676 l 1
 142 1721 251 1719 321 1719 c 0
 342 1719 361 1740 374 1756 c 1
 416 1750 462 1748 503 1737 c 1
 514 1741 523 1746 534 1746 c 0
 569 1746 615 1704 652 1691 c 1
 647 1683 641 1671 641 1661 c 0
 641 1640 652 1620 652 1596 c 0
 652 1565 645 1536 641 1505 c 1
 641 1507 639 1507 638 1507 c 0
 634 1507 632 1504 632 1500 c 0
 632 1492 639 1479 641 1478 c 2
 632 1482 l 1xe840
 627 1479 617 1478 611 1478 c 1
 645 1462 l 1
 645 1168 l 1
 611 1137 l 1
 601 1139 592 1140 580 1140 c 0
 564 1140 539 1132 530 1132 c 0
 512 1132 483 1147 458 1147 c 0
 409 1147 355 1143 307 1130 c 1
348 1137 m 1
 361 1137 l 1
 361 1137 365 1140 367 1140 c 0
 372 1140 374 1137 377 1135 c 1
 348 1137 l 1
648 103 m 1
 647 112 l 2
 648 112 648 103 648 103 c 1
EndSplineSet
EndChar

StartChar: Oslash
Encoding: 138 216 127
Width: 1348
VWidth: 2308
Flags: HW
HStem: 2 185<550.49 645.482> 349 24<656 676> 1487 20G<460.5 573.391 578.609 613 698.609 737>
VStem: 114 926<1089 1310> 194 280<488.002 510 511.181 763.26> 456 52<-136.654 -39.4773> 492 4<418 423.906> 494 2<418.048 429> 656 78<-174.988 -52.625> 838 58<-95.8765 -21.9688> 936 22<1390 1416>
LayerCount: 2
Back
SplineSet
-50 -65 m 1xe1
 74.5275160343 131.574987156 273.613026688 252.294873445 410 437 c 1
 410 439 l 1
 512 549 1213 1322 1340 1390 c 1
 1333 1371 l 1
 1312 1371 l 1
 1317 1362 l 1
 1342 1365 l 1
 1340 1354 l 1
 1347 1356 l 1
 1361 1340 l 1
 1291 1258 1217 1181 1134 1113 c 1
 1138 1101 l 1
 1107 1060 524 443 494 424 c 1
 494 429 l 1
 489 429 488 420 484 414 c 1
 486 414 l 1
 436 360 l 1
 419 360 19 -66 -42 -124 c 1
 -32 -103 l 1
 -34 -103 -34 -99 -34 -97 c 0
 -34 -68 -4 -77 -4 -53 c 0
 -4 -51 -6 -51 -8 -51 c 0
 -15 -51 -42 -65 -48 -68 c 1
 -46 -66 l 1
 -50 -65 l 1xe1
490 419 m 1
 490 418 l 1
 488 416 486 416 486 414 c 1
 492 418 l 2xe2
 492 419 494 422 494 424 c 1
 494 422 491 421 490 419 c 1
602 2 m 1
 522.035414903 3.82249256096 516.615446503 -80.7966292657 508 -152 c 1
 458 -152 456 -106 456 -91 c 0xe4c0
 456 -26 351 8 314 46 c 1
 314 24 l 1
 296 24 l 1
 314 46 l 1
 285 84 234 132 234 187 c 1
 256 187 l 1
 256 301 194 385 194 515 c 0xe8
 194 677 136 824 136 974 c 1
 114 998 l 1
 136 979 l 1
 130 1046 l 1
 122 1041 l 1
 114 1044 l 1
 136 1069 l 1
 114 1089 l 1xf0
 114 1316 365 1507 556 1507 c 1
 576 1484 l 1
 596 1507 l 1
 630 1507 661 1484 696 1484 c 1
 716 1507 l 1
 758 1460 839 1444 896 1438 c 1
 936 1390 l 1
 936 1416 l 1
 958 1416 l 1
 956 1390 l 1
 976 1367 l 1
 958 1344 l 1xe060
 972 1344 1040 1339 1040 1310 c 0xf0
 1040 1306 1038 1303 1036 1300 c 1
 1074 1251 l 1
 1056 1251 l 1
 1056 1188 1054 1092 1092 1044 c 1
 1066 1044 1056 1020 1056 996 c 0
 1056 975 1060 955 1068 942 c 1
 1062 929 1054 908 1054 892 c 0
 1054 888 1054 885 1056 882 c 1
 1074 882 l 1
 1074 868 l 2
 1074 811 1073 464 1016 464 c 1
 1016 418 998 370 998 324 c 1
 1016 324 l 1
 968 250 l 1
 976 233 l 1
 970 166 934 98 896 46 c 1
 896 -14 875 -68 858 -130 c 1
 844 -130 835 -134 834 -140 c 1
 834 -106 838 -72 838 -60 c 0
 838 -48 826 -20 810 -20 c 1
 798 -22 l 1
 748 -77 735 -99 734 -135 c 1
 736 -130 l 2
 736 -132 735 -134 734 -135 c 1
 734 -140 l 1
 726 -159 709 -175 696 -175 c 0
 663 -175 654 -173 654 -175 c 1
 654 -161 656 -148 656 -138 c 0xe0c0
 656 -97 654 2 602 2 c 1
676 373 m 1
 696 396 l 1
 696 580 l 2
 696 647 676 661 676 746 c 2
 676 766 l 1
 636 835 l 1
 636 860 610 858 596 858 c 1
 596 882 l 1
 576 882 l 1
 576 870 569 858 556 858 c 1
 556 835 l 1
 536 835 l 1
 496 766 l 1
 496 707 474 683 474 605 c 0
 474 572 474 535 496 510 c 1
 474 510 l 1
 474 490 478 488 496 488 c 1
 496 373 l 1xe980
 517 349 520 257 536 257 c 1
 554 231 557 187 596 187 c 0
 651 187 676 302 676 349 c 1
 656 349 l 1
 656 373 l 1
 676 373 l 1
514 -132 m 1
 514 -134 512 -138 512 -142 c 2
 512 -138 l 2
 512 -136 514 -134 514 -132 c 1
EndSplineSet
Fore
SplineSet
514 -132 m 1
 514 -134 512 -138 512 -142 c 2
 512 -138 l 2
 512 -136 514 -134 514 -132 c 1
676 373 m 1
 696 396 l 1
 696 580 l 2
 696 598.010885499 694.554724899 612.191791979 692.44121001 624.951529078 c 1
 593.511599928 521.668959249 512.767296978 438.96090741 496 425.478463632 c 1
 496 373 l 1
 517 349 520 257 536 257 c 1
 554 231 557 187 596 187 c 0
 651 187 676 302 676 349 c 1
 656 349 l 1
 656 373 l 1
 676 373 l 1
602 2 m 1
 522.035414903 3.82249256096 516.615446503 -80.7966292657 508 -152 c 1
 458 -152 456 -106 456 -91 c 0
 456 -26 351 8 314 46 c 1
 314 24 l 1
 296 24 l 1
 314 46 l 1
 289.125237768 78.5945160276 248.064288244 118.546389916 236.885822124 163.962388622 c 1
 120.635533017 43.7433752268 -9.32283042825 -92.9299043416 -42 -124 c 1
 -32 -103 l 1
 -34 -103 -34 -99 -34 -97 c 0
 -34 -68 -4 -77 -4 -53 c 0
 -4 -51 -6 -51 -8 -51 c 0
 -15 -51 -42 -65 -48 -68 c 1
 -46 -66 l 1
 -50 -65 l 1
 30.5812285493 62.2028421633 142.382344803 157.64265552 248.212276575 259.210621985 c 1
 231.561284056 340.497310062 193.999999999 413.814630301 194 515 c 0
 194 677 136 824 136 974 c 1
 114 998 l 1
 136 979 l 1
 130 1046 l 1
 122 1041 l 1
 114 1044 l 1
 136 1069 l 1
 114 1089 l 1
 114 1316 365 1507 556 1507 c 1
 576 1484 l 1
 596 1507 l 1
 630 1507 661 1484 696 1484 c 1
 716 1507 l 1
 758 1460 839 1444 896 1438 c 1
 936 1390 l 1
 936 1416 l 1
 958 1416 l 1
 956 1390 l 1
 976 1367 l 1
 958 1344 l 1
 972 1344 1040 1339 1040 1310 c 0
 1040 1306 1038 1303 1036 1300 c 1
 1074 1251 l 1
 1056 1251 l 1
 1056 1217.10707174 1055.42114861 1173.66309553 1060.80310203 1133.28026553 c 1
 1189.14154645 1264.03333572 1297.18676369 1367.07637737 1340 1390 c 1
 1333 1371 l 1
 1312 1371 l 1
 1317 1362 l 1
 1342 1365 l 1
 1340 1354 l 1
 1347 1356 l 1
 1361 1340 l 1
 1291 1258 1217 1181 1134 1113 c 1
 1138 1101 l 1
 1133.30795059 1094.79438627 1115.97026033 1075.3933212 1089.81839477 1046.86752026 c 1
 1090.53053925 1045.89376356 1091.25763662 1044.93772217 1092 1044 c 1
 1090.22095946 1044 1088.51682981 1043.88763366 1086.88568759 1043.6705908 c 1
 1078.0203478 1034.01241077 1068.20581308 1023.37201295 1057.58081079 1011.89678993 c 1
 1056.50428799 1006.77905148 1056.00000001 1001.38952574 1056 996 c 0
 1056 975 1060 955 1068 942 c 1
 1062 929 1054 908 1054 892 c 0
 1054 888 1054 885 1056 882 c 1
 1074 882 l 1
 1074 868 l 2
 1074 811 1073 464 1016 464 c 1
 1016 418 998 370 998 324 c 1
 1016 324 l 1
 968 250 l 1
 976 233 l 1
 970 166 934 98 896 46 c 1
 896 -14 875 -68 858 -130 c 1
 844 -130 835 -134 834 -140 c 1
 834 -106 838 -72 838 -60 c 0
 838 -48 826 -20 810 -20 c 1
 798 -22 l 1
 748 -77 735 -99 734 -135 c 1
 736 -130 l 2
 736 -132 735 -134 734 -135 c 1
 734 -140 l 1
 726 -159 709 -175 696 -175 c 0
 663 -175 654 -173 654 -175 c 1
 654 -161 656 -148 656 -138 c 0
 656 -97 654 2 602 2 c 1
490 419 m 1
 490 418 l 1
 488 416 486 416 486 414 c 1
 492 418 l 2
 492 419 494 422 494 424 c 1
 494 422 491 421 490 419 c 1
676.319161881 728.060429739 m 1
 676.1119728 733.677413193 676 739.639954876 676 746 c 2
 676 766 l 1
 636 835 l 1
 636 860 610 858 596 858 c 1
 596 882 l 1
 576 882 l 1
 576 870 569 858 556 858 c 1
 556 835 l 1
 536 835 l 1
 496 766 l 1
 496 707 474 683 474 605 c 0
 474 577.27229917 487.05035843 546.720629954 487.05035843 522.836162118 c 1
 536.314818938 576.510149813 602.421698462 648.437110986 676.319161881 728.060429739 c 1
475.270182108 510 m 2
 474 510 l 2
 474 509.531224361 474.006721103 509.072337499 474.006721103 508.623133553 c 1
 474.426414007 509.080500362 474.84757001 509.539458441 475.270182108 510 c 2
EndSplineSet
EndChar

StartChar: fraction
Encoding: 322 8260 128
Width: 760
VWidth: 2308
Flags: W
HStem: 1500 20G<283 355.652 478 525.5>
VStem: 203 360<550.155 1032.74> 427 95<-30 -8.32521 -8 34.1932> 427 76<-55 -41>
LayerCount: 2
Fore
SplineSet
430 -8 m 1xa0
 431 -8 l 1
 431 21 418 38 395 38 c 0
 363 38 343 -7 324 -30 c 1
 269 -28 281 327 269 387 c 0
 237 555 203 717 203 892 c 0xc0
 203 971 214 1049 214 1128 c 1
 232 1128 l 1
 174 1265 l 1
 151 1316 51 1340 54 1418 c 1
 54 1426 l 1
 13 1452 l 1
 24 1474 l 1
 -5 1452 l 1
 -23 1474 l 1
 104 1474 226 1520 340 1520 c 1
 358 1497 l 1
 407 1497 453 1520 503 1520 c 1x90
 548 1474 695 1493 764 1474 c 1
 737 1449 683 1400 683 1358 c 1
 702 1358 l 1
 664 1313 640 1255 621 1197 c 1
 642 1174 l 1
 602 1022 563 843 563 685 c 0
 563 638 583 594 583 548 c 1
 570 532 565 505 563 483 c 1
 542 503 l 1
 542 469 563 440 563 408 c 1xc0
 522 387 l 1
 540 387 544 365 544 349 c 0
 544 221 522 94 522 -30 c 1xa0
 539 -30 542 -51 542 -66 c 2
 542 -77 l 1
 524 -73 507 -61 503 -41 c 1
 503 -55 l 1x90
 478 -56 l 1
 456 -58 427 -48 427 -22 c 0
 427 -18 428 -15 430 -8 c 1xa0
EndSplineSet
EndChar

StartChar: slash
Encoding: 17 47 129
Width: 597
VWidth: 2308
Flags: W
LayerCount: 2
Fore
SplineSet
283 459 m 1
 277.21025503 444.826693932 282.735211552 364.313899399 272 358 c 1
 240 358 211 100 152 8 c 1
 156 2 156 -3 156 -7 c 0
 156 -20 154 -35 146 -46 c 1
 146 -53 146 -56 146 -60 c 0
 146 -113 119 -152 104 -205 c 1
 91 -178 l 1
 77 -178 70 -173 70 -165 c 0
 70 -152 82 -134 82 -122 c 0
 82 -120 80 -113 78 -113 c 0
 65 -113 28 -158 14 -166 c 1
 17 -155 26 -140 26 -130 c 1
 15 -155 l 1
 8 -158 l 1
 -9 -158 -16 -145 -16 -130 c 0
 -16 38 126 245 126 375 c 1
 107 406 l 1
 223 884 l 1
 277 930 320 1064 320 1140 c 1
 346 1164 l 1
 342 1300 l 1
 375 1365 402 1464 429 1536 c 1
 432 1555 l 1
 483 1614 l 1
 499 1596 l 1
 464 1582 l 1
 467 1580 471 1580 474 1580 c 0
 491 1580 513 1590 524 1594 c 1
 536 1584 l 1
 554 1594 l 1
 600 1586 l 1
 578 1512 566 1503 566 1419 c 0
 566 1373 511 1269 491 1226 c 1
 520 1219 l 1
 510 1154 364 702 332 602 c 1
 336 618 l 1
 323 592 l 1
 327 577 329 564 329 551 c 0
 329 505 301 487 285 440 c 1
 286 447 l 1
 283 459 l 1
EndSplineSet
EndChar

StartChar: oslash
Encoding: 169 248 130
Width: 1386
VWidth: 2308
Flags: HW
HStem: 6 186<506.782 595.728> 1072 25<84 88> 1492 20G<378.5 558 559.818 597 689 729>
VStem: 494 1<498 500.107> 777 44<-154.928 -41.5469>
LayerCount: 2
Back
SplineSet
-22 16 m 1
 99.0381677078 208.490435092 295.221455143 330.75755375 415 517 c 1
 415 519 l 1
 515 630 1186 1403 1314 1472 c 1
 1306 1452 l 1
 1286 1452 l 1
 1290 1443 l 1
 1316 1445 l 1
 1314 1436 l 1
 1321 1438 l 1
 1334 1421 l 1
 1264 1339 1190 1263 1107 1195 c 1
 1111 1181 l 1
 1081 1141 525 524 497 505 c 1
 497 510 l 1
 492 510 492 501 488 495 c 1
 490 495 l 1
 439 440 l 1
 424 440 45 14 -16 -43 c 1
 -4 -22 l 2
 -5 -22 -6 -17 -6 -16 c 0
 -6 14 22 4 22 29 c 0
 22 31 22 31 20 31 c 0
 13.594783478 31 -11.2306283762 18.4327068427 -20 14 c 1
 -22 16 l 1
494 500 m 1
 495 502 497 503 497 505 c 1
 497 503 495 500 495 498 c 1
 490 495 l 1
 490 497 492 497 494 498 c 1
 494 500 l 1
1064 842 m 1
 1042.40124422 608.982925144 977.722754781 407.479088164 921 192 c 1
 939 170 l 1
 908 170 887 106 882 77 c 1
 827 14 821 -27 821 -91 c 2
 821 -155 l 1
 801 -155 l 2
 780 -155 777 -144 777 -128 c 0
 777 -109 782 -87 782 -76 c 0
 782 -53 759 -40 742 -38 c 1
 742 -60 l 1
 729 -58 l 1
 701 -86 l 1
 681 -66 l 1
 681 -109 l 1
 653 -134 l 1
 562 -115 635 6 549 6 c 0
 526 6 513 -22 502 -22 c 0
 500 -22 496 -19 494 -16 c 1
 455 -73 l 1
 437 -39 402 43 366 43 c 0
 357 43 307 20 297 16 c 1
 293 82 242 92 242 170 c 1
 244 170 l 1
 244 221 217 303 204 355 c 0
 148 574 133 824 98 1050 c 1
 92 1046 l 1
 84 1048 l 1
 104 1072 l 1
 84 1072 l 1
 84 1097 l 1
 88 1097 l 1
 84 1120 l 1
 94 1118 l 1
 101 1133 106 1154 106 1172 c 0
 106 1179 104 1184 104 1188 c 1
 86 1188 l 1
 129 1201 199 1512 558 1512 c 1
 558 1490 l 1
 578 1512 l 1
 616 1512 651 1490 689 1490 c 1
 689 1512 l 1
 769 1512 873 1431 933 1375 c 1
 952 1397 l 1
 954 1379 l 1
 937 1375 l 1
 971 1350 l 1
 954 1329 l 1
 961 1314 993 1282 1011 1282 c 2
 1015 1282 l 1
 1064 1212 l 1
 1051 1212 l 1
 1045 1186 1045 1159 1045 1130 c 0
 1045 1101 1045 1072 1047 1048 c 1
 1064 1026 l 1
 1064 963 1047 905 1047 842 c 1
 1064 842 l 1
661 402 m 1
 641 424 l 1
 641 449 l 1
 651 470 658 479 670 493 c 1
 670 564 l 2
 670 587 667 614 652 632 c 1
 652 683 l 2
 652 736 641 866 576 866 c 2
 539 866 l 1
 539 842 l 1
 519 842 l 1
 485 797 462 743 462 679 c 2
 462 493 l 2
 462 485 468 474 473 470 c 1
 462 470 l 1
 457 402 l 1
 457 383 466 367 478 355 c 1
 478 309 504 227 531 192 c 1
 549 192 l 2
 606 192 622 263 622 322 c 0
 622 334 622 344 620 355 c 1
 641 355 l 1
 641 402 l 1
 661 402 l 1
104 1003 m 1
 84 1003 l 1
 84 1026 l 1
 104 1003 l 1
104 981 m 1
 84 981 l 1
 88 992 l 1
 104 981 l 1
EndSplineSet
Fore
SplineSet
104 981 m 1
 84 981 l 1
 88 992 l 1
 104 981 l 1
104 1003 m 1
 84 1003 l 1
 84 1026 l 1
 104 1003 l 1
661 402 m 1
 641 424 l 1
 641 449 l 1
 651 470 658 479 670 493 c 1
 670 564 l 2
 670 587 667 614 652 632 c 1
 652 668.940451558 l 1
 569.219302576 578.643105282 505.97648494 511.091186209 497 505 c 1
 497 510 l 1
 492 510 492 501 488 495 c 1
 490 495 l 1
 469.849320514 473.268875065 l 1
 470.901252139 471.941197416 471.97177116 470.822583072 473 470 c 2
 466.818181818 470 l 1
 461.585029753 464.356404635 l 1
 457 402 l 1
 457 383 466 367 478 355 c 1
 478 309 504 227 531 192 c 1
 549 192 l 2
 606 192 622 263 622 322 c 0
 622 334 622 344 620 355 c 1
 641 355 l 1
 641 402 l 1
 661 402 l 1
1064 842 m 1
 1042.40124422 608.982925144 977.722754781 407.479088164 921 192 c 1
 939 170 l 1
 908 170 887 106 882 77 c 1
 827 14 821 -27 821 -91 c 2
 821 -155 l 1
 801 -155 l 2
 780 -155 777 -144 777 -128 c 0
 777 -109 782 -87 782 -76 c 0
 782 -53 759 -40 742 -38 c 1
 742 -60 l 1
 729 -58 l 1
 701 -86 l 1
 681 -66 l 1
 681 -109 l 1
 653 -134 l 1
 562 -115 635 6 549 6 c 0
 526 6 513 -22 502 -22 c 0
 500 -22 496 -19 494 -16 c 1
 455 -73 l 1
 437 -39 402 43 366 43 c 0
 357 43 307 20 297 16 c 1
 293 82 242 92 242 170 c 1
 244 170 l 1
 244 186.843038865 241.055142302 207.067210642 236.642271112 228.475259324 c 1
 130.111222729 112.412773954 15.2708787923 -13.7796706224 -16 -43 c 1
 -4 -22 l 2
 -5 -22 -6 -17 -6 -16 c 0
 -6 14 22 4 22 29 c 0
 22 31 22 31 20 31 c 0
 13.594783478 31 -11.2306283762 18.4327068427 -20 14 c 1
 -22 16 l 1
 44.6283969616 121.961031661 134.027412493 206.642859042 220.917654983 292.430590416 c 1
 214.734877972 315.204850431 208.5208799 336.916480399 204 355 c 0
 148 574 133 824 98 1050 c 1
 92 1046 l 1
 84 1048 l 1
 104 1072 l 1
 84 1072 l 1
 84 1097 l 1
 88 1097 l 1
 84 1120 l 1
 94 1118 l 1
 101 1133 106 1154 106 1172 c 0
 106 1179 104 1184 104 1188 c 1
 86 1188 l 1
 129 1201 199 1512 558 1512 c 1
 558 1490 l 1
 578 1512 l 1
 616 1512 651 1490 689 1490 c 1
 689 1512 l 1
 769 1512 873 1431 933 1375 c 1
 952 1397 l 1
 954 1379 l 1
 937 1375 l 1
 971 1350 l 1
 954 1329 l 1
 961 1314 993 1282 1011 1282 c 2
 1015 1282 l 1
 1053.67739283 1226.74658167 l 1
 1172.49460526 1351.8594089 1272.20037528 1449.4673898 1314 1472 c 1
 1306 1452 l 1
 1286 1452 l 1
 1290 1443 l 1
 1316 1445 l 1
 1314 1436 l 1
 1321 1438 l 1
 1334 1421 l 1
 1264 1339 1190 1263 1107 1195 c 1
 1111 1181 l 1
 1105.34630308 1173.46173744 1081.0112551 1145.43081411 1045.04948892 1104.7717401 c 1
 1045.16983036 1084.52325443 1045.58280419 1065.00634974 1047 1048 c 1
 1064 1026 l 1
 1064 963 1047 905 1047 842 c 1
 1064 842 l 1
490 495 m 1
 490 497 492 497 494 498 c 1
 494 500 l 1
 495 502 497 503 497 505 c 1
 497 503 495 500 495 498 c 1
 490 495 l 1
642.789782958 776.165357614 m 1
 632.964184742 822.868923959 613.440085087 866 576 866 c 2
 539 866 l 1
 539 842 l 1
 519 842 l 1
 485 797 462 743 462 679 c 2
 462 571.907329126 l 1
 505.281889578 620.879644105 569.063752134 693.280204538 642.789782958 776.165357614 c 1
EndSplineSet
EndChar

StartChar: hyphen
Encoding: 15 45 131
Width: 979
VWidth: 2308
Flags: W
HStem: 596 390<265 388 409.079 460.622 488 511 536.014 685.357 691 703.316 769.288 813.924>
VStem: 488 48<595.999 607.467> 709 107<595.077 639.984>
LayerCount: 2
Fore
SplineSet
265 596 m 1
 199 642 l 1
 199 627 194 613 176 613 c 0
 153 613 131 627 112 642 c 1
 125 986 l 1
 388 986 l 1
 388 972 398 967 408 967 c 0
 431 967 455 979 479 979 c 0
 510 979 542 981 575 981 c 0
 614 981 652 977 687 964 c 1
 691 979 l 1
 878 979 l 1
 827 844 l 1
 821 847 l 1
 830 817 l 1
 821 820 l 1
 816 794 814 765 814 740 c 0
 814 716 816 689 816 663 c 0
 816 638 814 617 809 594 c 1
 707 590 l 1
 709 605 l 1
 709 618 704 640 688 640 c 1
 682 638 l 1
 705 615 l 1
 669 608 638 607 601 607 c 0
 598 607 585 608 571 608 c 0
 555 608 536 605 536 596 c 0
 536 594 536 592 538 590 c 1
 514 587 l 1
 511 596 l 1
 498 596 488 594 488 615 c 2
 488 623 l 1
 511 600 l 1
 514 623 l 1
 488 623 l 1
 490 632 l 1
 465 628 l 1
 461 600 l 1
 453 598 441 594 433 594 c 2
 265 596 l 1
EndSplineSet
EndChar

StartChar: zero
Encoding: 18 48 132
Width: 1083
VWidth: 2308
Flags: W
HStem: 1072 25<87 91> 1492 20G<345 507 508.636 543.5>
VStem: 175 260<207.166 462.102> 580 280<200.093 344.812>
LayerCount: 2
Fore
SplineSet
108 1003 m 1
 87 1003 l 1
 87 1026 l 1
 108 1003 l 1
 102 1050 l 1
 94 1046 l 1
 87 1048 l 1
 108 1072 l 1
 87 1072 l 1
 87 1097 l 1
 91 1097 l 1
 87 1120 l 1
 96 1118 l 1
 104 1133 110 1154 110 1172 c 0
 110 1179 108 1184 108 1188 c 1
 89 1188 l 1
 126 1201 183 1512 507 1512 c 1
 507 1490 l 1
 525 1512 l 1
 562 1512 598 1490 639 1490 c 1
 639 1512 l 1
 707 1512 796 1426 843 1375 c 1
 864 1397 l 1
 866 1379 l 1
 847 1375 l 1
 884 1350 l 1
 866 1329 l 1
 873 1314 908 1282 926 1282 c 0
 928 1282 928 1282 931 1282 c 1
 984 1212 l 1
 969 1212 l 1
 963 1186 963 1159 963 1130 c 0
 963 1101 963 1072 965 1048 c 1
 984 1026 l 1
 984 963 982 904 965 842 c 1
 984 842 l 1
 980 777 958 465 941 424 c 0
 913 358 860 266 860 192 c 1
 880 170 l 1
 847 170 827 106 822 77 c 1
 775 43 779 21 779 -35 c 1
 759 -35 l 1
 734 -12 l 1
 729 -27 715 -38 700 -38 c 1
 700 -60 l 1
 687 -58 l 1
 659 -86 l 1
 639 -68 l 1
 639 -109 l 1
 611 -134 l 1
 578 -125 537 -116 507 -116 c 0
 475 -116 468 13 460 13 c 0
 432 13 432 -49 410 -73 c 1
 365 -69 380 43 310 43 c 0
 301 43 245 20 235 16 c 1
 229 84 173 91 173 170 c 1
 175 170 l 1
 175 211 155 340 143 377 c 0
 119 449 110 906 108 981 c 1
 108 1003 l 1
618 402 m 1
 598 424 l 1
 598 449 l 2
 598 470 606 479 618 493 c 1
 618 564 l 2
 618 587 615 614 598 632 c 1
 598 683 l 2
 598 736 589 866 524 866 c 2
 489 866 l 1
 489 842 l 1
 470 842 l 1
 437 797 414 743 414 679 c 2
 414 493 l 2
 414 485 419 474 425 470 c 1
 414 470 l 1
 414 402 l 2
 414 383 423 367 435 355 c 1
 435 309 462 227 489 192 c 1
 507 192 l 2
 564 192 580 263 580 322 c 0
 580 334 580 344 578 355 c 1
 598 355 l 1
 598 402 l 1
 618 402 l 1
108 981 m 1
 87 981 l 1
 91 992 l 1
 108 981 l 1
EndSplineSet
EndChar

StartChar: plus
Encoding: 13 43 133
Width: 940
VWidth: 2308
Flags: W
HStem: 615 309<121 328 726 828.959> 627 286<608 721.177>
VStem: 328 280<385 615 924 1049.96 1050 1165.77>
LayerCount: 2
Fore
SplineSet
335 924 m 1xa0
 335 979 l 2
 335 1044 328 1113 324 1178 c 1
 402 1181 l 1
 398 1176 l 1
 425 1186 l 1
 423 1176 l 1
 444 1170 466 1168 488 1168 c 0
 511 1168 530 1170 553 1170 c 0
 573 1170 592 1169 610 1162 c 1
 613 1050 l 1
 599 1050 599 1000 599 992 c 2
 599 914 l 1
 628 914 655 913 683 913 c 0x60
 733 913 790 924 842 928 c 1
 840 894 838 649 827 615 c 1xa0
 726 610 l 1
 720 635 l 1
 692 628 664 627 634 627 c 2
 608 627 l 1x60
 608 592 l 2
 608 524 604 454 604 385 c 1
 583 353 l 1
 328 353 l 1
 328 615 l 1
 258 615 191 620 121 620 c 1
 92 642 l 1
 92 924 l 1
 335 924 l 1xa0
706 638 m 2
 698 638 l 1
 720 635 l 1
 717 638 711 638 706 638 c 2
EndSplineSet
EndChar

StartChar: backslash
Encoding: 61 92 134
Width: 600
VWidth: 2308
Flags: W
LayerCount: 2
Fore
SplineSet
458 -46 m 1
 453 -36 447 -24 447 -12 c 0
 447 -4 449 2 453 8 c 1
 390 106 366 358 331 358 c 1
 321 386 323 459 321 459 c 0
 319 459 318 449 318 442 c 2
 318 440 l 1
 291 485 279 511 279 556 c 0
 279 567 279 578 281 592 c 1
 268 618 l 1
 272 602 l 1
 240 702 94 1154 84 1219 c 1
 113 1226 l 1
 75 1307 41 1362 41 1454 c 0
 41 1502 17 1541 4 1586 c 1
 50 1594 l 1
 69 1584 l 1
 80 1594 l 1
 91 1590 115 1580 126 1580 c 1
 141 1582 l 1
 106 1596 l 1
 120 1614 l 1
 173 1555 l 1
 194.459994766 1471.39264446 228.072852084 1372.58311382 263 1300 c 1
 259 1164 l 1
 284 1140 l 1
 284 1064 327 930 381 884 c 1
 497 406 l 1
 482 404 478 387 478 375 c 0
 478 247 618 38 620 -130 c 1
 597 -158 l 1
 588 -155 l 1
 578 -130 l 1
 576 -130 574 -132 574 -134 c 0
 574 -140 587 -155 590 -166 c 1
 576 -158 539 -113 526 -113 c 0
 523 -113 523 -116 523 -120 c 0
 523 -134 534 -162 534 -168 c 0
 534 -175 519 -178 513 -178 c 1
 500 -205 l 1
 486 -152 458 -113 458 -60 c 0
 458 -56 458 -53 458 -46 c 1
319 437 m 2
 318 440 l 2
 319 439 319 439 319 437 c 2
EndSplineSet
EndChar

StartChar: underscore
Encoding: 64 95 135
Width: 927
VWidth: 2308
Flags: W
HStem: -48 309<98 375 395.879 447.622 451.611 493 522.014 680.515>
LayerCount: 2
Fore
SplineSet
127 -43 m 1
 98 -41 l 1
 98 261 l 1
 375 261 l 1
 375 248 384 243 394 243 c 0
 434 243 479 255 526 255 c 0
 576 255 630 253 683 240 c 1
 688 255 l 1
 822 266 l 1
 813 144 l 1
 815 148 l 1
 813 133 813 117 813 103 c 0
 813 72 815 44 815 16 c 0
 815 -7 813 -27 808 -48 c 1
 706 -53 l 1
 708 -51 l 1
 708 -45 682 -45 678 -45 c 1
 704 -28 l 1
 664 -36 629 -36 588 -36 c 0
 584 -36 572 -35 557 -35 c 0
 541 -35 522 -38 522 -46 c 0
 522 -48 522 -51 524 -53 c 1
 501 -55 l 1
 499 -51 l 1
 501 -60 l 1
 475 -60 l 1
 493 -46 l 1
 479 -46 464 -53 451 -55 c 1
 448 -43 l 1
 440 -45 428 -48 420 -48 c 0
 329 -48 227 -43 127 -43 c 1
EndSplineSet
EndChar

StartChar: section
Encoding: 101 167 136
Width: 978
VWidth: 2308
Flags: W
HStem: 1508 20G<440 532> 1508 20G<440 532>
VStem: 52 336<285.844 571.814> 200 280<790.628 944> 594 236<368.667 480.984>
LayerCount: 2
Fore
SplineSet
726 51 m 1x98
 726 -77 l 1
 710 -79 l 1
 704 -134 696 -159 662 -196 c 1
 662 -219 l 2
 662 -265 615 -304 599 -351 c 1
 597 -349 596 -346 594 -346 c 0
 590 -346 587 -351 587 -354 c 1
 587 -354 587 -356 588 -356 c 2
 557 -343 l 1
 504 -370 l 1
 497 -339 l 1
 448 -339 l 1
 450 -356 l 1
 434 -356 l 1
 419 -341 l 1
 419 -356 l 1
 351 -351 l 1
 349 -373 338 -393 314 -393 c 0
 299 -393 281 -387 265 -383 c 1
 267 -375 l 1
 267 -339 170 -323 170 -205 c 1
 128 -155 130 -183 130 -120 c 1
 128 -111 126 -109 124 -109 c 0
 117 -109 110 -122 100 -122 c 0
 98 -122 97 -122 95 -120 c 1
 97 -91 128 -89 130 -58 c 1
 144 -60 l 1
 216 -60 299 -40 373 -36 c 1
 369 -24 l 1
 388 -20 l 1
 385 -84 l 1
 401 -99 l 1
 389 -118 l 1
 423 -138 l 1
 423 -140 423 -142 423 -144 c 0
 423 -154 425 -163 437 -163 c 2
 467 -161 l 1
 466 -145 l 1
 466 -125 475 -109 489 -99 c 1
 497 -60 l 1
 482 -45 l 1
 474 24 l 1
 467 2 l 1
 451 21 l 1
 436 21 421 21 406 21 c 0
 385 21 360 20 334 16 c 1
 331 32 318 55 299 55 c 2
 295 55 l 1
 304 79 l 1
 285 79 l 1
 267 59 l 1
 259 59 l 2
 209 59 107 128 107 187 c 0
 107 221 52 291 52 332 c 0xa8
 52 340 54 346 60 353 c 1
 52 375 49 398 49 421 c 0
 49 543 144 642 220 717 c 1
 198 735 l 1
 200 742 l 1
 200 872 156 1018 156 1152 c 0
 156 1352 363 1528 517 1528 c 1
 532 1517 l 1
 557 1538 l 1
 603 1527 763 1495 800 1449 c 1
 802 1462 l 1
 826 1428 905 1390 905 1350 c 1
 918 1340 940 1303 940 1291 c 0
 940 1283 933 1275 925 1275 c 0
 923 1275 921 1275 920 1277 c 1
 888 1132 844 988 817 842 c 1
 776 820 l 1
 750 860 l 1
 747 842 l 1
 631 825 l 1
 606 858 596 898 575 933 c 1
 590 942 l 1
 560 944 567 947 548 969 c 1
 562 961 l 1
 545 979 l 1
 545 961 l 1
 514 977 l 1
 486 944 l 1
 480 888 l 1
 480 845 508 815 529 785 c 1
 545 801 l 1
 577 789 793 728 798 700 c 1
 793 688 789 673 789 657 c 0
 789 619 809 582 831 551 c 1
 830 444 l 1
 817 444 l 1
 812 365 789 378 756 315 c 1
 758 300 l 1
 758 270 717 211 710 164 c 1
 706 166 l 1
 695 146 687 122 687 100 c 0
 687 75 696 51 721 51 c 2
 726 51 l 1x98
540 248 m 1
 542 361 l 1
 550 361 559 359 565 355 c 1
 563 359 563 363 563 367 c 0
 563 403 594 411 594 439 c 0
 594 459 592 481 577 481 c 1
 570 541 l 1
 566 538 563 532 563 526 c 1
 547 546 l 1
 532 543 l 1
 510 543 491 559 469 559 c 0
 466 559 461 555 459 551 c 1
 442 564 431 578 410 578 c 1
 407 602 l 1
 401 602 l 1
 396 529 388 453 388 381 c 0
 388 343 401 319 427 304 c 1
 434 261 l 1
 436 271 442 278 450 278 c 0
 472 278 519 258 540 248 c 1
695 172 m 1
 696 172 l 1
 695 174 695 174 695 176 c 2
 695 172 l 1
EndSplineSet
EndChar

StartChar: yen
Encoding: 99 165 137
Width: 1419
VWidth: 2308
Flags: W
HStem: 653 148<150 608.829 965 1338> 681 132<150 532.516> 942 147<131 496> 977 143<1014.85 1102> 1056 48<1318 1334> 1637 24<822 830.548> 1650 36<1355.14 1425>
VStem: 610 339<325.081 655.469>
LayerCount: 2
Fore
SplineSet
191 669 m 0x91
 170 669 149 675 128 681 c 1
 150 813 l 1x41
 305 813 461 803 609 801 c 1
 605 852 589 901 567 945 c 1
 504 945 l 2
 423 945 340 942 259 942 c 0
 219 942 180 952 131 952 c 1
 128 1089 l 1
 496 1082 l 1
 493 1178 461 1257 420 1336 c 1
 439 1336 l 1
 380 1344 364 1419 310 1429 c 1
 316 1470 l 1
 295 1474 l 1
 295 1498 l 1
 209 1599 29 1643 -55 1746 c 1
 121 1734 l 1
 128 1737 147 1739 165 1739 c 0
 189 1739 212 1737 221 1737 c 1
 205 1752 l 1
 223 1752 l 2
 251 1752 272 1726 302 1726 c 1
 312 1754 l 1
 542 1754 l 1
 531 1729 l 1
 541 1716 583 1640 583 1618 c 2
 583 1614 l 1
 604 1590 l 1
 621 1590 l 1
 621 1588 623 1586 623 1584 c 0
 623 1580 621 1573 621 1569 c 2
 621 1568 l 1
 705 1379 l 1
 826 1596 l 2
 828 1599 831 1611 831 1620 c 0
 831 1628 828 1637 820 1637 c 1
 822 1661 l 1
 840 1661 l 1xa5
 839 1667 837 1675 837 1681 c 0
 837 1714 855 1744 863 1774 c 1
 877 1752 890 1745 909 1745 c 0
 916 1745 925 1746 934 1748 c 1
 1000 1707 1104 1734 1137 1704 c 1
 1246 1704 l 1
 1237 1702 l 1
 1434 1686 l 1
 1425 1650 l 1
 1271.59552143 1642.95466623 1229.48663821 1465.12604013 1176 1450 c 1
 1178 1450 l 1
 1176 1443 1175 1423 1167 1423 c 0
 1163 1423 1162 1426 1159 1429 c 1
 1116 1379 1077 1318 1032 1267 c 1
 1032 1221 1029 1176 1014 1132 c 1
 1032 1122 1053 1120 1072 1120 c 2
 1102 1120 l 1x13
 1101 1125 l 1
 1342 1104 l 1
 1334 1056 l 1x09
 1318 1053 l 1
 1336 1034 l 1
 1318 1036 l 1
 1309 1028 1305 1023 1305 1020 c 0
 1305 1012 1312 1005 1312 993 c 0
 1312 951 1142 959 1111 957 c 1
 1118 964 1127 971 1127 983 c 0
 1127 993 1111 998 1105 998 c 2
 1086 996 l 1
 1126 981 l 1
 1099 979 1072 977 1046 977 c 0
 1030 977 1013 977 996 979 c 1
 986 923 966 864 965 805 c 1
 1338 815 l 1
 1342 702 l 2
 1342 676 1330 667 1310 656 c 1
 1261 662 1210 666 1164 666 c 1
 955 661 l 1
 951 602 949 543 949 487 c 0
 949 379 955 271 961 161 c 1
 955 172 930 197 921 197 c 0
 914 197 934 174 902 174 c 1
 879 226 l 1
 846 213 809 182 772 182 c 0
 765 182 756 183 749 187 c 1
 737 172 732 151 726 132 c 1
 702 151 l 1
 656 294 610 503 610 656 c 1
 585 654 561 653 538 653 c 0
 421 653 305 669 191 669 c 0x91
1198 1452 m 1
 1178 1450 l 1
 1198 1452 l 1
EndSplineSet
EndChar

StartChar: cent
Encoding: 97 162 138
Width: 1132
VWidth: 2308
Flags: W
HStem: -46 26<343.002 347.866> 1487 20G<412 461>
VStem: 139 368<354.535 602 628 810.128> 440 61<-91 -56> 540 68<-725.624 -646.768 -613.826 -46> 591 29<-748.717 -691.072> 627 19<797.666 803>
LayerCount: 2
Fore
SplineSet
1022 1142 m 1xe6
 1050.97886768 1131.54719089 1047.6585818 1086.99972823 1050 1038 c 1
 1050 913 1026 727 1008 580 c 1
 931 625 803 605 718 627 c 1
 702 602 l 1
 683 627 l 1
 702 673 l 1
 698 697 685 752 665 764 c 1
 683 789 l 1
 669 786 l 2
 668 786 659 806 653 806 c 0
 649 806 648 803 646 789 c 1
 638 803 627 825 627 847 c 0
 627 849 627 854 629 858 c 1
 600 858 570 837 560 805 c 1
 558 813 543 815 539 815 c 0
 514 815 507 783 507 745 c 0
 507 692 520 626 525 610 c 1
 518 604 498 549 498 541 c 0
 498 444 531 215 575 141 c 1
 629 185 l 1
 629 209 l 1
 660 251 675 317 683 371 c 1
 711 398 l 1
 762 398 886 369 927 324 c 1
 927 327 l 1
 949 324 l 1
 931 298 913 266 906 233 c 1
 927 233 l 1
 906 209 l 1
 908 199 910 189 910 176 c 0
 910 112 868 46 827 3 c 1
 809 24 l 1
 776 -20 752 -70 718 -113 c 1
 718 -91 l 1
 683 -138 l 1
 675 -96 652 -53 620 -33 c 1xe6
 612 -86 608 -145 608 -205 c 0xca
 608 -349 624 -504 624 -632 c 1
 620 -774 l 1
 591 -724 l 1xc6
 596 -690 l 1
 594 -680 l 1
 560 -764 l 1
 560 -750 l 1
 547 -759 l 1
 525 -759 527 -488 527 -474 c 0
 527 -370 540 -262 540 -155 c 1
 537 -46 l 1
 520 -46 l 1
 512 -33 498 -17 482 -10 c 1
 492 -41 501 -58 501 -91 c 1
 461 -113 l 1
 440 -91 l 1xda
 442 -56 l 1
 401 -22 l 1
 389 -26 352 -46 341 -46 c 0
 300 -46 271 57 262 92 c 1
 282 118 l 1
 208 118 202 292 201 349 c 1
 181 349 l 1
 181 437 139 515 139 602 c 1
 165 637 l 1
 160 649 l 1
 155 647 146 628 139 628 c 1
 139 649 l 1
 127 791 60 916 60 1066 c 0
 60 1172 114 1291 181 1367 c 1
 221 1344 l 1
 221 1377 l 1
 299 1458 363 1472 461 1507 c 1
 461 1484 l 1
 522 1525 l 1
 515 1569 l 1
 515 1707 l 2
 515 1851 518 2012 547 2121 c 1
 560 2104 l 1
 542 2074 l 1
 550 2076 l 1
 575 2112 l 1
 585 2104 l 1
 594 2127 l 1
 622 2135 l 1
 616 2017 l 1
 616 1909 620 1806 620 1702 c 0
 620 1648 620 1596 616 1541 c 1
 635 1543 l 1
 637 1520 l 1
 776 1502 810 1526 927 1390 c 1
 922 1397 918 1399 916 1399 c 0
 906 1399 906 1373 906 1367 c 1
 927 1367 l 1
 949 1390 l 1
 987 1344 l 1
 987 1291 1038 1263 1067 1229 c 1
 1067 1195 1045 1162 1022 1142 c 1xe6
348 -20 m 1
 348 -20 346 -18 345 -18 c 0
 343 -18 343 -20 343 -22 c 1
 343 -20 346 -20 348 -20 c 1
560 799 m 1
 560 805 l 1
 560 799 l 1
EndSplineSet
EndChar

StartChar: nine
Encoding: 27 57 139
Width: 1198
VWidth: 2308
Flags: W
HStem: 1502 20G<602.5 667>
VStem: 81 424<682.225 937.5> 546 34<-272 -241.661 -240.311 -45.5992> 635 16<-158 -56.5036> 684 308<294.33 431.045> 689 421<668.137 832.583> 798 39<-85.0881 -66>
LayerCount: 2
Fore
SplineSet
651 -168 m 1xf2
 635 -158 l 1
 635 -124 635 -87 643 -55 c 1
 636 -43 l 1
 615 -38 l 1
 586 -38 580 -77 580 -120 c 0
 580 -168 590 -227 590 -241 c 0
 590 -255 585 -275 582 -290 c 1
 559 -272 l 1
 546 -18 l 1
 500 -33 l 1
 503 2 l 1
 486 -20 468 -55 452 -76 c 1
 448 -43 l 1
 428 -43 l 1
 403 -20 l 1
 391 -36 l 1
 393 -51 l 1
 393 -63 384 -77 374 -84 c 1
 347 -80 340 -39 301 -33 c 1
 201 48 214 106 164 197 c 1
 166 226 l 2
 166 238 159 240 150 240 c 0
 140 240 131 238 125 238 c 1
 155 342 457 329 500 332 c 1
 494 329 l 1
 509 329 l 1
 507 325 507 319 507 312 c 0
 507 296 511 284 528 284 c 1
 523 192 l 1
 542 192 l 2
 553 192 558 189 558 178 c 2
 558 170 l 1
 580 168 l 1
 640 207 l 1
 644 241 668 260 684 286 c 1
 684 434 l 1xf8
 503 434 l 1
 442 406 l 1
 405 419 l 1
 387 447 l 1
 367 424 l 1
 335 453 289 445 262 469 c 0
 122 588 81 731 81 923 c 0
 81 952 88 979 96 1005 c 1
 90 1015 87 1029 87 1043 c 0
 87 1109 150 1205 169 1241 c 1
 169 1251 l 2
 169 1286 205 1310 232 1316 c 1
 368 1573 575 1443 630 1522 c 1
 704 1486 772 1524 858 1468 c 1
 854 1464 851 1459 851 1456 c 0
 851 1437 881 1409 895 1399 c 1
 909 1419 l 1
 976 1383 1027 1328 1078 1270 c 1
 1069 1234 l 1
 1049 1234 l 1
 1097 1087 1110 923 1110 766 c 0xf4
 1110 546 992 398 992 319 c 0xf8
 992 310 994 301 997 294 c 1
 948 261 l 1
 968 238 l 1
 939 126 860 162 828 -46 c 1
 833 -50 837 -58 837 -66 c 0
 837 -81 807 -96 798 -97 c 1
 806 -66 l 1
 770 -91 l 1
 747 -43 l 1
 823 -60 l 1
 752 -22 l 1
 664 -55 l 1
 649 -35 l 1
 651 -77 651 -125 651 -168 c 1xf2
689 742 m 1xf4
 691 778 666 787 654 813 c 2
 643 837 l 1
 639 837 635 824 635 820 c 1
 594 865 l 1
 562 865 l 2
 543 865 539 860 527 845 c 1
 525 817 l 1
 509 817 505 796 505 781 c 0
 505 745 543 669 575 666 c 1
 580 656 l 1
 599 679 l 1
 626 671 654 667 682 666 c 1
 684 692 689 717 689 742 c 1xf4
EndSplineSet
EndChar

StartChar: Lslash
Encoding: 239 321 140
Width: 878
VWidth: 2308
Flags: HW
HStem: 255 25<898 903.384> 1438 69<81 101> 1438 46<81 101>
VStem: 202 368<1005.02 1207> 370 20<-136.097 -68.4298> 459.217 22.5537<582.397 586.552> 496 51<-87 -22> 622 39<-87 -46> 622 21<-113.248 -61.4247> 758 45<-138 -113.096>
LayerCount: 2
Back
SplineSet
376 -68 m 1xc2c0
 286.314023987 22.9020532526 291.363659965 278.001926667 262 396 c 1
 280 418 l 1
 262 464 l 1
 280 487 l 1
 262 510 l 1
 262 534 l 1
 241 534 l 1
 241 789 l 1
 202 834 l 1
 221 880 l 1
 202 880 l 1
 202 1135 l 1
 174 1176 188 1231 160 1275 c 1
 182 1322 l 1
 160 1367 l 1
 147 1367 l 1
 160 1390 l 1
 142 1390 l 1
 121 1414 l 1
 121 1460 l 1
 101 1438 l 1
 81 1438 l 1xd040
 81 1460 l 1
 28 1484 l 1xb040
 60 1484 88 1507 121 1507 c 2
 443 1507 l 1
 461 1488 l 1
 466 1504 482 1508 496 1508 c 0
 505 1508 512 1507 516 1507 c 1xc240
 532 1484 l 1
 570 1484 l 1xb040
 570 1507 l 1
 738 1507 l 1
 694 1459 661 1418 606 1390 c 1
 606 1332 583 1316 551 1275 c 1
 551 1229 l 1
 532 1229 l 1
 532 1207 l 1
 554 1207 572 1201 572 1170 c 1
 570 1112 l 1
 553 1089 549 1046 549 1003 c 0
 549 974 551 947 551 928 c 0
 551 916 536 872 532 858 c 1
 549 842 555 738 555 635 c 0
 555 541 551 449 551 418 c 1
 538 418 l 1
 538 398 572 348 572 312 c 0
 572 309 570 305 570 301 c 1
 588 280 l 1
 649 282 l 2
 695 284 743 253 790 255 c 0
 812 255 827 280 847 280 c 2
 878 280 l 2
 884 280 913 298 919 301 c 1
 919 255 l 1
 898 255 l 1
 898 185 l 1
 878 185 l 1
 898 164 l 1
 869 98 859 4 859 -68 c 1
 838 -68 l 1
 799 -113 l 1
 801 -115 803 -120 803 -124 c 0
 803 -137 795 -152 758 -155 c 1
 725 -118 l 1
 731 -118 736 -116 736 -116 c 1
 736 -116 743 -138 758 -138 c 1
 758 -91 l 1
 738 -91 l 1
 758 -68 l 1
 718 -68 l 1
 677 -22 l 1
 661 -46 l 1xd140
 662 -87 l 1
 659 -73 653 -60 643 -60 c 1
 622 -138 l 1
 622 -43 588 23 588 46 c 1
 555 44 547 -24 547 -87 c 1
 547 -86 549 -86 551 -84 c 2
 547 -91 l 1
 532 -130 l 1
 516 -130 l 1
 496 -107 l 1
 496 -22 l 1
 480 -22 l 1
 461 -7 l 1
 443 -22 l 1
 401 -22 382 -38 376 -68 c 1xc2c0
370 -138 m 1x8840
 370 -109 371 -87 376 -68 c 1
 380 -77 390 -97 390 -97 c 1
 390 -138 370 -138 370 -138 c 1x8840
878 233 m 1
 898 209 l 1
 878 209 l 1
 878 233 l 1
725 -118 m 1
 722 -120 718 -120 718 -120 c 1
 718 -109 l 1
 725 -118 l 1
291.748046875 474.920898438 m 5
 213.25 492.528320312 l 5
 218.92578125 478.643554688 219.594726562 463.791992188 202.932617188 456.981445312 c 4
 181.642578125 448.279296875 155.98046875 452.9140625 132.717773438 459.610351562 c 5
 14.591796875 782.954101562 l 5
 253.411132812 880.573242188 l 5
 258.708007812 867.614257812 269.856445312 866.76953125 279.11328125 870.553710938 c 4
 300.403320312 879.255859375 318.078125 899.444335938 340.293945312 908.525390625 c 4
 368.989257812 920.254882812 397.853515625 934.213867188 428.400390625 946.700195312 c 4
 464.500976562 961.45703125 673.731445312 1042.66015625 711.047851562 1043.87011719 c 5
 708.149414062 1058.88964844 l 5
 881.247070312 1129.64453125 l 5
 885.118164062 985.384765625 l 5
 878.4296875 985.891601562 l 5
 898.111328125 961.52734375 l 5
 888.645507812 960.8984375 l 5
 893.854492188 934.939453125 902.9765625 907.338867188 912.435546875 884.198242188 c 4
 921.516601562 861.982421875 933.583984375 837.74609375 943.420898438 813.678710938 c 4
 952.880859375 790.538085938 958.974609375 770.341796875 963.048828125 747.16015625 c 5
 871.071289062 705.2421875 l 5
 866.321289062 719.505859375 l 6
 861.403320312 731.5390625 849.375976562 750.389648438 834.565429688 744.3359375 c 5
 828.842773438 739.8359375 l 5
 859.760742188 727.626953125 l 5
 829.0859375 707.526367188 627.30078125 623.96484375 593.051757812 609.96484375 c 4
 590.275390625 608.829101562 578.7890625 605.21484375 565.829101562 599.91796875 c 4
 551.01953125 593.86328125 534.56640625 583.897460938 537.971679688 575.56640625 c 4
 538.728515625 573.715820312 538.559570312 571.485351562 541.16796875 570.391601562 c 5
 521.012695312 558.912109375 l 5
 513.905273438 565.729492188 l 5
 501.87109375 560.810546875 494.297851562 555.553710938 486.3515625 574.9921875 c 6
 483.32421875 582.397460938 l 5
 512.391601562 569.431640625 l 5
 507.391601562 592.235351562 l 5
 483.32421875 582.397460938 l 5
 481.770507812 591.485351562 l 5
 459.216796875 577.9453125 l 5x8440
 467.034179688 550.891601562 l 5
 460.385742188 546.013671875 450.791992188 537.770507812 443.38671875 534.743164062 c 6
 291.748046875 474.920898438 l 5
EndSplineSet
Fore
SplineSet
554.775607002 594.744148058 m 1
 553.93222059 515.799920651 551 444.541778327 551 418 c 1
 537.971679688 418 l 1
 537.971679688 398 572 348 572 312 c 0
 572 309 570 305 570 301 c 1
 588 280 l 1
 649 282 l 2
 695 284 743 253 790 255 c 0
 812 255 827 280 847 280 c 2
 878 280 l 2
 884 280 913 298 919 301 c 1
 919 255 l 1
 898 255 l 1
 898 209 l 1
 898 185 l 1
 878 185 l 1
 898 164 l 1
 869 98 859 4 859 -68 c 1
 838 -68 l 1
 799 -113 l 1
 801 -115 803 -120 803 -124 c 0
 803 -137 795 -152 758 -155 c 1
 725 -118 l 1
 731 -118 736 -116 736 -116 c 1
 736 -116 743 -138 758 -138 c 1
 758 -91 l 1
 738 -91 l 1
 758 -68 l 1
 718 -68 l 1
 677 -22 l 1
 661 -46 l 1
 662 -87 l 1
 659 -73 653 -60 643 -60 c 1
 622 -138 l 1
 622 -43 588 23 588 46 c 1
 555 44 547 -24 547 -87 c 1
 547 -86 549 -86 551 -84 c 2
 547 -91 l 1
 532 -130 l 1
 516 -130 l 1
 496 -107 l 1
 496 -22 l 1
 480 -22 l 1
 461 -7 l 1
 443 -22 l 1
 401 -22 382 -38 376 -68 c 1
 286.314023987 22.9020532526 291.363659965 278.001926667 262 396 c 1
 280 418 l 1
 262 464 l 1
 273.712746721 478.966287477 l 1
 213.25 492.528320312 l 1
 218.92578125 478.643554688 219.594726562 463.791992188 202.932617188 456.981445312 c 0
 181.642578125 448.279296875 155.98046875 452.9140625 132.717773438 459.610351562 c 1
 14.591796875 782.954101562 l 1
 214.701200948 864.75027598 l 1
 221 880 l 1
 202 880 l 1
 202 1135 l 1
 174 1176 188 1231 160 1275 c 1
 182 1322 l 1
 160 1367 l 1
 147 1367 l 1
 160 1390 l 1
 142 1390 l 1
 121 1414 l 1
 121 1460 l 1
 101 1438 l 1
 81 1438 l 1
 81 1460 l 1
 28 1484 l 1
 60 1484 88 1507 121 1507 c 2
 443 1507 l 1
 461 1488 l 1
 466 1504 482 1508 496 1508 c 0
 505 1508 512 1507 516 1507 c 1
 532 1484 l 1
 570 1484 l 1
 570 1507 l 1
 738 1507 l 1
 694 1459 661 1418 606 1390 c 1
 606 1332 583 1316 551 1275 c 1
 551 1229 l 1
 532 1229 l 1
 532 1207 l 1
 554 1207 572 1201 572 1170 c 1
 570 1112 l 1
 553 1089 549 1046 549 1003 c 0
 549 999.630736693 549.026996279 996.288469664 549.0747159 992.982608319 c 1
 616.697184968 1017.89554083 690.34067257 1043.19869997 711.047851562 1043.87011719 c 1
 708.149414062 1058.88964844 l 1
 881.247070312 1129.64453125 l 1
 885.118164062 985.384765625 l 1
 878.4296875 985.891601562 l 1
 898.111328125 961.52734375 l 1
 888.645507812 960.8984375 l 1
 893.854492188 934.939453125 902.9765625 907.338867188 912.435546875 884.198242188 c 0
 921.516601562 861.982421875 933.583984375 837.74609375 943.420898438 813.678710938 c 0
 952.880859375 790.538085938 958.974609375 770.341796875 963.048828125 747.16015625 c 1
 871.071289062 705.2421875 l 1
 866.321289062 719.505859375 l 2
 861.403320312 731.5390625 849.375976562 750.389648438 834.565429688 744.3359375 c 1
 828.842773438 739.8359375 l 1
 859.760742188 727.626953125 l 1
 829.0859375 707.526367188 627.30078125 623.96484375 593.051757812 609.96484375 c 0
 590.275390625 608.829101562 578.7890625 605.21484375 565.829101562 599.91796875 c 0
 562.135650053 598.407952307 558.339971913 596.654669283 554.775607002 594.744148058 c 1
376 -68 m 1
 380 -77 390 -97 390 -97 c 1
 390 -138 370 -138 370 -138 c 1
 370 -109 371 -87 376 -68 c 1
725 -118 m 1
 722 -120 718 -120 718 -120 c 1
 718 -109 l 1
 725 -118 l 1
EndSplineSet
EndChar

